<?xml version="1.0" standalone="no"?>

<svg 
     version="1.1"
     baseProfile="full"
     xmlns="http://www.w3.org/2000/svg"
     xmlns:xlink="http://www.w3.org/1999/xlink"
     xmlns:ev="http://www.w3.org/2001/xml-events"
     xmlns:klighd="http://de.cau.cs.kieler/klighd"
     x="0px"
     y="0px"
     width="366px"
     height="84px"
     viewBox="0 0 366 84"
     >
<title></title>
<desc>Creator: FreeHEP Graphics2D Driver Producer: de.cau.cs.kieler.klighd.piccolo.freehep.SemanticSVGGraphics2D Revision Source:  Date: Sunday, April 10, 2022 at 10:03:56 AM Pacific Daylight Time</desc>
<g stroke-dashoffset="0" stroke-linejoin="miter" stroke-dasharray="none" stroke-width="1" stroke-linecap="butt" stroke-miterlimit="10">
<g fill="#ffffff" fill-rule="nonzero" fill-opacity="1" stroke="none">
  <path d="M 0 0 L 366 0 L 366 84 L 0 84 L 0 0 z"/>
</g>
<g fill="#ffffff" fill-rule="nonzero" fill-opacity="1" stroke="none">
  <path d="M 0.5 8.5 L 0.5 75.5 C 0.5 79.91827799864635 4.081722001353653 83.5 8.5 83.5 L 357.5 83.5 C 361.9182779986464 83.5 365.5 79.91827799864635 365.5 75.5 L 365.5 8.5 C 365.5 4.081722001353653 361.9182779986464 0.5 357.5 0.5 L 8.5 0.5 C 4.081722001353653 0.5 0.5 4.081722001353653 0.5 8.5 z"/>
</g>
<g stroke-opacity="1" fill="none" stroke="#bebebe">
  <path d="M 0.5 8.5 L 0.5 75.5 C 0.5 79.91827799864635 4.081722001353653 83.5 8.5 83.5 L 357.5 83.5 C 361.9182779986464 83.5 365.5 79.91827799864635 365.5 75.5 L 365.5 8.5 C 365.5 4.081722001353653 361.9182779986464 0.5 357.5 0.5 L 8.5 0.5 C 4.081722001353653 0.5 0.5 4.081722001353653 0.5 8.5 z"/>
</g>
<g transform="matrix(1, 0, 0, 1, 152, 6)">
  <text x="0" y="10.0" font-weight="normal" font-size="10px" font-family="Helvetica" style="white-space: pre" font-style="normal" fill="#000000" fill-opacity="1" stroke="none" textLength="62.0px" lengthAdjust="spacingAndGlyphs">DeadlineTest</text>
</g>
<g transform="matrix(1, 0, 0, 1, 6, 44)">
<g fill="#ffffff" fill-rule="nonzero" fill-opacity="1" stroke="none">
  <path d="M 17.5 9 C 17.5 13.694420373561742 13.694420373561742 17.5 9 17.5 C 4.305579626438257 17.5 0.5 13.694420373561742 0.5 9 C 0.5 4.305579626438257 4.305579626438257 0.5 9 0.5 C 13.694420373561742 0.5 17.5 4.305579626438257 17.5 9 z"/>
</g>
</g>
<g transform="matrix(1, 0, 0, 1, 6, 44)">
<g stroke-opacity="1" fill="none" stroke="#000000">
  <path d="M 17.5 9 C 17.5 13.694420373561742 13.694420373561742 17.5 9 17.5 C 4.305579626438257 17.5 0.5 13.694420373561742 0.5 9 C 0.5 4.305579626438257 4.305579626438257 0.5 9 0.5 C 13.694420373561742 0.5 17.5 4.305579626438257 17.5 9 z"/>
</g>
</g>
<g transform="matrix(1, 0, 0, 1, 216.6999969482422, 21)">
<g fill="#f2f2f2" fill-rule="nonzero" fill-opacity="1" stroke="none">
  <path d="M 0.5 8.5 L 0.5 48.5 C 0.5 52.918277998646346 4.081722001353653 56.5 8.5 56.5 L 63.099998474121094 56.5 C 67.51827647276744 56.5 71.0999984741211 52.918277998646346 71.0999984741211 48.5 L 71.0999984741211 8.5 C 71.0999984741211 4.081722001353653 67.51827647276744 0.5 63.099998474121094 0.5 L 8.5 0.5 C 4.081722001353653 0.5 0.5 4.081722001353653 0.5 8.5 z"/>
</g>
</g>
<g transform="matrix(1, 0, 0, 1, 216.6999969482422, 21)">
<g stroke-opacity="1" fill="none" stroke="#bebebe">
  <path d="M 0.5 8.5 L 0.5 48.5 C 0.5 52.918277998646346 4.081722001353653 56.5 8.5 56.5 L 63.099998474121094 56.5 C 67.51827647276744 56.5 71.0999984741211 52.918277998646346 71.0999984741211 48.5 L 71.0999984741211 8.5 C 71.0999984741211 4.081722001353653 67.51827647276744 0.5 63.099998474121094 0.5 L 8.5 0.5 C 4.081722001353653 0.5 0.5 4.081722001353653 0.5 8.5 z"/>
</g>
</g>
<g transform="matrix(1, 0, 0, 1, 230.99999618530273, 27)">
  <text x="0" y="10.0" font-weight="normal" font-size="10px" font-family="Helvetica" style="white-space: pre" font-style="normal" fill="#000000" fill-opacity="1" stroke="none" textLength="43.0px" lengthAdjust="spacingAndGlyphs">Deadline</text>
</g>
<g transform="matrix(1, 0, 0, 1, 225.99999713897705, 45)">
<g fill="#a6a6a6" fill-rule="nonzero" fill-opacity="1" stroke="none">
  <path d="M 0 0 L 47 0 L 53 12 L 47 24 L 0 24 L 6 12 z"/>
</g>
</g>
<g transform="matrix(1, 0, 0, 1, 225.99999713897705, 45)">
<g stroke-opacity="1" fill="none" stroke="#737373">
  <path d="M 0 0 L 47 0 L 53 12 L 47 24 L 0 24 L 6 12 z"/>
</g>
</g>
<g transform="matrix(1, 0, 0, 1, 228.99999713897705, 57)">
<g stroke-opacity="1" stroke-width="2" fill="none" stroke="#a52a2a">
  <path d="M 9 -2 L 3 -2"/>
</g>
</g>
<g transform="matrix(1, 0, 0, 1, 228.99999713897705, 57)">
<g stroke-opacity="1" stroke-width="2" fill="none" stroke="#a52a2a">
  <path d="M 6 -2 L 6 1"/>
</g>
</g>
<g transform="matrix(1, 0, 0, 1, 228.99999713897705, 57)">
<g stroke-opacity="1" fill="none" stroke="#a52a2a">
  <path d="M 11.5 6 C 11.5 9.037566124069363 9.037566124069363 11.5 6 11.5 C 2.962433875930637 11.5 0.5 9.037566124069363 0.5 6 C 0.5 2.962433875930637 2.962433875930637 0.5 6 0.5 C 9.037566124069363 0.5 11.5 2.962433875930637 11.5 6 z"/>
</g>
</g>
<g transform="matrix(1, 0, 0, 1, 230.99999713897705, 59)">
<g fill="#a52a2a" fill-rule="nonzero" fill-opacity="1" stroke="none">
  <path d="M 7.758770483143634 5.368080573302675 C 8.205126731809033 4.141726859062018 8.025158902745078 2.774735481291268 7.276608177155968 1.7056942545958158 C 6.528057451566856 0.6366530279003637 5.305058363888183 0 4 0 L 4 4 z"/>
</g>
</g>
<g transform="matrix(1, 0, 0, 1, 243.99999713897705, 57)">
  <text x="0" y="7.0" font-weight="bold" font-size="7px" font-family="Helvetica" style="white-space: pre" font-style="normal" fill="#a52a2a" fill-opacity="1" stroke="none" textLength="29.0px" lengthAdjust="spacingAndGlyphs">10 msec</text>
</g>
<g transform="matrix(1, 0, 0, 1, 216.6999969482422, 43)">
<g stroke-opacity="1" stroke-dasharray="3,1" fill="none" stroke="#000000">
  <path d="M 3.299999952316284 14 L 15.300000190734863 14"/>
</g>
</g>
<g transform="matrix(1, 0, 0, 1, 216.6999969482422, 43)">
<g stroke-opacity="1" stroke-dasharray="3,1" fill="none" stroke="#000000">
  <path d="M 62.29999923706055 14 L 68.29999542236328 14"/>
</g>
</g>
<g transform="matrix(1, 0, 0, 1, 205.99999713897705, 62)">
  <text x="0" y="8.0" font-weight="normal" font-size="8px" font-family="Helvetica" style="white-space: pre" font-style="normal" fill="#000000" fill-opacity="1" stroke="none" textLength="5.0px" lengthAdjust="spacingAndGlyphs">x</text>
</g>
<g transform="matrix(1, 0, 0, 1, 211.99999713897705, 53)">
<g fill="#000000" fill-rule="nonzero" fill-opacity="1" stroke="none">
  <path d="M 0 0 L 8 4 L 0 8 z"/>
</g>
</g>
<g transform="matrix(1, 0, 0, 1, 211.99999713897705, 53)">
<g stroke-opacity="1" fill="none" stroke="#000000">
  <path d="M 0 0 L 8 4 L 0 8 z"/>
</g>
</g>
<g transform="matrix(1, 0, 0, 1, 293.99999237060547, 62)">
  <text x="0" y="8.0" font-weight="normal" font-size="8px" font-family="Helvetica" style="white-space: pre" font-style="normal" fill="#000000" fill-opacity="1" stroke="none" textLength="6.0px" lengthAdjust="spacingAndGlyphs">d</text>
</g>
<g transform="matrix(1, 0, 0, 1, 284.99999237060547, 53)">
<g fill="#000000" fill-rule="nonzero" fill-opacity="1" stroke="none">
  <path d="M 0 0 L 8 4 L 0 8 z"/>
</g>
</g>
<g transform="matrix(1, 0, 0, 1, 284.99999237060547, 53)">
<g stroke-opacity="1" fill="none" stroke="#000000">
  <path d="M 0 0 L 8 4 L 0 8 z"/>
</g>
</g>
<g transform="matrix(1, 0, 0, 1, 39, 42)">
<g fill="#a6a6a6" fill-rule="nonzero" fill-opacity="1" stroke="none">
  <path d="M 0 0 L 39 0 L 45 11 L 39 22 L 0 22 L 6 11 z"/>
</g>
</g>
<g transform="matrix(1, 0, 0, 1, 39, 42)">
<g stroke-opacity="1" fill="none" stroke="#737373">
  <path d="M 0 0 L 39 0 L 45 11 L 39 22 L 0 22 L 6 11 z"/>
</g>
</g>
<g transform="matrix(1, 0, 0, 1, 59, 47)">
  <text x="0" y="10.0" font-weight="bold" font-size="10px" font-family="Helvetica" style="white-space: pre" font-style="normal" fill="#000000" fill-opacity="1" stroke="none" textLength="5.0px" lengthAdjust="spacingAndGlyphs">1</text>
</g>
<g transform="matrix(1, 0, 0, 1, 139, 46)">
<g fill="#a6a6a6" fill-rule="nonzero" fill-opacity="1" stroke="none">
  <path d="M 0 0 L 39 0 L 45 11 L 39 22 L 0 22 L 6 11 z"/>
</g>
</g>
<g transform="matrix(1, 0, 0, 1, 139, 46)">
<g stroke-opacity="1" fill="none" stroke="#737373">
  <path d="M 0 0 L 39 0 L 45 11 L 39 22 L 0 22 L 6 11 z"/>
</g>
</g>
<g transform="matrix(1, 0, 0, 1, 158, 51)">
  <text x="0" y="10.0" font-weight="bold" font-size="10px" font-family="Helvetica" style="white-space: pre" font-style="normal" fill="#000000" fill-opacity="1" stroke="none" textLength="7.0px" lengthAdjust="spacingAndGlyphs">2</text>
</g>
<g transform="matrix(1, 0, 0, 1, 106, 48)">
<g fill="#ffffff" fill-rule="nonzero" fill-opacity="1" stroke="none">
  <path d="M 9 0 L 18 18 L 0 18 z"/>
</g>
</g>
<g transform="matrix(1, 0, 0, 1, 106, 48)">
<g stroke-opacity="1" fill="none" stroke="#000000">
  <path d="M 9 0 L 18 18 L 0 18 z"/>
</g>
</g>
<g transform="matrix(1, 0, 0, 1, 112.5, 54.69999980926514)">
  <text x="0" y="8.0" font-weight="normal" font-size="8px" font-family="Helvetica" style="white-space: pre" font-style="normal" fill="#000000" fill-opacity="1" stroke="none" textLength="5.0px" lengthAdjust="spacingAndGlyphs">L</text>
</g>
<g transform="matrix(1, 0, 0, 1, 315, 46)">
<g fill="#a6a6a6" fill-rule="nonzero" fill-opacity="1" stroke="none">
  <path d="M 0 0 L 39 0 L 45 11 L 39 22 L 0 22 L 6 11 z"/>
</g>
</g>
<g transform="matrix(1, 0, 0, 1, 315, 46)">
<g stroke-opacity="1" fill="none" stroke="#737373">
  <path d="M 0 0 L 39 0 L 45 11 L 39 22 L 0 22 L 6 11 z"/>
</g>
</g>
<g transform="matrix(1, 0, 0, 1, 334, 51)">
  <text x="0" y="10.0" font-weight="bold" font-size="10px" font-family="Helvetica" style="white-space: pre" font-style="normal" fill="#000000" fill-opacity="1" stroke="none" textLength="7.0px" lengthAdjust="spacingAndGlyphs">3</text>
</g>
<g transform="matrix(1, 0, 0, 1, 0, 22)">
<g stroke-opacity="1" stroke-dasharray="3,1" fill="none" stroke="#000000">
  <path d="M 24 31 L 45 31"/>
</g>
</g>
<g transform="matrix(1, 0, 0, 1, 0, 22)">
<g stroke-opacity="1" stroke-dasharray="3,1" fill="none" stroke="#000000">
  <path d="M 82 27 L 95 27 L 95 11 L 195 11 L 195 35 L 212 35"/>
</g>
</g>
<g transform="matrix(1, 0, 0, 1, 193.00000023841858, 55)">
<g fill="#000000" fill-rule="nonzero" fill-opacity="1" stroke="none">
  <path d="M 3.5 2 C 3.5 2.82842712474619 2.82842712474619 3.5 2 3.5 C 1.17157287525381 3.5 0.5 2.82842712474619 0.5 2 C 0.5 1.17157287525381 1.17157287525381 0.5 2 0.5 C 2.82842712474619 0.5 3.5 1.17157287525381 3.5 2 z"/>
</g>
</g>
<g transform="matrix(1, 0, 0, 1, 193.00000023841858, 55)">
<g stroke-opacity="1" fill="none" stroke="#000000">
  <path d="M 3.5 2 C 3.5 2.82842712474619 2.82842712474619 3.5 2 3.5 C 1.17157287525381 3.5 0.5 2.82842712474619 0.5 2 C 0.5 1.17157287525381 1.17157287525381 0.5 2 0.5 C 2.82842712474619 0.5 3.5 1.17157287525381 3.5 2 z"/>
</g>
</g>
<g transform="matrix(1, 0, 0, 1, 0, 22)">
<g stroke-opacity="1" stroke-dasharray="3,1" fill="none" stroke="#000000">
  <path d="M 119.5 35 L 145 35"/>
</g>
</g>
<g transform="matrix(1, 0, 0, 1, 0, 22)">
<g stroke-opacity="1" stroke-dasharray="3,1" fill="none" stroke="#000000">
  <path d="M 184 35 L 212 35"/>
</g>
</g>
<g transform="matrix(1, 0, 0, 1, 0, 22)">
<g stroke-opacity="1" stroke-dasharray="3,1" fill="none" stroke="#000000">
  <path d="M 82 35 L 110.5 35"/>
</g>
</g>
<g transform="matrix(1, 0, 0, 1, 0, 22)">
<g stroke-opacity="1" stroke-dasharray="3,1" fill="none" stroke="#000000">
  <path d="M 293 35 L 321 35"/>
</g>
</g>
</g>
</svg>
