<!--
Source: https://commons.wikimedia.org/wiki/File:Zulip-icon-square.svg
Copyright 2020 Waldyrious
Licensed under the Apache License, Version 2.0 (the "License"); you may not use this file except in compliance with the License. You may obtain a copy of the License at https://www.apache.org/licenses/LICENSE-2.0. Unless required by applicable law or agreed to in writing, software distributed under the License is distributed on an "AS IS" BASIS, WITHOUT WARRANTIES OR CONDITIONS OF ANY KIND, either express or implied. See the License for the specific language governing permissions and limitations under the License.
-->
<svg xmlns="http://www.w3.org/2000/svg" viewBox="0 0 773 773"  enable-background="new 0 0 64 64">
  <linearGradient id="gradient" x1="0" y1="0" x2="0" y2="1">
    <stop offset="0" stop-color="#50adff"/>
    <stop offset="1" stop-color="#7877fc"/>
  </linearGradient>
  <rect width="100%" height="100%" fill="url(#gradient)"/>
  <path d="M566.66 527.25c0 33.03-24.23 60.05-53.84 60.05H260.29c-29.61 0-53.84-27.02-53.84-60.05 0-20.22 9.09-38.2 22.93-49.09l134.37-120c2.5-2.14 5.74 1.31 3.94 4.19l-49.29 98.69c-1.38 2.76.41 6.16 3.25 6.16h191.18c29.61 0 53.83 27.03 53.83 60.05zm0-281.39c0 20.22-9.09 38.2-22.93 49.09l-134.37 120c-2.5 2.14-5.74-1.31-3.94-4.19l49.29-98.69c1.38-2.76-.41-6.16-3.25-6.16H260.29c-29.61 0-53.84-27.02-53.84-60.05s24.23-60.05 53.84-60.05h252.54c29.61 0 53.83 27.02 53.83 60.05z" fill="white"/>
</svg>
