<?xml version="1.0" encoding="UTF-8" standalone="no"?>
<!-- Generator: Adobe Illustrator 28.0.0, SVG Export Plug-In . SVG Version: 6.00 Build 0)  -->

<svg
   version="1.1"
   id="Layer_1"
   x="0px"
   y="0px"
   viewBox="0 0 1088 688"
   style="enable-background:new 0 0 1088 688;"
   xml:space="preserve"
   sodipodi:docname="deterministic.svg"
   inkscape:version="1.3.2 (091e20ef0f, 2023-11-25, custom)"
   xmlns:inkscape="http://www.inkscape.org/namespaces/inkscape"
   xmlns:sodipodi="http://sodipodi.sourceforge.net/DTD/sodipodi-0.dtd"
   xmlns:xlink="http://www.w3.org/1999/xlink"
   xmlns="http://www.w3.org/2000/svg"
   xmlns:svg="http://www.w3.org/2000/svg"><defs
   id="defs57" /><sodipodi:namedview
   id="namedview57"
   pagecolor="#ffffff"
   bordercolor="#666666"
   borderopacity="1.0"
   inkscape:showpageshadow="2"
   inkscape:pageopacity="0.0"
   inkscape:pagecheckerboard="0"
   inkscape:deskcolor="#d1d1d1"
   inkscape:zoom="1.6182867"
   inkscape:cx="708.46534"
   inkscape:cy="382.19434"
   inkscape:window-width="1920"
   inkscape:window-height="1131"
   inkscape:window-x="0"
   inkscape:window-y="0"
   inkscape:window-maximized="1"
   inkscape:current-layer="g1246" />
<style
   type="text/css"
   id="style1">
	.st0{fill:#003266;}
	.st1{fill:#004076;}
	.st2{fill:#1694D3;}
	.st3{fill:#007AAA;}
	.st4{fill:none;stroke:#0079C1;stroke-width:2;stroke-miterlimit:10;}
	.st5{fill:#0079C1;}
	.st6{fill:#FFFFFF;}
	.st7{clip-path:url(#XMLID_00000123402399690132298670000004424108753266375335_);fill:#FFB6A6;}
	.st8{fill:#1A1A35;}
	.st9{clip-path:url(#XMLID_00000101800526973775095070000014979071516310800813_);fill:#FF8E00;}
	.st10{clip-path:url(#XMLID_00000101800526973775095070000014979071516310800813_);fill:#1A1A35;}
	.st11{fill:#FF8E00;}
	.st12{clip-path:url(#XMLID_00000006700081858586000840000015336470869858794923_);fill:#FF8E00;}
	.st13{fill:#FFB6A6;}
	.st14{clip-path:url(#XMLID_00000132080627231136645110000006003757588537655468_);fill:#FFB6A6;}
	.st15{fill:#31B4E8;}
	.st16{fill:#0B6BA9;}
	.st17{fill:none;stroke:#0B6BA9;stroke-width:2.7469;stroke-miterlimit:10;}
	.st18{clip-path:url(#SVGID_00000141418011603815838960000015018736191872324267_);}
	.st19{fill:none;stroke:#004076;stroke-width:1.0718;stroke-miterlimit:10;}
	.st20{fill:none;stroke:#003266;stroke-width:1.4218;stroke-linecap:round;stroke-linejoin:round;stroke-miterlimit:10;}
	.st21{fill:none;stroke:#FFFFFF;stroke-width:5.6871;stroke-miterlimit:10;}
	.st22{fill:#E2E6ED;}
	.st23{fill:#F7941E;}
	.st24{fill:#005C75;}
	.st25{fill:none;stroke:#0079C1;stroke-width:0.8746;stroke-dasharray:1.3119,0.4373;}
	.st26{fill:none;stroke:#0079C1;stroke-width:0.9621;stroke-linecap:square;}
	.st27{fill:#FFFFFF;stroke:#1A2E35;stroke-width:1.4218;stroke-miterlimit:10;}
	.st28{fill:#0079C1;stroke:#1A2E35;stroke-width:1.4218;stroke-miterlimit:10;}
	.st29{opacity:0.3;}
	.st30{fill:none;stroke:#003266;stroke-width:1.4218;stroke-miterlimit:10;}
</style>
<g
   id="g2">
	<path
   class="st0"
   d="M57.7,541.7c0,0-6.5,18.6,23.4,23.5c40.8,6.8,244.2,25,186,38.5c-32.9,7.6,25.6,17.7,185.6,21.5   c160.1,3.8,434.7-11.2,342.3-33.3c-92.4-22.2,257.6-4.1,234.7-50.2H57.7z"
   id="path1" />
	<path
   class="st1"
   d="M174.5,541.9c0,0-79.1-207,7.9-251c58.2-29.4,114.9,44.7,188.5,10.3c65.5-30.6,36.7-121.5,104.8-146.3   c88.7-32.4,192,177.8,284,145.2c144.8-51.3,179.6,29.5,140.4,242.2L174.5,541.9z"
   id="path2" />
</g>
<g
   id="g12">
	<g
   id="g3">
		<path
   class="st2"
   d="M665.2,571.7c-21.3-9.5-28.6-23.8-32-45.1c-1.6-10.1-0.8-18.9,5.1-29.1c18.3-31.4,48.2-27.5,64.3-70.6    c16.2-43.1,89.9-50.9,123.8-20.8c33.9,30.2-5.1,153.6-48.7,171.2C747.7,589.4,695,585,665.2,571.7z"
   id="path3" />
	</g>
	<path
   class="st3"
   d="M754.9,434.8c12.4,9.5,10.5,34.8-0.3,48.9s-49.4,24.7-61.7,15.2c-12.4-9.5-9.1-35.8,1.7-49.9   C705.4,434.9,742.6,425.3,754.9,434.8z"
   id="path4" />
	<g
   id="g11">
		<path
   class="st3"
   d="M675.2,503.4c13.6,3.1,27.8,6.9,41.3,10.5c13.6,3.9,27.4,7.7,40.6,13C730.6,518.3,701.9,511.3,675.2,503.4    L675.2,503.4z"
   id="path5" />
		<path
   class="st3"
   d="M721.1,515.5c12.5,0.3,25.1,1.5,37.2,4.8C746.3,518.4,733,517.2,721.1,515.5L721.1,515.5z"
   id="path6" />
		<path
   class="st3"
   d="M792.4,408.4c-1.8,3.1-4,6.1-6.2,8.9c0,0-0.7-0.8-0.7-0.8c2.9-1.6,5.8-3.1,8.9-4.4c-3.3,2.4-7,4.5-10.6,6.5    C786.5,415.1,789.3,411.6,792.4,408.4L792.4,408.4z"
   id="path7" />
		<path
   class="st3"
   d="M762,485.3c5.1,4.9,9.9,10.2,14.3,15.7C770.9,496.5,766.1,491.2,762,485.3L762,485.3z"
   id="path8" />
		<path
   class="st3"
   d="M761.9,492c2.6,2.7,4.3,6.2,4.8,9.9C764.8,498.7,763.2,495.5,761.9,492L761.9,492z"
   id="path9" />
		<path
   class="st3"
   d="M768.5,488.8c3.4,1,6.6,2.6,9.3,4.8C774.4,492.7,771.3,491.1,768.5,488.8L768.5,488.8z"
   id="path10" />
		<path
   class="st3"
   d="M637.2,531.2c29.7,16.4,75.3,37.7,109.7,33.1c23.9-4.6,44-30.3,55.8-50.3c15.9-27.8,26.3-60.4,22.2-92.6    c-0.9-6.4-2.5-12.7-4.8-18.8c2.4,6,4,12.3,5,18.7c2.9,19.3,0,39.1-5.8,57.6c-9.6,29.4-28.1,61.5-54.3,78.9    c-5.5,3.5-11.5,6.3-18,7.4C712.3,569.8,667,548.2,637.2,531.2L637.2,531.2z"
   id="path11" />
	</g>
</g>
<g
   id="g55">
	<g
   id="g16">
		<path
   class="st4"
   d="M465.2,488.8c-150.4,2.8-258.8-160.7-197.7-298.1c72.5-173.5,322.8-173.5,395.3,0    C724,328.2,615.6,491.7,465.2,488.8z"
   id="path12" />
		<path
   class="st5"
   d="M465.2,443.5C346.5,445.8,261,316.8,309.2,208.4c57.2-136.9,254.6-136.9,311.9,0    C669.3,316.8,583.9,445.8,465.2,443.5z"
   id="path13" />
		<path
   class="st6"
   d="M465.2,398.3C378.3,399.9,315.7,305.4,351,226c41.9-100.3,186.5-100.3,228.4,0    C614.7,305.4,552.1,399.9,465.2,398.3z"
   id="path14" />
		<path
   class="st5"
   d="M543.8,274.3c-1.8,103.4-155.6,103.4-157.3,0C388.3,170.9,542.1,170.9,543.8,274.3z"
   id="path15" />
		<path
   class="st6"
   d="M502,274.3c-0.8,48.4-72.9,48.4-73.7,0C429.2,225.9,501.2,225.9,502,274.3z"
   id="path16" />
	</g>
	<g
   id="g36"
   transform="translate(20,16)">
		<path
   class="st5"
   d="M 386.9,454.6 333,398.4 295,421 c 1.4,1.3 66.7,56.9 68,58.1 l 4.4,57.6 20.9,-0.7 4.8,-63.3 c 0.7,-6.6 -1.6,-13.2 -6.2,-18.1 z"
   id="path17" />
		<polygon
   class="st5"
   points="319.6,574.4 332.1,414 283.9,422.4 298.7,574.7 "
   id="polygon17" />
		<g
   id="g18">
			<defs
   id="defs17">
				<path
   id="XMLID_00000045616340822321690680000012002101231188918672_"
   d="m 365.2,314.5 13.4,-4.3 39.6,-35.9 7.9,9.1 c -2,1.6 -38.4,46 -40.3,45.1 0,0 -16,7.7 -16,7.7 z" />
			</defs>
			<use
   xlink:href="#XMLID_00000045616340822321690680000012002101231188918672_"
   style="overflow:visible;fill:#ffb6a6"
   id="use17" />
			<clipPath
   id="XMLID_00000018208588971266568550000013501173931957635005_">
				<use
   xlink:href="#XMLID_00000045616340822321690680000012002101231188918672_"
   style="overflow:visible"
   id="use18" />
			</clipPath>
		</g>
		<g
   id="g20">
			<defs
   id="defs18">
				<path
   id="XMLID_00000137817195738786775750000012214939017233552316_"
   d="m 364.6,311.9 6.1,29.4 -28.1,8.1 4.4,62 -65,11.2 3,-46.5 -20.3,-8 19.3,-33.5 c 3.4,-5.8 9.1,-9.9 15.7,-11.2 l 19.7,-3.9" />
			</defs>
			<use
   xlink:href="#XMLID_00000137817195738786775750000012214939017233552316_"
   style="overflow:visible;fill:#aaffff;fill-opacity:1"
   id="use19" />
			<clipPath
   id="XMLID_00000103967443633162435390000004482912296710897296_">
				<use
   xlink:href="#XMLID_00000137817195738786775750000012214939017233552316_"
   style="overflow:visible"
   id="use20" />
			</clipPath>
			<path
   style="fill:#ffb6a6"
   d="m 289.8,326.1 c 12.9,14.9 32.8,8.4 38,-9 l -32.1,4.4 z"
   clip-path="url(#XMLID_00000103967443633162435390000004482912296710897296_)"
   id="path20" />
		</g>
		<g
   id="g22">
			<defs
   id="defs20">
				<path
   id="XMLID_00000071558675517366683650000002679023847108395963_"
   d="m 323,280.9 10.3,19.6 c 1.9,3.5 0.1,7.9 -3.7,9.1 l -10.5,3.3 0.3,15 -16.8,1.9 3.2,-45.9 z" />
			</defs>
			<use
   xlink:href="#XMLID_00000071558675517366683650000002679023847108395963_"
   style="overflow:visible;fill:#ffb6a6"
   id="use21" />
			<clipPath
   id="XMLID_00000096755067665926761840000014569734603333719970_">
				<use
   xlink:href="#XMLID_00000071558675517366683650000002679023847108395963_"
   style="overflow:visible"
   id="use22" />
			</clipPath>
		</g>
		<g
   id="g25">
			<g
   id="g24">
				<defs
   id="defs22">
					<path
   id="XMLID_00000132806716748073542550000006351654391137727893_"
   d="m 383.8,536.2 0.1,6.2 c 0,0 -2.1,6.6 -6.9,6.6 -4.8,0 -4.9,-1.5 -4.9,-1.5 l -1,-11 z" />
				</defs>
				<use
   xlink:href="#XMLID_00000132806716748073542550000006351654391137727893_"
   style="overflow:visible;fill:#ffb6a6"
   id="use23" />
				<clipPath
   id="XMLID_00000080174431708946743340000008173928129251552898_">
					<use
   xlink:href="#XMLID_00000132806716748073542550000006351654391137727893_"
   style="overflow:visible"
   id="use24" />
				</clipPath>
			</g>
			<path
   d="m 372.1,547.6 c 0,0 9.9,2.5 11.9,-5.7 l 19.3,9.1 c 2.8,1.3 4.4,4.2 4.1,7.3 -0.1,0 -33.8,-0.4 -33.9,-0.4 -4.6,-0.3 -1.4,-7.8 -1.4,-10.3 z"
   id="path24" />
		</g>
		<g
   id="g27">
			<g
   id="g26">
				<defs
   id="defs25">
					<path
   id="XMLID_00000086661220817177460410000010791308712392787124_"
   d="m 315.3,574.5 v 6.9 c 0,0 -2.1,6.6 -6.9,6.6 -4.7,0 -4.9,-1.5 -4.9,-1.5 l -1.1,-11.8 z" />
				</defs>
				<use
   xlink:href="#XMLID_00000086661220817177460410000010791308712392787124_"
   style="overflow:visible;fill:#ffb6a6"
   id="use25" />
				<clipPath
   id="XMLID_00000175282567216782411210000011509460153028378556_">
					<use
   xlink:href="#XMLID_00000086661220817177460410000010791308712392787124_"
   style="overflow:visible"
   id="use26" />
				</clipPath>
			</g>
			<path
   d="m 303.5,586.6 c 0,0 9.9,2.5 11.9,-5.7 l 19.3,9.1 c 2.8,1.3 4.4,4.2 4.1,7.3 -0.1,0 -33.8,-0.4 -33.9,-0.4 -4.6,-0.3 -1.4,-7.8 -1.4,-10.3 z"
   id="path26" />
		</g>
		<path
   d="m 323.5,283 c 0,0 -12,6.6 -12.3,6.7 1.3,2.7 4.2,6.5 0.9,10 l -2.5,-4 c 0,0 -4.4,6.6 1.5,8.5 l -7,8.3 c -7.9,-6.9 -7.3,-13.5 -8.3,-23.1 -0.8,-6.2 4.3,-10.7 9.4,-13.2 0,0 19.4,-9.8 19.4,-9.8 0,0 8.9,12.4 -1.1,16.6 z"
   id="path27" />
		
		<path
   class="st13"
   d="m 417.2,275.2 c 0,0 2.3,-10 2.7,-10.1 0.4,-0.2 2.8,0.7 2.8,1.8 0,1.1 1.5,8.5 1.5,8.5 l 9.5,1 -7.8,7 z"
   id="path35" />
		<path
   class="st13"
   d="m 288.9,377.7 -18.4,-7.3 c -1.9,5.8 -4.7,12.9 -4.9,19 0,0 -3.4,53.7 -3.4,53.7 0,0 -3.6,12 -3.6,12.4 0,0.4 0.4,7.9 0.9,10.4 0.5,2.6 11.5,5.6 11.7,5.2 1.5,-2.3 -1.2,-8.7 -1.2,-8.7 l 1.6,-7.9 c 0,0 1.6,4 1.9,4.5 0.2,0.5 3.5,1.1 4.6,1 0.8,-0.1 -2.4,-9.7 -3.9,-13.9 1.9,-9.6 10.3,-60.7 14.7,-68.4 z"
   id="path36" />
	</g>
	<g
   id="g54">
		<g
   id="g38">
			<g
   id="g37">
				<defs
   id="defs36">
					<path
   id="XMLID_00000126318745599164316900000009541096457141076887_"
   d="M656.5,571.9l0.3,7.6c0,0,2.1,7.5,7.5,7.6       c5.3,0.1,5.6-1.5,5.6-1.5l1.1-13.3L656.5,571.9z" />
				</defs>
				<use
   xlink:href="#XMLID_00000126318745599164316900000009541096457141076887_"
   style="overflow:visible;fill:#FFB6A6;"
   id="use36" />
				<clipPath
   id="XMLID_00000162342708694886873260000012385410651943645361_">
					<use
   xlink:href="#XMLID_00000126318745599164316900000009541096457141076887_"
   style="overflow:visible;"
   id="use37" />
				</clipPath>
			</g>
			<path
   d="M669.9,585.6c0,0-11.2,2.6-13.2-6.8l-22.1,9.8c-3.2,1.4-5.1,4.6-4.9,8.1l0,0l38,0.5C673.1,597.2,669.8,588.6,669.9,585.6     z"
   id="path37" />
		</g>
		<g
   id="g40">
			<g
   id="g39">
				<defs
   id="defs38">
					<path
   id="XMLID_00000111870283177755915490000007133872770799700917_"
   d="M621.8,564.4l-2.1,7.3c0,0-0.3,7.8,4.7,9.6       s5.8,0.4,5.8,0.4l5.3-12.3L621.8,564.4z" />
				</defs>
				<use
   xlink:href="#XMLID_00000111870283177755915490000007133872770799700917_"
   style="overflow:visible;fill:#FFB6A6;"
   id="use38" />
				<clipPath
   id="XMLID_00000094587285072795900240000011950947208664724919_">
					<use
   xlink:href="#XMLID_00000111870283177755915490000007133872770799700917_"
   style="overflow:visible;"
   id="use39" />
				</clipPath>
			</g>
			<path
   d="M630.2,581.6c0,0-11.4-1.1-10.3-10.6l-24,2.3c-3.4,0.3-6.3,2.8-7.2,6.1l35.9,12.5C629.6,593.6,629.2,584.4,630.2,581.6z"
   id="path39" />
		</g>
		<g
   id="g53">
			<path
   d="M697.9,336.1c-7.1,5.4-8.4,16.4-2.6,23.2c3.8,3.5,5.8,7.8,4.7,13c-4.6,20.3,15.1,22.7,30.4,22.2     c2.3-19.3-4.3-38.7-9.8-57c-1.4-5.9-5.9-8.1-11.6-6.3C705.2,332.2,700.8,333.8,697.9,336.1z"
   id="path40" />
			<path
   class="st5"
   d="M709.6,445.8c-8,6.3-45.8,31.1-51.4,38.8l0,0c-7.5,6.7-34.3,71.8-39.6,81.6l21.9,7.4     c12.4-17.8,35.8-59.3,46-78.8c0,0,49.3-31.6,49.3-31.6V447L709.6,445.8z"
   id="path41" />
			<path
   class="st5"
   d="M751.1,447c1.6,11,3.8,24.6-3.9,33.9l0,0c-6.6,12-45.4,20.9-56.8,26.4L674,573.6h-20.8     c2-11.8,3.3-75.1,10-84.5h0c5.7-14.7,44.9-33.2,56.7-42.1H751.1z"
   id="path42" />
			<g
   id="g49">
				<g
   id="g43">
					<defs
   id="defs42">
						<path
   id="XMLID_00000037660895084499481730000006568235275533148288_"
   d="M674,372.9l-12.8-4.2l-39.7-31.5l-2.6,10.6        c0,0,30.1,38.7,32.9,40.5c2.8,1.8,17.3,7.8,17.3,7.8L674,372.9z" />
					</defs>
					<use
   xlink:href="#XMLID_00000037660895084499481730000006568235275533148288_"
   style="overflow:visible;fill:#FFB6A6;"
   id="use42" />
					<clipPath
   id="XMLID_00000000219247839484180210000005859581488268840620_">
						<use
   xlink:href="#XMLID_00000037660895084499481730000006568235275533148288_"
   style="overflow:visible;"
   id="use43" />
					</clipPath>
				</g>
				<g
   id="g45">
					<defs
   id="defs43">
						<path
   id="XMLID_00000158029054963071255210000011759180318687484801_"
   d="M702.1,350.9c12.6-31.9,38.8-1.8,18.4,17.5        l-1.2,17.4l-13.1-1.3l2.1-13.9C702.5,367.8,699.8,359.5,702.1,350.9z" />
					</defs>
					<use
   xlink:href="#XMLID_00000158029054963071255210000011759180318687484801_"
   style="overflow:visible;fill:#FFB6A6;"
   id="use44" />
					<clipPath
   id="XMLID_00000050660844256796972920000001944687980094669741_">
						<use
   xlink:href="#XMLID_00000158029054963071255210000011759180318687484801_"
   style="overflow:visible;"
   id="use45" />
					</clipPath>
				</g>
				<g
   id="g48">
					<polygon
   class="st11"
   points="706.7,377.8 672.3,370.1 667.1,398.9 701,409.3      "
   id="polygon45"
   style="fill:#aaffff;fill-opacity:1" />
					<g
   id="g47">
						<defs
   id="defs45">
							<path
   id="XMLID_00000142870588312482286890000005864276382340895918_"
   d="M703.5,450.3c0,0-6.3-44.8-5.9-55.4         c0.5-10.7,9.1-17.1,9.1-17.1l12.9-2.3c0,0,22.5,1.1,27.3,16.1c4.8,15,4.2,58.7,4.2,58.7H703.5z" />
						</defs>
						<use
   xlink:href="#XMLID_00000142870588312482286890000005864276382340895918_"
   style="overflow:visible;fill:#aaffff;fill-opacity:1"
   id="use46" />
						<clipPath
   id="XMLID_00000110451951279901880960000009360824398427528350_">
							<use
   xlink:href="#XMLID_00000142870588312482286890000005864276382340895918_"
   style="overflow:visible;"
   id="use47" />
						</clipPath>
						<path
   style="clip-path:url(#XMLID_00000110451951279901880960000009360824398427528350_);fill:#FFB6A6;"
   d="M721.2,374.4        c-0.1,10-17,19.3-17.2,1.7L721.2,374.4z"
   clip-path="url(#XMLID_00000110451951279901880960000009360824398427528350_)"
   id="path47" />
					</g>
					<polygon
   class="st11"
   points="743.5,385.5 771.7,421.1 751.1,437.9 732.6,414.4      "
   id="polygon47"
   style="fill:#aaffff;fill-opacity:1" />
				</g>
				<path
   class="st13"
   d="M621.9,338.2c0,0-4.4-8.7-5.4-8.9c-1.1-0.2-18-1.3-18.4-0.3c-0.3,1.1,0.1,3,2.9,3.3      c2.8,0.3,7.5,1.7,7.5,1.7s-2.2,7.2-1.3,8.7c1,1.5,11.7,5,11.7,5L621.9,338.2z"
   id="path48" />
			</g>
			<g
   id="g51">
				<path
   class="st2"
   d="M714.4,461.9l43.6-10c2-0.4,1.9-2.6,1.6-4.2l-45.1,9.9V461.9z"
   id="path49" />
				<path
   class="st2"
   d="M714.4,461.9l-51.7,0.2c-1.5,0-3.3-1.3-3.9-2.9l-15.5-38.8c-0.6-1.6,0-2.9,1.6-2.9l51.7-0.2      c1.5,0,3.3,1.3,3.9,2.9l15.5,38.8C716.6,460.6,715.9,461.9,714.4,461.9z"
   id="path50" />
				<polygon
   class="st5"
   points="759.5,447.8 711.9,449 715.3,457.4     "
   id="polygon50" />
				<path
   class="st15"
   d="M681.3,436.9c4.1,6.1-4.1,11.7-8.3,5.6C669,436.4,677.2,430.8,681.3,436.9z"
   id="path51" />
			</g>
			<g
   id="g52">
				<defs
   id="defs51">
					<path
   id="XMLID_00000022529475121824963310000013760732293271509170_"
   d="M777.4,432.2l-7.4-9.7l-15.1,12.3l4.6,4.6l-31.2,14.9       c0,0-9.7,0.1-10,0.2c-0.5,0.2,0.3,2.7,3,2.5c0.6,0.1-6.3,5-6.3,5c9.5,5.2,11.4,3.4,19.7-1.7c0,0,35.2-7.3,35.2-7.3       c5-1.1,8.9-5,9.9-10l0,0C780.6,439.1,779.7,435.2,777.4,432.2z" />
				</defs>
				<use
   xlink:href="#XMLID_00000022529475121824963310000013760732293271509170_"
   style="overflow:visible;fill:#FFB6A6;"
   id="use51" />
				<clipPath
   id="XMLID_00000043435119466028924770000012369923031335176097_">
					<use
   xlink:href="#XMLID_00000022529475121824963310000013760732293271509170_"
   style="overflow:visible;"
   id="use52" />
				</clipPath>
			</g>
			<path
   d="M718.7,337.5c-8.2,7.3,6.1,11.8,0.4,21.1c-11.2,15-0.5,32.9,14.9,39.3c7.1,2.2,14.8,2.3,22.1,3.4     c-1.2-4.3-0.6-8.6,2.2-12c2.5-5.3,3.5-12,1.7-17.6c-2.8-7.2-11.9-8.4-17-13.4c-3.4-3.7-3.5-9.4-5.7-14     C734.4,337.6,725.2,333.4,718.7,337.5z"
   id="path52" />
			<path
   d="M714.3,343.7c-3,2.3-7,2.2-10.5,1.9c0.3-2.9,0.2-5.9,1-8.6c2.7-7.3,16.2-9.5,18.5-0.7C716.2,339.6,719,338.7,714.3,343.7     z"
   id="path53" />
		</g>
	</g>
</g><g
   id="g1247"
   transform="matrix(3.1627601,0,0,3.1627601,-1469.3476,-96.418171)">
		
		<g
   id="g1246">
			<line
   class="st32"
   x1="588.09998"
   y1="96.800003"
   x2="769.20001"
   y2="96.800003"
   id="line1240"
   style="fill:none;stroke:#003266;stroke-width:1.4218;stroke-miterlimit:10" />
			<polyline
   class="st32"
   points="582.5,96.8 611.1,76.7 683.9,76.7 713.6,96.8    "
   id="polyline1240"
   style="fill:none;stroke:#003266;stroke-width:1.4218;stroke-miterlimit:10" />
			<path
   class="st30"
   d="m 719.2,96.8 c 0,3.1 -2.5,5.6 -5.6,5.6 -3.1,0 -5.6,-2.5 -5.6,-5.6 0,-3.1 2.5,-5.6 5.6,-5.6 3.1,0 5.6,2.5 5.6,5.6 z"
   id="path1241"
   style="fill:#ccff66;stroke:#1a2e35;stroke-width:1.4218;stroke-miterlimit:10;fill-opacity:1" />
			<circle
   class="st30"
   cx="611.09998"
   cy="76.699997"
   r="5.5999999"
   id="circle1241"
   style="fill:#ccff66;stroke:#1a2e35;stroke-width:1.4218;stroke-miterlimit:10;fill-opacity:1" />
			<path
   class="st30"
   d="m 689.5,76.7 c 0,3.1 -2.5,5.6 -5.6,5.6 -3.1,0 -5.6,-2.5 -5.6,-5.6 0,-3.1 2.5,-5.6 5.6,-5.6 3.1,-0.1 5.6,2.5 5.6,5.6 z"
   id="path1242"
   style="fill:#ccff66;stroke:#1a2e35;stroke-width:1.4218;stroke-miterlimit:10;fill-opacity:1" />
			<polyline
   class="st32"
   points="582.5,96.8 611.1,117 745.3,117 769.2,96.8    "
   id="polyline1242"
   style="fill:none;stroke:#003266;stroke-width:1.4218;stroke-miterlimit:10" />
			<path
   class="st30"
   d="m 660.4,117 c 0,3.1 -2.5,5.6 -5.6,5.6 -3.1,0 -5.6,-2.5 -5.6,-5.6 0,-3.1 2.5,-5.6 5.6,-5.6 3.1,-0.1 5.6,2.5 5.6,5.6 z"
   id="path1243"
   style="fill:#0079c1;stroke:#1a2e35;stroke-width:1.4218;stroke-miterlimit:10" />
			<path
   class="st30"
   d="m 616.7,117 c 0,3.1 -2.5,5.6 -5.6,5.6 -3.1,0 -5.6,-2.5 -5.6,-5.6 0,-3.1 2.5,-5.6 5.6,-5.6 3.1,-0.1 5.6,2.5 5.6,5.6 z"
   id="path1244"
   style="fill:#0079c1;stroke:#1a2e35;stroke-width:1.4218;stroke-miterlimit:10" />
			<path
   class="st30"
   d="m 750.9,117 c 0,3.1 -2.5,5.6 -5.6,5.6 -3.1,0 -5.6,-2.5 -5.6,-5.6 0,-3.1 2.5,-5.6 5.6,-5.6 3.1,-0.1 5.6,2.5 5.6,5.6 z"
   id="path1245"
   style="fill:#0079c1;stroke:#1a2e35;stroke-width:1.4218;stroke-miterlimit:10" />
			<circle
   class="st30"
   cx="769.20001"
   cy="96.800003"
   r="5.5999999"
   id="circle1245"
   style="fill:#0079c1;stroke:#1a2e35;stroke-width:1.4218;stroke-miterlimit:10" />
			<path
   class="st30"
   d="m 588.1,96.8 c 0,3.1 -2.5,5.6 -5.6,5.6 -3.1,0 -5.6,-2.5 -5.6,-5.6 0,-3.1 2.5,-5.6 5.6,-5.6 3.1,0 5.6,2.5 5.6,5.6 z"
   id="path1246"
   style="fill:#0079c1;stroke:#1a2e35;stroke-width:1.4218;stroke-miterlimit:10" />
		</g>
	</g>

</svg>
