<?xml version="1.0" encoding="UTF-8" standalone="no"?>
<!-- Generator: Adobe Illustrator 16.0.0, SVG Export Plug-In . SVG Version: 6.00 Build 0)  -->

<svg
   version="1.1"
   id="Layer_1"
   x="0px"
   y="0px"
   width="199.99989"
   height="198.58499"
   viewBox="0 0 199.99989 198.58499"
   enable-background="new 0 0 1072 1076"
   xml:space="preserve"
   sodipodi:docname="lf-logo.svg"
   inkscape:version="1.3.2 (091e20ef0f, 2023-11-25, custom)"
   xmlns:inkscape="http://www.inkscape.org/namespaces/inkscape"
   xmlns:sodipodi="http://sodipodi.sourceforge.net/DTD/sodipodi-0.dtd"
   xmlns:xlink="http://www.w3.org/1999/xlink"
   xmlns="http://www.w3.org/2000/svg"
   xmlns:svg="http://www.w3.org/2000/svg"><defs
   id="defs67" /><sodipodi:namedview
   id="namedview67"
   pagecolor="#ffffff"
   bordercolor="#666666"
   borderopacity="1.0"
   inkscape:showpageshadow="2"
   inkscape:pageopacity="0.0"
   inkscape:pagecheckerboard="0"
   inkscape:deskcolor="#d1d1d1"
   inkscape:zoom="0.85966543"
   inkscape:cx="118.06919"
   inkscape:cy="104.11027"
   inkscape:window-width="1920"
   inkscape:window-height="1131"
   inkscape:window-x="0"
   inkscape:window-y="0"
   inkscape:window-maximized="1"
   inkscape:current-layer="Layer_1" />
<linearGradient
   id="SVGID_1_"
   gradientUnits="userSpaceOnUse"
   x1="-1388.0854"
   y1="183.35159"
   x2="-1796.0042"
   y2="2174.9526">
	<stop
   offset="0"
   style="stop-color:#003164"
   id="stop1" />
	<stop
   offset="1"
   style="stop-color:#1B4774"
   id="stop2" />
</linearGradient>



<linearGradient
   id="SVGID_2_"
   gradientUnits="userSpaceOnUse"
   x1="-5999.4395"
   y1="-1525.8882"
   x2="-5743.4395"
   y2="-1525.8882">
	<stop
   offset="0"
   style="stop-color:#5E90BC"
   id="stop3" />
	<stop
   offset="1"
   style="stop-color:#003164"
   id="stop4" />
</linearGradient>

<linearGradient
   id="SVGID_3_"
   gradientUnits="userSpaceOnUse"
   x1="-5704"
   y1="-1768"
   x2="-5448"
   y2="-1768">
	<stop
   offset="0"
   style="stop-color:#003164"
   id="stop5" />
	<stop
   offset="1"
   style="stop-color:#000000"
   id="stop6" />
</linearGradient>

<linearGradient
   id="SVGID_4_"
   gradientUnits="userSpaceOnUse"
   x1="-2734.5933"
   y1="-1911.9717"
   x2="-2478.5933"
   y2="-1911.9717">
	<stop
   offset="0"
   style="stop-color:#003164"
   id="stop7" />
	<stop
   offset="1"
   style="stop-color:#000000"
   id="stop8" />
</linearGradient>

<linearGradient
   id="SVGID_5_"
   gradientUnits="userSpaceOnUse"
   x1="-5224"
   y1="-1484"
   x2="-4968"
   y2="-1484">
	<stop
   offset="0"
   style="stop-color:#003164"
   id="stop9" />
	<stop
   offset="1"
   style="stop-color:#1B4774"
   id="stop10" />
</linearGradient>

<linearGradient
   id="SVGID_6_"
   gradientUnits="userSpaceOnUse"
   x1="-5252"
   y1="-1056"
   x2="-4996"
   y2="-1056">
	<stop
   offset="0"
   style="stop-color:#003164"
   id="stop11" />
	<stop
   offset="1"
   style="stop-color:#1B4774"
   id="stop12" />
</linearGradient>






<linearGradient
   id="SVGID_7_"
   gradientUnits="userSpaceOnUse"
   x1="-6927.1768"
   y1="-1651.8633"
   x2="-6671.1768"
   y2="-1651.8633">
	<stop
   offset="0"
   style="stop-color:#5E90BC"
   id="stop17" />
	<stop
   offset="1"
   style="stop-color:#1B4774"
   id="stop18" />
</linearGradient>





<linearGradient
   id="SVGID_8_"
   gradientUnits="userSpaceOnUse"
   x1="-1744.5347"
   y1="-1543.9883"
   x2="-1488.5347"
   y2="-1543.9883">
	<stop
   offset="0"
   style="stop-color:#5E90BC"
   id="stop22" />
	<stop
   offset="1"
   style="stop-color:#0E3C6D"
   id="stop23" />
</linearGradient>

<linearGradient
   id="SVGID_9_"
   gradientUnits="userSpaceOnUse"
   x1="-2175.3809"
   y1="-1612.6738"
   x2="-1919.3809"
   y2="-1612.6738">
	<stop
   offset="0"
   style="stop-color:#5E90BC"
   id="stop24" />
	<stop
   offset="1"
   style="stop-color:#0E3C6D"
   id="stop25" />
</linearGradient>




<linearGradient
   id="SVGID_15_"
   gradientUnits="userSpaceOnUse"
   x1="-1070.9868"
   y1="-76.698196"
   x2="-1722.0508"
   y2="70.316597">
	<stop
   offset="0"
   style="stop-color:#FFFFFF"
   id="stop44" />
	<stop
   offset="1"
   style="stop-color:#0E3C6D"
   id="stop45" />
</linearGradient>

<g
   id="g67"
   transform="matrix(0.22239705,0,0,0.22239705,-19.204876,-20.357115)">
	<linearGradient
   id="SVGID_16_"
   gradientUnits="userSpaceOnUse"
   x1="576.25391"
   y1="341.4668"
   x2="359.95761"
   y2="1397.5005">
		<stop
   offset="0"
   style="stop-color:#003164"
   id="stop46" />
		<stop
   offset="1"
   style="stop-color:#1B4774"
   id="stop47" />
	</linearGradient>
	<ellipse
   fill="url(#SVGID_16_)"
   cx="536"
   cy="538"
   rx="449.646"
   ry="446.465"
   id="ellipse47"
   style="fill:url(#SVGID_16_)" />
	<g
   opacity="0.7"
   id="g54">
		<defs
   id="defs47">
			<ellipse
   id="SVGID_17_"
   opacity="0.7"
   cx="536"
   cy="538"
   rx="449.646"
   ry="446.465" />
		</defs>
		<clipPath
   id="SVGID_18_">
			<use
   xlink:href="#SVGID_17_"
   overflow="visible"
   id="use47" />
		</clipPath>
		<g
   opacity="0.8"
   clip-path="url(#SVGID_18_)"
   id="g53">
			<linearGradient
   id="SVGID_19_"
   gradientUnits="userSpaceOnUse"
   x1="-100.6045"
   y1="477.13229"
   x2="872.72742"
   y2="486.67459">
				<stop
   offset="0"
   style="stop-color:#5E90BC"
   id="stop48" />
				<stop
   offset="1"
   style="stop-color:#003164"
   id="stop49" />
			</linearGradient>
			<rect
   x="-43.389"
   y="415.39899"
   fill="url(#SVGID_19_)"
   width="1084.986"
   height="135.226"
   id="rect49"
   style="fill:url(#SVGID_19_)" />
			<linearGradient
   id="SVGID_20_"
   gradientUnits="userSpaceOnUse"
   x1="-153.8506"
   y1="666.15228"
   x2="1013.5122"
   y2="662.97137">
				<stop
   offset="0"
   style="stop-color:#5E90BC"
   id="stop50" />
				<stop
   offset="1"
   style="stop-color:#003164"
   id="stop51" />
			</linearGradient>
			<rect
   x="-43.389"
   y="601.53302"
   fill="url(#SVGID_20_)"
   width="1084.986"
   height="125.68"
   id="rect51"
   style="fill:url(#SVGID_20_)" />
			<linearGradient
   id="SVGID_21_"
   gradientUnits="userSpaceOnUse"
   x1="-73.214798"
   y1="809.25781"
   x2="982.81921"
   y2="958.75641">
				<stop
   offset="0"
   style="stop-color:#5E90BC"
   id="stop52" />
				<stop
   offset="1"
   style="stop-color:#003164"
   id="stop53" />
			</linearGradient>
			<rect
   x="-43.389"
   y="781.30298"
   fill="url(#SVGID_21_)"
   width="1084.986"
   height="217.952"
   id="rect53"
   style="fill:url(#SVGID_21_)" />
		</g>
	</g>
	<path
   fill="#f7941e"
   d="M 868.992,328.023 H 576.539 c -6.75,-16.921 -23.273,-28.884 -42.604,-28.884 -25.328,0 -45.863,20.534 -45.863,45.863 0,19.398 12.051,35.973 29.07,42.676 v 163.354 h 35.701 V 386.784 c 10.188,-4.618 18.383,-12.846 22.957,-23.058 h 293.191 v -35.703 z m -335.056,37.169 c -11.15,0 -20.189,-9.039 -20.189,-20.189 0,-11.151 9.039,-20.19 20.189,-20.19 11.152,0 20.191,9.039 20.191,20.19 0,11.15 -9.039,20.189 -20.191,20.189 z"
   id="path54" />
	<g
   id="g66">
		<path
   fill="#ffffff"
   d="m 888.436,434.072 c 0,11.128 -9.021,20.149 -20.15,20.149 -11.127,0 -20.148,-9.021 -20.148,-20.149 0,-11.128 9.021,-20.148 20.148,-20.148 11.128,0 20.15,9.02 20.15,20.148 z m -20.151,-46.661 c -25.77,0 -46.66,20.892 -46.66,46.661 0,25.771 20.891,46.661 46.66,46.661 25.771,0 46.662,-20.891 46.662,-46.661 0,-25.769 -20.89,-46.661 -46.662,-46.661 z"
   id="path55" />
		<path
   fill="#ffffff"
   d="m 554.381,709.799 c 0,11.128 -9.021,20.149 -20.148,20.149 -11.129,0 -20.148,-9.021 -20.148,-20.149 0,-11.129 9.02,-20.148 20.148,-20.148 11.126,-10e-4 20.148,9.019 20.148,20.148 z m -20.149,-46.66 c -25.771,0 -46.662,20.891 -46.662,46.66 0,25.771 20.891,46.661 46.662,46.661 25.77,0 46.66,-20.891 46.66,-46.661 10e-4,-25.77 -20.89,-46.66 -46.66,-46.66 z"
   id="path56" />
		<rect
   x="615.89099"
   y="416.75101"
   fill="#ffffff"
   width="218.105"
   height="38.178001"
   id="rect56" />
		<rect
   x="615.89099"
   y="514.31598"
   fill="#ffffff"
   width="253.10201"
   height="36.763"
   id="rect57" />
		<rect
   x="350.76999"
   y="688.76703"
   fill="#ffffff"
   width="148.11301"
   height="36.764"
   id="rect58" />
		<rect
   x="249.07401"
   y="327.767"
   fill="#ffffff"
   width="138.127"
   height="36.764"
   id="rect59" />
		<rect
   x="250.17799"
   y="781.755"
   fill="#ffffff"
   width="402.57001"
   height="36.764999"
   id="rect60" />
		<rect
   x="615.89099"
   y="605.60602"
   fill="#ffffff"
   width="253.10201"
   height="36.764"
   id="rect61" />
		<rect
   x="615.89301"
   y="416.75101"
   fill="#ffffff"
   width="37.117001"
   height="120.896"
   id="rect62" />
		<rect
   x="615.89301"
   y="616.37799"
   fill="#ffffff"
   width="37.117001"
   height="202.02299"
   id="rect63" />
		<rect
   x="249.248"
   y="327.67401"
   fill="#ffffff"
   width="37.117001"
   height="490.72699"
   id="rect64" />
		<rect
   x="831.79102"
   y="522.888"
   fill="#ffffff"
   width="37.115002"
   height="119.659"
   id="rect65" />
		<rect
   x="349.82199"
   y="328.82901"
   fill="#ffffff"
   width="37.117001"
   height="397.22699"
   id="rect66" />
	</g>
	<linearGradient
   id="SVGID_22_"
   gradientUnits="userSpaceOnUse"
   x1="744.39258"
   y1="203.5762"
   x2="399.17059"
   y2="281.52979">
		<stop
   offset="0"
   style="stop-color:#FFFFFF"
   id="stop66" />
		<stop
   offset="1"
   style="stop-color:#0E3C6D"
   id="stop67" />
	</linearGradient>
	<path
   fill="url(#SVGID_22_)"
   d="m 393.801,305.021 c 8.475,-61.27 69.07,-108.781 142.576,-108.781 73.506,0 134.102,47.511 142.578,108.781 h 38.953 C 711.051,223.9 633.168,159.936 538.094,159.936 c -95.076,0 -172.959,63.964 -179.816,145.085 z"
   id="path67"
   style="fill:url(#SVGID_22_)" />
</g>
</svg>
