<?xml version="1.0" encoding="UTF-8" standalone="no"?>
<!-- Generator: Adobe Illustrator 28.0.0, SVG Export Plug-In . SVG Version: 6.00 Build 0)  -->

<svg
   version="1.1"
   id="Layer_1"
   x="0px"
   y="0px"
   viewBox="0 0 1088 688"
   style="enable-background:new 0 0 1088 688;"
   xml:space="preserve"
   sodipodi:docname="timing.svg"
   inkscape:version="1.3.2 (091e20ef0f, 2023-11-25, custom)"
   xmlns:inkscape="http://www.inkscape.org/namespaces/inkscape"
   xmlns:sodipodi="http://sodipodi.sourceforge.net/DTD/sodipodi-0.dtd"
   xmlns="http://www.w3.org/2000/svg"
   xmlns:svg="http://www.w3.org/2000/svg"><defs
   id="defs57" /><sodipodi:namedview
   id="namedview57"
   pagecolor="#ffffff"
   bordercolor="#666666"
   borderopacity="1.0"
   inkscape:showpageshadow="2"
   inkscape:pageopacity="0.0"
   inkscape:pagecheckerboard="0"
   inkscape:deskcolor="#d1d1d1"
   inkscape:zoom="1.1443015"
   inkscape:cx="543.99999"
   inkscape:cy="343.8779"
   inkscape:window-width="1920"
   inkscape:window-height="1131"
   inkscape:window-x="0"
   inkscape:window-y="0"
   inkscape:window-maximized="1"
   inkscape:current-layer="g57" />
<style
   type="text/css"
   id="style1">
	.st0{fill:#003266;}
	.st1{fill:#004076;}
	.st2{fill:#1694D3;}
	.st3{fill:#007AAA;}
	.st4{fill:none;stroke:#0079C1;stroke-width:2;stroke-miterlimit:10;}
	.st5{fill:#0079C1;}
	.st6{fill:#FFFFFF;}
	.st7{clip-path:url(#XMLID_00000010989063620154960360000010219067758635626112_);fill:#FFB6A6;}
	.st8{fill:#1A1A35;}
	.st9{clip-path:url(#XMLID_00000039103450244241909970000004198304187639827105_);fill:#FF8E00;}
	.st10{clip-path:url(#XMLID_00000039103450244241909970000004198304187639827105_);fill:#1A1A35;}
	.st11{fill:#FF8E00;}
	.st12{clip-path:url(#XMLID_00000066503666273804387200000003220252512603152574_);fill:#FF8E00;}
	.st13{fill:#FFB6A6;}
	.st14{clip-path:url(#XMLID_00000122684689045919605220000014664554566995750026_);fill:#FFB6A6;}
	.st15{fill:#31B4E8;}
	.st16{fill:#0B6BA9;}
	.st17{fill:none;stroke:#0B6BA9;stroke-width:2.7469;stroke-miterlimit:10;}
	.st18{clip-path:url(#SVGID_00000044883416256651232970000008796514586673042847_);}
	.st19{fill:none;stroke:#004076;stroke-width:1.0718;stroke-miterlimit:10;}
	.st20{fill:none;stroke:#003266;stroke-width:1.4218;stroke-linecap:round;stroke-linejoin:round;stroke-miterlimit:10;}
	.st21{fill:none;stroke:#FFFFFF;stroke-width:5.6871;stroke-miterlimit:10;}
	.st22{fill:#E2E6ED;}
	.st23{fill:#F7941E;}
	.st24{fill:#005C75;}
	.st25{fill:none;stroke:#0079C1;stroke-width:0.8746;stroke-dasharray:1.3119,0.4373;}
	.st26{fill:none;stroke:#0079C1;stroke-width:0.9621;stroke-linecap:square;}
	.st27{fill:#FFFFFF;stroke:#1A2E35;stroke-width:1.4218;stroke-miterlimit:10;}
	.st28{fill:#0079C1;stroke:#1A2E35;stroke-width:1.4218;stroke-miterlimit:10;}
	.st29{opacity:0.3;}
	.st30{fill:none;stroke:#003266;stroke-width:1.4218;stroke-miterlimit:10;}
</style>
<g
   id="g57">
	
	<path
   class="st1"
   d="M827.8,524.3c44.3-53.1,56.3-126,29-177.9c-4.9-9.3-11.1-18.4-11.7-29.3c-1-17.6,12.3-36.4,10.8-53.9   c-1.6-18-17.9-35.3-36.2-34.4c-40.3,1.9-72,0.8-97-2.3c-83.5-10.4-104.4-88.5-220-86.8c-135.8,2-124.9,61-180.3,101   c-27.3,19.7-72.5,35.6-115.1,69c-111.3,87.5-79.7,181.9-45,214.6H827.8z"
   id="path10"
   style="fill:#d0dce7;fill-opacity:1" /><path
   class="st29"
   d="m 795.4109,246.9109 h -135.2 c -8.6,0 -15.5,-6.9 -15.5,-15.5 v -135.2 c 0,-8.6 6.9,-15.5 15.5,-15.5 h 135.2 c 8.6,0 15.5,6.9 15.5,15.5 v 135.2 c 0,8.5 -6.9,15.5 -15.5,15.5 z"
   id="path918"
   style="fill:#ffffff;stroke:#1a2e35;stroke-width:1.4218;stroke-miterlimit:10;opacity:1" />
	<g
   id="g11">
		<path
   class="st16"
   d="M176.2,468.6l-9.2,11.8l21.2,16.6l10.1-12.9c6.8,2.9,14.3,4.6,21.7,5l2.1,17.3l26.8-3.3l-2.2-18.2    c6.5-2.5,12.7-6.1,18-10.6l14.8,11.6l16.6-21.2l-14.8-11.6c3.1-6.3,5.1-13.1,6-20.1l18.2-2.2l-3.3-26.8l-17.3,2.1    c-2.2-7.1-5.6-13.9-10.1-19.8l10.1-12.9l-21.2-16.6l-9.2,11.8c-7-3.9-14.9-6.5-23-7.5l-1.7-13.8l-26.8,3.3l1.6,12.8    c-8.1,2.5-15.9,6.7-22.4,12.1l-9.7-7.6l-16.6,21.2l9.7,7.6c-3.7,7.6-5.9,16.2-6.4,24.7l-12.8,1.6l3.3,26.8l13.8-1.7    C166.4,455.7,170.7,462.7,176.2,468.6z M194.5,402.3c31.2-37.4,86.9,6.2,58,45.5C221.3,485.2,165.6,441.5,194.5,402.3z"
   id="path11"
   style="fill:#31b4e8;fill-opacity:1" />
	</g>
	<g
   id="g12">
		<path
   class="st0"
   d="M939.9,523.5c18.4,0,25.1,24.5,9.3,34.1c-0.2,0.1-0.4,0.3-0.6,0.4c-18.4,10.7-85.5,28-131.8,28.6    c-214,2.6-19.6,28-161.8,33.6c-142.2,5.6-385.5-5.1-303.4-37.6c57.3-22.6-95.1-9.6-185.4-22.5c-22.2-3.2-19.9-36.5,2.6-36.5H939.9    z"
   id="path12"
   style="fill:#7b9dba;fill-opacity:1" />
	</g>
	<path
   class="st17"
   d="M232.3,321.1l-1.4,17l30.6,2.5l1.5-18.5c8.3-1.5,16.5-4.5,23.7-8.8l12.8,15.1l23.4-19.8l-13.5-15.9   c4.6-6.5,8.2-13.8,10.5-21.4l21.3,1.7l2.5-30.6l-21.3-1.7c-1-7.9-3.4-15.7-6.9-22.8l15.9-13.5L311.6,181l-15.1,12.8   c-6.5-5.4-14-9.7-22-12.5l1.5-18.5l-30.6-2.5l-1.4,17c-9.1,0.7-18.2,3.2-26.5,7.3l-10.2-12L184,192.3l9.5,11.2   c-6.2,7.4-10.9,16.3-13.7,25.5l-14-1.1l-2.5,30.6l14,1.1c1.2,9.6,4.5,19.1,9.4,27.4l-11.2,9.5l19.8,23.4l12-10.2   C214.8,315,223.4,319,232.3,321.1z M207.6,246.7c6.3-55.8,87.5-49.1,84.6,6.9C285.9,309.4,204.6,302.7,207.6,246.7z"
   id="path13"
   style="stroke:#31b4e8;stroke-opacity:1" />
	<path
   class="st16"
   d="M334.9,406l1.1,8.7l15.7-2.1l-1.2-9.5c4-1.7,7.8-4.1,11-7l8.1,6.2l9.6-12.5l-8.5-6.6c1.6-3.8,2.6-7.8,3-11.9   l10.9-1.4l-2.1-15.7l-10.9,1.4c-1.4-3.9-3.4-7.5-5.9-10.7l6.6-8.5l-12.6-9.6l-6.2,8.1c-3.9-2-8.1-3.4-12.4-3.9l-1.2-9.5l-15.7,2.1   l1.1,8.7c-4.5,1.3-8.8,3.6-12.6,6.5l-6.4-4.9l-9.6,12.5l6,4.6c-2.3,4.4-3.7,9.4-4.1,14.4l-7.2,0.9l2.1,15.7l7.2-0.9   c1.7,4.7,4.3,9.1,7.7,12.8l-4.6,6l12.6,9.6l4.9-6.4C325.4,404.8,330.1,405.9,334.9,406z M309.4,371.8c-3.6-35.3,47.5-42,53.2-7   C366.1,400.1,315.1,406.8,309.4,371.8z"
   id="path14"
   style="fill:#31b4e8;fill-opacity:1" />
	<g
   id="g31">
		<g
   id="g18">
			<path
   class="st2"
   d="M587.6,429.7c0.5,2.5,0.8,5,0.8,7.6c0.2,7.2-1.3,14.5-3.9,21.3c-3.5,9.2-8.9,17.7-14.9,25.7h-66.7v-0.2     h-66.7c-6-8-11.4-16.5-14.9-25.7c-1.6-4.2-2.8-8.6-3.4-13c-0.2-1.6-0.4-3.1-0.5-4.7c-0.2-3.4,0-6.7,0.6-10.1c0,0,0,0,0-0.1     c0.1-0.4,0.1-0.7,0.2-1.1c2.7-13.6,12.1-25.2,22.6-34.8c10.5-9.6,22.5-17.8,32.6-27.8c9.3-9.1,17.1-20.2,19.2-32.6     c0.4-2.2,0.4-4.4,0-6.6c-2.1-12.4-10-23.5-19.2-32.6c-10.1-10-22.1-18.1-32.6-27.8c-10.5-9.6-19.8-21.2-22.6-34.8     c-1.9-9.6-0.4-19.7,3.1-28.9c3.5-9.2,8.9-17.7,14.9-25.7h66.7v0.2h66.7c6,8,11.4,16.5,14.9,25.7c3.5,9.2,5,19.3,3.1,28.9     c-2.7,13.6-12.1,25.2-22.6,34.8c-10.5,9.6-22.5,17.8-32.6,27.8c-9.3,9.1-17.1,20.2-19.2,32.6c-0.4,2.2-0.4,4.4,0,6.6     c2.1,12.4,10,23.5,19.2,32.6c10.1,10,22.1,18.1,32.6,27.8c6.8,6.2,13.2,13.3,17.5,21.2C584.9,420.4,586.6,424.9,587.6,429.7z"
   id="path15" />
			<path
   class="st11"
   d="M587.6,429.7c-1-4.8-2.7-9.3-5.1-13.6c-9.4-1.9-19.4-1.8-28.9-0.3c-11.9,1.8-23.3,5.4-34.7,9.4l0,0     c-6-0.5-7.3-4-7.6-6.1c-0.1-27-0.2-58-0.3-60c-0.8-11-0.7-20.5,1.5-31.9c2-10.3,7.9-20,14.6-27.9c7.6-8.9,18.1-15.4,26.9-23     c-11.3,0.5-22.4-3.3-33-7.6c-10.5-4.3-21.1-9-32.3-10.5c-15.5-2-30.6,2.3-42.5,12.4c14.4,12.8,29.6,21.6,39.4,37.3     c5.7,9.1,8.4,19.3,9.1,30c0.4,6.6,0.4,47.4,0.3,80.1c0,0-0.7,15.4-12,19.1c-8.8,2.3-17.7,3.9-26.7,4c-13.5,0.3-27.4-3-38.4-10.6     c-0.6,3.3-0.7,6.7-0.6,10.1c0.1,1.6,0.2,3.1,0.5,4.7c0.6,4.4,1.8,8.8,3.4,13c3.5,9.2,8.9,17.7,14.9,25.7h66.7v0.2h66.7     c6-8,11.4-16.5,14.9-25.7c2.6-6.8,4.1-14.1,3.9-21.3C588.4,434.7,588.1,432.2,587.6,429.7z"
   id="path16"
   style="fill:#00b0da;fill-opacity:1" />
			<g
   id="g17">
				<path
   class="st2"
   d="M499.9,180.8v0.2h3h65.2c6.5,8.9,10.8,16.5,13.6,23.8c3.6,9.5,4.6,18.9,3,27.3c-2.2,11-9.3,21.9-21.7,33.2      c-4.6,4.2-9.6,8.2-14.4,12.1c-6.2,5-12.5,10.1-18.3,15.7c-11.3,11.2-18.1,22.7-20.1,34.2c-0.4,2.5-0.4,5.1,0,7.6      c2,11.5,8.8,23,20.1,34.2c5.7,5.7,12.1,10.8,18.3,15.7c4.8,3.9,9.8,7.9,14.4,12.1c7.6,7,13.2,13.7,16.9,20.5      c2.3,4.2,3.9,8.5,4.8,12.7c0.5,2.3,0.7,4.7,0.8,7.1c0.2,6.5-1.1,13.3-3.7,20.2c-2.8,7.3-7.1,14.9-13.6,23.8h-62.3v-0.2h-3h-65.2      c-6.5-8.9-10.8-16.5-13.6-23.8c-1.6-4.1-2.7-8.3-3.3-12.4c-0.2-1.5-0.4-3-0.4-4.4c-0.2-3.1,0-6.3,0.5-9.3l0.1-0.3v-0.1      c0-0.3,0.1-0.5,0.2-0.8c2.2-11,9.3-21.9,21.7-33.2c4.6-4.2,9.6-8.2,14.4-12.1c6.2-5,12.5-10.1,18.3-15.7      c11.3-11.2,18.1-22.7,20.1-34.2c0.4-2.5,0.4-5.1,0-7.6c-2-11.5-8.8-23-20.1-34.2c-5.7-5.7-12.1-10.8-18.3-15.7      c-4.8-3.9-9.8-7.9-14.4-12.1c-12.4-11.3-19.4-22.2-21.7-33.2c-1.7-8.3-0.7-17.8,3-27.3c2.8-7.3,7.1-14.9,13.6-23.8H499.9       M502.9,177.9h-66.7c-6,8-11.4,16.5-14.9,25.7c-3.5,9.2-5,19.3-3.1,28.9c2.7,13.6,12.1,25.2,22.6,34.8      c10.5,9.6,22.5,17.8,32.6,27.8c9.3,9.1,17.1,20.2,19.2,32.6c0.4,2.2,0.4,4.4,0,6.6c-2.1,12.4-10,23.5-19.2,32.6      c-10.1,10-22.1,18.1-32.6,27.8c-10.5,9.6-19.8,21.2-22.6,34.8c-0.1,0.4-0.1,0.7-0.2,1.1c0,0,0,0,0,0.1      c-0.6,3.3-0.7,6.7-0.6,10.1c0.1,1.6,0.2,3.1,0.5,4.7c0.6,4.4,1.8,8.8,3.4,13c3.5,9.2,8.9,17.7,14.9,25.7h66.7v0.2h66.7      c6-8,11.4-16.5,14.9-25.7c2.6-6.8,4.1-14.1,3.9-21.3c-0.1-2.5-0.3-5.1-0.8-7.6c-1-4.8-2.7-9.3-5.1-13.6      c-4.3-7.9-10.7-15-17.5-21.2c-10.5-9.6-22.5-17.8-32.6-27.8c-9.3-9.1-17.1-20.2-19.2-32.6c-0.4-2.2-0.4-4.4,0-6.6      c2.1-12.4,10-23.5,19.2-32.6c10.1-10,22.1-18.1,32.6-27.8c10.5-9.6,19.8-21.2,22.6-34.8c1.9-9.6,0.4-19.7-3.1-28.9      c-3.5-9.2-8.9-17.7-14.9-25.7h-66.7V177.9L502.9,177.9z"
   id="path17" />
			</g>
		</g>
		<g
   id="g27">
			<g
   id="g22">
				<g
   id="g21">
					<g
   id="g19">
						<path
   class="st5"
   d="M621.7,174.5c-5.8,33.6-5.9,67.9-5.2,101.9c0.3,11.3,0.9,22.6,2.1,34c0.3,3.3-2.1,6.3-5.4,6.7        c-3.3,0.3-6.3-2.1-6.7-5.4c0.9-11.7,1.8-23.5,2.1-35.2c0.7-28.3,0.4-56.7-2.7-84.9c-0.7-5.7-1.4-11.3-2.5-17        c-1-5.1,2.4-10,7.5-11C617.1,162.1,623,168.1,621.7,174.5L621.7,174.5z"
   id="path18" />
					</g>
					<g
   id="g20">
						<path
   class="st5"
   d="M603.2,487.7c4-22.6,5-45.5,5.4-68.4c0.3-22.8,0-45.6-2.3-68.4c-0.3-3.3,2.1-6.3,5.4-6.7        c3.3-0.3,6.3,2.1,6.7,5.4c-0.9,11.8-1.8,23.6-2.1,35.4c-0.7,28.5-0.4,57.1,2.7,85.5c0.7,5.7,1.4,11.4,2.5,17.1        c1,5.1-2.4,10-7.5,11C607.9,500,601.9,494,603.2,487.7L603.2,487.7z"
   id="path19" />
					</g>
					<path
   class="st5"
   d="M621.9,310.3c0-5.2-4.2-9.5-9.5-9.5c-5.2,0-9.5,4.2-9.5,9.5c0,5.2,4.2,9.5,9.5,9.5       C617.7,319.8,621.9,315.5,621.9,310.3z"
   id="path20" />
					<path
   class="st5"
   d="M621.9,351c0-5.2-4.2-9.5-9.5-9.5c-5.2,0-9.5,4.2-9.5,9.5c0,5.2,4.2,9.5,9.5,9.5       C617.7,360.4,621.9,356.2,621.9,351z"
   id="path21" />
					
						<ellipse
   transform="matrix(0.973 -0.2308 0.2308 0.973 -59.8723 150.2656)"
   class="st5"
   cx="612.5"
   cy="331.1"
   rx="13.5"
   ry="13.5"
   id="ellipse21" />
				</g>
			</g>
			<g
   id="g26">
				<g
   id="g25">
					<g
   id="g23">
						<path
   class="st5"
   d="M402.5,174.5c-5.8,33.6-5.9,67.9-5.2,101.9c0.3,11.3,0.9,22.6,2.1,34c0.3,3.3-2.1,6.3-5.4,6.7        c-3.3,0.3-6.3-2.1-6.7-5.4c0.9-11.7,1.8-23.5,2.1-35.2c0.7-28.3,0.4-56.7-2.7-84.9c-0.7-5.7-1.4-11.3-2.5-17        c-1-5.1,2.4-10,7.5-11C397.9,162.1,403.8,168.1,402.5,174.5L402.5,174.5z"
   id="path22" />
					</g>
					<g
   id="g24">
						<path
   class="st5"
   d="M384.1,487.7c4-22.6,5-45.5,5.4-68.4c0.3-22.8,0-45.6-2.3-68.4c-0.3-3.3,2.1-6.3,5.4-6.7        c3.3-0.3,6.3,2.1,6.7,5.4c-0.9,11.8-1.8,23.6-2.1,35.4c-0.7,28.5-0.4,57.1,2.7,85.5c0.7,5.7,1.4,11.4,2.5,17.1        c1,5.1-2.4,10-7.5,11C388.7,500,382.7,494,384.1,487.7L384.1,487.7z"
   id="path23" />
					</g>
					<path
   class="st5"
   d="M402.8,310.3c0-5.2-4.2-9.5-9.5-9.5c-5.2,0-9.5,4.2-9.5,9.5c0,5.2,4.2,9.5,9.5,9.5       C398.5,319.8,402.8,315.5,402.8,310.3z"
   id="path24" />
					<path
   class="st5"
   d="M402.8,351c0-5.2-4.2-9.5-9.5-9.5c-5.2,0-9.5,4.2-9.5,9.5c0,5.2,4.2,9.5,9.5,9.5       C398.5,360.4,402.8,356.2,402.8,351z"
   id="path25" />
					
						<ellipse
   transform="matrix(0.7071 -0.7071 0.7071 0.7071 -118.9296 375.0662)"
   class="st5"
   cx="393.3"
   cy="331.1"
   rx="13.5"
   ry="13.5"
   id="ellipse25" />
				</g>
			</g>
		</g>
		<g
   id="g30">
			<g
   id="g28">
				
					<rect
   x="417.3"
   y="474.2"
   transform="matrix(-1 -1.224647e-16 1.224647e-16 -1 1005.7469 968.7081)"
   class="st16"
   width="171.2"
   height="20.3"
   id="rect27" />
				<path
   class="st5"
   d="M372.3,522.5c0-15.5,12.5-28,28-28h205.2c7.7,0,14.7,3.1,19.8,8.2c5.1,5.1,8.2,12,8.2,19.8H372.3z"
   id="path27" />
			</g>
			<g
   id="g29">
				<rect
   x="414.7"
   y="167.7"
   class="st16"
   width="176.3"
   height="20.3"
   id="rect28" />
				<path
   class="st5"
   d="M633.5,139.7c0,15.5-12.5,28-28,28H400.3c-7.7,0-14.7-3.1-19.8-8.2c-5.1-5.1-8.2-12-8.2-19.8H633.5z"
   id="path28" />
			</g>
		</g>
		<path
   class="st6"
   d="M459,249.2c5.2,10.3,12.7,19.1,20.6,27.6c1.4,1.5,6.1,7.5,1.6,8.5c-2.6,0.5-8.1-4.7-10.1-6.2    c-6.8-4.9-13.2-10.3-19.2-16.1c-7.7-7.5-14.9-15.8-19.3-25.7c-4.4-9.8-5.8-21.3-2.1-31.4c1.7-4.7,4.8-9.2,9.3-11.5    c4.5-2.2,10.7-1.5,13.7,2.5c2,2.6,2.4,6.1,2,9.4"
   id="path30" />
		<path
   class="st6"
   d="M452.1,399.4c-7.8,7.4-15,15.7-19.5,25.5c-4.5,9.8-6,21.3-2.4,31.4c1.7,4.7,4.7,9.3,9.2,11.5    c4.5,2.3,10.7,1.6,13.7-2.4c2-2.6,2.4-6.1,2.1-9.3c-0.3-3.2-1.4-6.4-2-9.6c-2.2-11.3,0.6-23.1,5.8-33.4    c5.3-10.2,12.9-19,20.8-27.4c1.4-1.5,6.2-7.5,1.7-8.4"
   id="path31" />
	</g>
	<g
   id="g56">
		<rect
   x="680.1"
   y="350.3"
   width="6.5"
   height="204.1"
   id="rect31" />
		<path
   d="M790.1,350H647.5c-2.9,0-5.2-2.5-5.2-5.6l0,0c0-3.1,2.3-5.6,5.2-5.6h142.6c2.9,0,5.2,2.5,5.2,5.6l0,0    C795.3,347.5,793,350,790.1,350z"
   id="path32" />
		<g
   id="g53">
			<path
   d="M875.9,253.2c1.7-15.9-7.4-30.7-22.4-35c-0.8-8.9-5.3-17.4-12.1-22.9c-13.4-10.8-36.7-15-44.2,1.2     c-11.2,7.8-19.1,23-14.2,35.6c-10.3,12.8-3.8,33.5,14,41.8c1.1,13.1,9.4,25.4,21.7,29.8c2.9,1.1,7.5,2.5,8.1,3     c-0.8-0.6,11.2,24,39.1,9.4C894.5,301,896.9,266.8,875.9,253.2z"
   id="path33"
   style="fill:#463934;fill-opacity:1" />
			<path
   d="M834.7,539.5h-11.1c-3.3,0-6,2.7-6,6l0,0c0,3.3,2.7,6,6,6h11.1c3.3,0,6-2.7,6-6l0,0C840.6,542.1,838,539.5,834.7,539.5z"
   id="path34" />
			<path
   d="M833.5,547.7l-10.5,0c1.4-45.8,2.6-115.5,0.3-119.4c0,0,0.2,0.3,0.7,0.5l8.5-2.2c1.4,0.7,2.2,1.1,2.5,20.6     c0.1,10,0.1,23.9-0.2,41.2C834.4,517.8,833.6,547.4,833.5,547.7z"
   id="path35" />
			<path
   d="M871.3,545.4h-84.3c-3.9,0-7,3.4-7,7.6l0,0c0,0.7,0.6,1.3,1.2,1.3h96c0.7,0,1.2-0.6,1.2-1.3l0,0     C878.3,548.8,875.2,545.4,871.3,545.4z"
   id="path36" />
			<path
   class="st13"
   d="M721.8,326.7l55.7-15.5c0,0,11.7-15.8,26.9-36.9c4.9,4.9,7.7,12.4,12.7,17.2l-36.9,40.8     c-1.3,1.5-3.2,2.3-5.2,2.3l-51.2,0.2l-17.5,1.4v-11.2L721.8,326.7z"
   id="path37"
   style="fill:#ba988a;fill-opacity:1" />
			<path
   class="st11"
   d="M802.1,314.8c0,0,19.1-19.6,24.1-28.1c4.9-8.5-3.4-3-11.8-5.2c-3.2-0.8-2.4-19.6-8.4-13.5     c-9.9,10-22.4,27.5-22.4,27.5L802.1,314.8z"
   id="path38"
   style="fill:#aaffff;fill-opacity:1" />
			<path
   class="st11"
   d="M829.3,259.4c0,0,17.2-3.4,25,3.2c7.8,6.5-1.7,64.7-1.7,74.4c0,9.6,5.4,36.9,5.4,36.9s-52,9.1-60.3-5.4     c0,0-2.4-55.2-2-62.1c0.4-6.9,8.1-35.3,10.2-38.4C808,264.9,829.3,259.4,829.3,259.4z"
   id="path39"
   style="fill:#aaffff;fill-opacity:1" />
			<path
   class="st13"
   d="M829.4,232.8c0,0,0.1,0.5,0.3,1.4c0.8,4.2,3.8,18.1,5.8,21.9c2.4,4.6-8.4,19.3-18.8,17.5     c-3.1-0.5,2.6-13.5,2.3-14.9c-0.5-2.6-1.2-6.2-2-9.9c-0.4-2.1-0.8-4.2-1.2-6.2c-1.1-5.6-2-10.2-2-10.2L829.4,232.8z"
   id="path40"
   style="fill:#ba988a;fill-opacity:1" />
			<g
   id="g46">
				<path
   class="st13"
   d="M801.3,522.1c-0.5-1.2-2.9-3.5-6.4-5.7c-3.6-2.3-17.4-21.5-17.4-21.5l-10.7,11.8c0,0,15.8,18.9,15.9,20.6      c0.1,1.5-0.5,17.4-2.2,20.8c2,1.4,2.9,4,2.6,6.4c3,0,6.6-0.3,9.9-0.5c2-0.1,4.5-16,5.3-18.4      C799.6,532.1,802.4,524.4,801.3,522.1z"
   id="path41"
   style="fill:#ba988a;fill-opacity:1" />
				<path
   d="M794.7,516.2c0,0-10.6,29.9-14.8,31.3c-1.1,0.4-1.8,1.4-2.8,3.7c-0.3,0.7,0,3.1,0,3.1h17.5c0,0,2.8-13.2,3.9-18.9      c0,0,5.9-14.1,5.2-15.4C803.1,518.6,794.7,516.2,794.7,516.2z"
   id="path42" />
				<path
   class="st13"
   d="M672.3,515.7c0,0-12.9,18.2-11.8,23.9c0.6,3.1,3.3,7.1,1.8,10c-1.6,2.9-3.3,3.6-3.3,3.6l-40.2,0.6      c-2.2,0-0.7-1.4,1-2.7c2.9-2.1,5.2-3.5,14.5-8c0.6-0.3,2.8-1.7,3.6-2.2c2-1.2,4-3.1,5.8-5.1c2.9-3.2,15.6-29.4,15.6-29.4      L672.3,515.7z"
   id="path43"
   style="fill:#ba988a;fill-opacity:1" />
				<path
   d="M637.8,541c10.6,2.7,18.5,0.9,22.9-0.9c1.1,3.2,2.6,7.2,1.8,9.6c-1,2.8-2.4,3.5-3.6,3.5c-9.7,0.3-35.6,0.6-43,0.7      c-1,0-1.6-1.2-0.9-2C616.8,549.7,637,541.5,637.8,541z"
   id="path44" />
				<path
   class="st5"
   d="M718.9,403.7c0,0,16,18.2,20,21.1c4.1,2.9,43.2,74.9,43.2,74.9l-13.9,10.2c0,0-34.9-43.6-51.3-66.9      c-13.9-19.7-8.8-18.5-16.9-30.4c-4.5-6.6-3.5-15.5,2.4-20.9c0.7-0.7,1.5-1.4,2.4-2.1c12.1-10.1,94.9-21.4,94.9-21.4l52.9,5.2      c0,0-43.3,30.3-44.9,31.1c-1.6,0.8-59.7,9.3-60.9,9.3S718.9,403.7,718.9,403.7z"
   id="path45" />
				<path
   class="st5"
   d="M858,373.8c0,0,9.1,27.2-4.5,40c-13.6,12.7-94.5,11.3-121.2,11.3c0,0-10.9,29.9-12.1,34.7      c-1.2,4.8-54.1,67.4-54.1,67.4l-14.5-9.3c0,0,56.9-110.6,61.4-115.4c4.4-4.8,67.8-24.2,83.5-28.7      C812.2,369.4,858,373.8,858,373.8z"
   id="path46" />
			</g>
			<path
   class="st13"
   d="M752.7,324.8l48.3-10.7c0,0,17.5-22.5,34.3-41.8c4.9,4.9,7.7,12.4,12.7,17.2L811,330.4     c-1.3,1.5-4.4,4.1-6.4,4.1h-50.2l-17.3-0.3V323L752.7,324.8z"
   id="path47"
   style="fill:#ba988a;fill-opacity:1" />
			<path
   class="st11"
   d="M832.9,313c0,0,19.1-19.6,24.1-28.1c4.9-8.5,1.3-22.8-7.2-25c-8.5-2.2-35.5,33.8-35.5,33.8L832.9,313z"
   id="path48"
   style="fill:#aaffff;fill-opacity:1" />
			<path
   class="st2"
   d="M780.6,427.9l4.9-20.3c3.4-14.2,16-24.5,30.6-25.1l61.8-2.5l1.9-6.3l-63.9,2.6c-17.4,0.7-32.3,13-36.4,29.9     l-5.2,21.6C776.1,427.8,778.2,427.8,780.6,427.9z"
   id="path49" />
			<path
   class="st2"
   d="M863.5,417c0,0-84.9,1.5-93.7,0c-8.8-1.5-12.7,9.6-10,15.4c2.6,5.8,9.9,8.1,20.6,8.6     c10.7,0.5,99.7,3,102.2,0.7c2-1.9,29-94.2,38.8-127.9c2-6.7-1.9-13.8-8.6-15.8l0,0c-6.7-2-13.7,1.8-15.8,8.5L863.5,417z"
   id="path50" />
			<path
   class="st13"
   d="M815.5,199.6c0,0,7.6-0.9,12.4,5.3c4.8,6.2,9.9,25.4-1.9,35.8c-11.9,10.4-23.6-1.4-25.4-13.9     C798.9,214.4,798.2,199.2,815.5,199.6z"
   id="path51"
   style="fill:#ba988a;fill-opacity:1" />
			<path
   d="M814.6,197.6c0,0,10.2,18.3,17.5,19.1c7.3,0.8,8.3,10.5,8.3,10.5s-2.6-22.3-9.8-26.7     C823.3,196.2,814.6,197.6,814.6,197.6z"
   id="path52"
   style="fill:#463934;fill-opacity:1" />
			<path
   class="st13"
   d="M830.2,221.3c-0.6,3.2,0.6,6.2,2.7,6.6c2.1,0.4,4.2-1.9,4.8-5.1c0.6-3.2-0.6-6.2-2.7-6.6     C833,215.7,830.8,218,830.2,221.3z"
   id="path53"
   style="fill:#ba988a;fill-opacity:1" />
		</g>
		<g
   id="g55">
			<path
   class="st2"
   d="M637.2,272.9h77.9c2.1,0,3.9,1.2,4.7,3.2l24,58.5h42.9c1.2,0,2.2,1,2.2,2.2l0,0c0,1.2-1,2.2-2.2,2.2H664.5     c-3.4,0-6.4-2-7.8-5l-24.1-53.8C631.1,276.7,633.5,272.9,637.2,272.9z"
   id="path54" />
			<path
   class="st15"
   d="M679.1,307c0.5,2.6,2.8,4.4,5.1,3.9s3.7-3,3.2-5.6c-0.5-2.6-2.8-4.4-5.1-3.9     C680,301.8,678.6,304.3,679.1,307z"
   id="path55" />
		</g>
		<polyline
   points="683.3,520.9 683.3,527.8 761.6,527.8 761.6,520.9   "
   id="polyline55" />
		<rect
   x="756.2"
   y="350.3"
   width="6.5"
   height="204.1"
   id="rect55" />
	</g><g
   id="g937"
   transform="translate(495.5109,-223.1891)">
							<rect
   x="166.8"
   y="320"
   class="st5"
   width="110.5"
   height="8.6000004"
   id="rect918"
   style="fill:#0079c1;fill-opacity:1" />
							<rect
   x="166.8"
   y="334.10001"
   class="st5"
   width="63.900002"
   height="8.6000004"
   id="rect919"
   style="fill:#0079c1" />
							<rect
   x="166.8"
   y="348.20001"
   class="st5"
   width="37.200001"
   height="8.6000004"
   id="rect920"
   style="fill:#fdb515;fill-opacity:1" />
							<rect
   x="166.8"
   y="362.29999"
   class="st5"
   width="61.200001"
   height="8.6000004"
   id="rect921"
   style="fill:#0079c1" />
							<rect
   x="166.8"
   y="376.39999"
   class="st5"
   width="95.400002"
   height="8.6000004"
   id="rect922"
   style="fill:#0079c1" />
							<rect
   x="166.8"
   y="390.5"
   class="st5"
   width="63.900002"
   height="8.6000004"
   id="rect923"
   style="fill:#0079c1" />
							<rect
   x="166.8"
   y="404.60001"
   class="st5"
   width="44.599998"
   height="8.6000004"
   id="rect924"
   style="fill:#0079c1" />
							<rect
   x="166.8"
   y="418.70001"
   class="st5"
   width="72.099998"
   height="8.6000004"
   id="rect925"
   style="fill:#0079c1" />
							<rect
   x="166.8"
   y="432.79999"
   class="st5"
   width="87.5"
   height="8.6000004"
   id="rect926"
   style="fill:#0079c1" />
							<rect
   x="166.8"
   y="446.79999"
   class="st5"
   width="110.5"
   height="8.6000004"
   id="rect927"
   style="fill:#0079c1;fill-opacity:1" />
							
							
							
							<rect
   x="166.8"
   y="362.29999"
   class="st31"
   width="61.200001"
   height="8.6000004"
   id="rect931"
   style="opacity:0.3" /><rect
   x="167.48911"
   y="334.18909"
   class="st31"
   width="61.200001"
   height="8.6000004"
   id="rect931-3"
   style="opacity:0.3" />
							<rect
   x="166.8"
   y="376.39999"
   class="st31"
   width="95.400002"
   height="8.6000004"
   id="rect932"
   style="opacity:0.3;fill:#859438;fill-opacity:1" />
							<rect
   x="166.8"
   y="390.5"
   class="st31"
   width="63.900002"
   height="8.6000004"
   id="rect933"
   style="opacity:0.3" />
							<rect
   x="166.8"
   y="404.60001"
   class="st31"
   width="44.599998"
   height="8.6000004"
   id="rect934"
   style="opacity:0.3" />
							<rect
   x="166.8"
   y="418.70001"
   class="st31"
   width="72.099998"
   height="8.6000004"
   id="rect935"
   style="opacity:0.3" />
							<rect
   x="166.8"
   y="432.79999"
   class="st31"
   width="87.5"
   height="8.6000004"
   id="rect936"
   style="opacity:0.3;fill:#859438;fill-opacity:1" />
							
						</g>
</g>
</svg>
