<?xml version="1.0" encoding="UTF-8" standalone="no"?>
<!-- Created with Inkscape (http://www.inkscape.org/) -->

<svg
   width="165.76575mm"
   height="62.676033mm"
   viewBox="0 0 165.76575 62.676033"
   version="1.1"
   id="svg1"
   xml:space="preserve"
   inkscape:version="1.3.2 (091e20ef0f, 2023-11-25, custom)"
   sodipodi:docname="universities-fordark.svg"
   xmlns:inkscape="http://www.inkscape.org/namespaces/inkscape"
   xmlns:sodipodi="http://sodipodi.sourceforge.net/DTD/sodipodi-0.dtd"
   xmlns="http://www.w3.org/2000/svg"
   xmlns:svg="http://www.w3.org/2000/svg"><sodipodi:namedview
     id="namedview1"
     pagecolor="#ffffff"
     bordercolor="#666666"
     borderopacity="1.0"
     inkscape:showpageshadow="2"
     inkscape:pageopacity="0.0"
     inkscape:pagecheckerboard="true"
     inkscape:deskcolor="#d1d1d1"
     inkscape:document-units="mm"
     inkscape:zoom="1.1653671"
     inkscape:cx="447.06941"
     inkscape:cy="164.3259"
     inkscape:window-width="1920"
     inkscape:window-height="1131"
     inkscape:window-x="0"
     inkscape:window-y="0"
     inkscape:window-maximized="1"
     inkscape:current-layer="layer1"
     showguides="false" /><defs
     id="defs1"><clipPath
       id="clipPath18"
       clipPathUnits="userSpaceOnUse"><path
         id="path16"
         d="M 0,246.03 H 239 V 0 H 0 Z" /></clipPath><style
       id="style1">.cls-1{fill:#f4792a;}</style></defs><g
     inkscape:label="Layer 1"
     inkscape:groupmode="layer"
     id="layer1"
     transform="translate(-31.413321,-127.23369)"><g
       clip-path="url(#clipPath18)"
       id="g14"
       transform="matrix(0.10515532,0,0,-0.10515532,163.52736,182.55153)"><g
         transform="translate(48.2677,173.492)"
         id="g20"><path
           id="path22"
           style="fill:#ffffff;fill-opacity:1;fill-rule:nonzero;stroke:none"
           d="m 0,0 c 0,-40.005 32.559,-72.551 72.551,-72.551 39.992,0 72.549,32.546 72.549,72.551 0,39.991 -32.557,72.538 -72.549,72.538 C 32.559,72.538 0,39.991 0,0" /></g><g
         transform="translate(48.8564,173.492)"
         id="g24"><path
           id="path26"
           style="fill:#ffffff;fill-opacity:1;fill-rule:nonzero;stroke:none"
           d="m 0,0 c 0,39.686 32.275,71.974 71.961,71.974 39.686,0 71.986,-32.288 71.986,-71.974 0,-39.686 -32.3,-71.985 -71.986,-71.985 C 32.275,-71.985 0,-39.686 0,0" /></g><g
         transform="translate(150.0117,196.5573)"
         id="g28"><path
           id="path30"
           style="fill:#0c2069;fill-opacity:1;fill-rule:nonzero;stroke:none"
           d="M 0,0 V -2.423 H 4.517 C 4.494,-2.953 4.47,-11.08 4.47,-11.598 H -0.165 V -23.677 H 4.47 v -9.292 c -0.541,0.024 -30.442,0.058 -30.983,0.058 v 2.118 h -2.399 v -2.176 h -21.171 c -4.142,0 -8.116,1.834 -10.399,4.787 -1.952,2.269 -3.104,5.222 -3.104,7.892 0,3.552 0.916,6.246 2.846,8.47 l 0.424,0.469 h -2.354 v 8.928 h 17.785 v 2.376 c 0.541,0 9.551,0.012 10.092,0 v -2.376 h 24.537 v 2.4 C -9.739,-0.023 -0.542,0 0,0 m -10.821,0.553 v -2.4 h -23.408 v 2.365 h -11.244 v -2.365 h -17.761 v -10.092 c 0,0 1.129,0 1.717,0.011 -1.789,-2.245 -2.635,-4.893 -2.635,-8.362 0,-2.811 1.199,-5.892 3.248,-8.269 2.351,-3.07 6.515,-4.976 10.821,-4.976 h 21.759 v 2.176 h 1.224 v -2.116 L 5.058,-33.546 5.034,-23.101 H 0.423 v 10.939 H 5.058 L 5.082,-1.847 H 0.564 v 2.424 z" /></g><g
         transform="translate(141.5657,184.6656)"
         id="g32"><path
           id="path34"
           style="fill:#0c2069;fill-opacity:1;fill-rule:nonzero;stroke:none"
           d="M 0,0 H -2.306 V -2.246 H 0 v -1.553 h -2.306 v -7.057 c -0.021,-2.389 -2.61,-4.329 -5.856,-4.329 -3.223,0 -5.81,1.94 -5.81,4.329 0,2.388 2.587,4.339 5.81,4.339 1.176,0 2.257,-0.246 3.152,-0.693 V 3.858 h 2.704 V 1.564 H 0 Z m -16.537,-0.835 c 0,2.412 2.305,4.399 5.388,4.399 3.057,0 5.385,-1.987 5.385,-4.399 0,-2.435 -2.328,-4.4 -5.385,-4.4 -3.083,0 -5.388,1.965 -5.388,4.4 m -8.328,-1.411 h -2.211 v -6.647 h -2.729 V 3.858 h 2.729 v -4.552 h 2.211 z m -2.046,-12.433 -9.292,0.011 c -1.93,0 -3.106,1.106 -3.106,2.929 v 3.623 h 2.964 v -4.999 h 9.434 z m -14.467,11.798 c 0,1.2 0.705,2.269 1.858,2.964 h -1.905 v 1.563 h 9.973 V 0.083 h -1.882 c 1.153,-0.695 1.858,-1.764 1.858,-2.964 0,-2.105 -2.139,-3.788 -4.964,-3.788 -2.798,0 -4.938,1.683 -4.938,3.788 m 2.304,6.739 h 5.292 V 2.293 h -5.292 z M 11.15,1.777 V 7.704 H 6.588 V 9.998 H -0.069 V 7.704 h -27.972 v 2.294 h -6.656 V 7.704 H -52.271 V 1.777 h 5.27 C -50.649,0.176 -53,-3.317 -53,-8.422 c 0,-6.834 6.446,-10.738 11.598,-10.738 h 19.384 v 2.07 h 5.481 v -2.07 H 11.15 v 5.915 H 6.588 V 1.777 Z M -8.162,-8.021 c -1.623,0 -3.104,-1.072 -3.104,-2.835 0,-1.754 1.481,-2.823 3.104,-2.823 1.669,0 3.152,1.069 3.152,2.823 0,1.763 -1.483,2.835 -3.152,2.835 m -25.854,5.14 c 0,1.553 -1.081,2.74 -2.424,2.74 -1.315,0 -2.398,-1.187 -2.398,-2.74 0,-1.588 1.083,-2.741 2.398,-2.741 1.343,0 2.424,1.153 2.424,2.741 m 25.501,2.046 c 0,1.824 -1.2,3.046 -2.634,3.046 -1.46,0 -2.634,-1.222 -2.634,-3.046 0,-1.882 1.174,-3.059 2.634,-3.059 1.434,0 2.634,1.177 2.634,3.059" /></g><g
         transform="translate(166.1258,213.3654)"
         id="g36"><path
           id="path38"
           style="fill:#0c2069;fill-opacity:1;fill-rule:nonzero;stroke:none"
           d="M 0,0 C 0.73,0.683 0.989,1.471 0.307,2.27 0.165,2.423 0,2.576 -0.117,2.647 L -2.729,0.2 -2.445,-0.106 C -1.764,-0.835 -0.777,-0.716 0,0 m 0.8,-72.974 c -1.082,-0.163 -1.835,-1.152 -1.694,-2.234 0.164,-1.083 1.153,-1.823 2.235,-1.671 1.083,0.154 1.836,1.165 1.671,2.224 -0.141,1.082 -1.153,1.824 -2.212,1.681 M -82.995,5.528 c -0.564,0.484 -1.458,1.283 -2.047,1.836 l -0.07,-0.048 c 0.448,-0.682 1.106,-1.753 1.459,-2.363 l 1.27,-2.189 1.317,1.094 z m 56.344,-99.473 c -0.966,0.471 -2.119,0.082 -2.59,-0.881 -0.469,-0.942 -0.07,-2.119 0.894,-2.566 0.941,-0.471 2.095,-0.081 2.587,0.859 0.448,0.954 0.048,2.118 -0.891,2.588 m -76.999,73.95 -0.023,-0.047 c 0.729,-0.376 1.835,-0.942 2.47,-1.283 l 2.211,-1.223 0.541,1.612 -2.515,0.434 c -0.707,0.117 -1.883,0.353 -2.684,0.507 m 14.35,-55.213 c 0.165,1.082 -0.586,2.071 -1.669,2.234 -1.058,0.143 -2.071,-0.599 -2.212,-1.681 -0.163,-1.059 0.564,-2.07 1.647,-2.224 1.082,-0.152 2.069,0.588 2.234,1.671 m 25.783,-18.737 c -0.963,-0.47 -1.364,-1.634 -0.893,-2.588 0.471,-0.94 1.646,-1.33 2.588,-0.859 0.963,0.447 1.364,1.624 0.894,2.566 -0.471,0.963 -1.623,1.352 -2.589,0.881 m 79.091,37.086 c -2.235,-2.54 -5.435,-3.399 -5.435,-3.399 0,0 0.47,3.259 2.729,5.799 2.259,2.552 5.294,3.094 5.294,3.094 0,0 -0.329,-2.953 -2.588,-5.494 m -3.647,-9.469 c -2.658,-2.116 -5.952,-2.411 -5.952,-2.411 0,0 1.037,3.129 3.671,5.235 2.681,2.118 5.763,2.118 5.763,2.118 0,0 -0.847,-2.847 -3.482,-4.942 M 4.986,-76.337 c -0.868,-0.141 -1.692,-0.035 -2.305,0.189 0.402,-0.519 0.73,-1.284 0.849,-2.152 0.258,-1.812 -0.306,-4.06 -1.365,-4.212 -1.059,-0.142 -2.236,1.858 -2.518,3.669 -0.118,0.87 -0.024,1.671 0.212,2.294 -0.54,-0.399 -1.295,-0.705 -2.165,-0.836 -1.786,-0.258 -4.046,0.295 -4.209,1.378 -0.143,1.059 1.857,2.234 3.669,2.493 0.848,0.118 1.67,0.035 2.306,-0.2 -0.401,0.53 -0.707,1.283 -0.848,2.152 -0.258,1.812 0.305,4.058 1.364,4.199 1.083,0.165 2.259,-1.847 2.495,-3.658 0.142,-0.857 0.046,-1.669 -0.189,-2.293 0.541,0.399 1.272,0.705 2.142,0.835 1.81,0.269 4.068,-0.295 4.233,-1.364 0.141,-1.059 -1.858,-2.236 -3.671,-2.494 M -6.209,-89.345 c -3.107,-0.706 -6.023,0.375 -6.023,0.375 0,0 2.163,2.258 5.292,2.977 3.106,0.705 5.74,-0.565 5.74,-0.565 0,0 -1.883,-2.059 -5.009,-2.787 m -8.752,-5.329 c -3.057,0 -5.505,1.646 -5.505,1.646 0,0 2.448,1.611 5.528,1.611 3.058,-0.011 5.222,-1.764 5.222,-1.764 0,0 -2.186,-1.506 -5.245,-1.493 m -5.834,-4.317 c -0.471,-0.929 -2.729,-0.777 -4.329,0.012 -0.776,0.376 -1.364,0.894 -1.742,1.434 0,-0.659 -0.139,-1.434 -0.54,-2.199 -0.753,-1.599 -2.471,-3.116 -3.411,-2.645 -0.965,0.457 -0.776,2.727 0,4.339 0.376,0.753 0.894,1.364 1.434,1.729 -0.659,-0.035 -1.434,0.154 -2.187,0.529 -1.623,0.777 -3.128,2.483 -2.657,3.435 0.47,0.94 2.727,0.764 4.328,-0.011 0.777,-0.388 1.387,-0.907 1.764,-1.437 -0.024,0.658 0.117,1.437 0.518,2.201 0.777,1.599 2.493,3.105 3.411,2.634 0.964,-0.46 0.798,-2.717 0,-4.316 -0.377,-0.776 -0.894,-1.388 -1.436,-1.765 0.659,0.036 1.436,-0.117 2.213,-0.506 1.599,-0.799 3.104,-2.482 2.634,-3.434 m -24.49,-2.272 c -1.365,0 -2.446,1.083 -2.446,2.425 0,1.341 1.081,2.422 2.446,2.422 1.318,0 2.399,-1.081 2.399,-2.422 0,-1.342 -1.081,-2.425 -2.399,-2.425 m -13.315,5.471 c -0.753,-0.375 -1.528,-0.564 -2.211,-0.529 0.564,-0.365 1.083,-0.976 1.436,-1.729 0.799,-1.612 0.987,-3.882 0.022,-4.339 -0.94,-0.471 -2.634,1.046 -3.434,2.645 -0.377,0.765 -0.541,1.54 -0.517,2.199 -0.377,-0.54 -0.966,-1.058 -1.742,-1.434 -1.599,-0.789 -3.881,-0.941 -4.35,-0.012 -0.447,0.952 1.057,2.635 2.657,3.434 0.753,0.389 1.552,0.542 2.188,0.506 -0.519,0.377 -1.035,0.989 -1.411,1.765 -0.801,1.599 -0.965,3.856 -0.024,4.316 0.94,0.471 2.658,-1.035 3.435,-2.634 0.376,-0.764 0.564,-1.543 0.517,-2.201 0.376,0.53 0.988,1.049 1.741,1.437 1.599,0.775 3.882,0.951 4.353,0.011 0.47,-0.952 -1.037,-2.658 -2.66,-3.435 m -16.609,1.118 c -3.057,-0.013 -5.245,1.493 -5.245,1.493 0,0 2.188,1.753 5.222,1.764 3.059,0 5.552,-1.611 5.552,-1.611 0,0 -2.493,-1.646 -5.529,-1.646 m -8.774,5.329 c -3.128,0.728 -4.987,2.787 -4.987,2.787 0,0 2.612,1.27 5.74,0.565 3.129,-0.719 5.27,-2.977 5.27,-2.977 0,0 -2.918,-1.081 -6.023,-0.375 m -5.857,10.502 c -0.235,-1.811 -1.436,-3.811 -2.493,-3.669 -1.083,0.152 -1.623,2.4 -1.365,4.212 0.141,0.868 0.423,1.633 0.847,2.152 -0.634,-0.224 -1.435,-0.33 -2.305,-0.189 -1.813,0.258 -3.836,1.435 -3.671,2.494 0.166,1.069 2.424,1.633 4.235,1.364 0.847,-0.13 1.6,-0.436 2.14,-0.835 -0.235,0.624 -0.328,1.436 -0.187,2.293 0.259,1.811 1.411,3.823 2.47,3.658 1.082,-0.141 1.646,-2.387 1.387,-4.199 -0.14,-0.869 -0.423,-1.622 -0.846,-2.152 0.634,0.235 1.434,0.318 2.305,0.2 1.811,-0.259 3.811,-1.434 3.646,-2.493 -0.141,-1.083 -2.399,-1.636 -4.211,-1.378 -0.87,0.131 -1.623,0.437 -2.139,0.836 0.234,-0.623 0.328,-1.424 0.187,-2.294 m -15.762,17.457 c 0,0 3.105,0 5.764,-2.118 2.658,-2.106 3.693,-5.235 3.693,-5.235 0,0 -3.293,0.295 -5.951,2.411 -2.66,2.095 -3.506,4.942 -3.506,4.942 m -2.729,10.021 c 0,0 3.058,-0.542 5.294,-3.094 2.258,-2.54 2.729,-5.799 2.729,-5.799 0,0 -3.2,0.859 -5.435,3.399 -2.258,2.541 -2.588,5.494 -2.588,5.494 m 7.951,1.317 c 0,-1.859 -1.152,-3.389 -1.152,-3.389 0,0 -1.177,1.506 -1.224,3.365 -0.023,1.871 1.154,3.389 1.154,3.389 0,0 1.176,-1.507 1.222,-3.365 m 3.576,-5.128 c -0.658,-2.799 -2.658,-4.741 -2.658,-4.741 0,0 -0.777,2.352 -0.141,5.14 0.635,2.824 2.658,4.364 2.658,4.364 0,0 0.776,-1.965 0.141,-4.763 m -12.068,22.606 4.847,-0.635 0.328,2.412 -4.892,0.634 0.447,2.306 11.997,-1.565 -0.447,-2.306 -4.964,0.649 -0.305,-2.412 4.939,-0.658 -0.164,-2.306 -11.998,1.564 z m 15.292,-30.5 c -0.165,-2.87 -1.788,-5.127 -1.788,-5.127 0,0 -1.176,2.175 -1.035,5.056 0.164,2.883 1.881,4.742 1.881,4.742 0,0 1.083,-1.789 0.942,-4.671 m -11.833,45.156 12.303,-1.658 -0.8,-2.117 -2.752,0.377 -0.682,-2.024 2.422,-1.388 -0.635,-2.224 -10.75,6.47 z m 3.904,8.704 8.798,-1.412 0.024,0.048 -7.316,3.905 1.083,1.753 10.514,-6.012 -1.152,-1.81 -8.516,1.339 -0.093,0.037 7.15,-3.916 -0.94,-1.836 -10.516,6.021 z m 6.659,9.846 2.799,-1.258 c 0.705,-0.341 1.553,-0.742 2.328,-1.177 l 0.024,0.035 c -0.565,0.671 -1.106,1.387 -1.623,2.107 l -1.718,2.387 1.623,1.764 3.835,-6.74 3.576,-3.046 -1.506,-1.777 -3.528,2.999 -7.34,2.788 z m 9.455,9.362 9.692,-7.787 -1.81,-1.411 -2.236,1.823 -1.623,-1.388 1.389,-2.494 -1.671,-1.576 -5.88,11.034 z m 7.859,5.411 3.905,-3.235 c 0.752,-0.646 1.998,-1.693 2.823,-2.448 l 0.023,0.013 c -0.66,1.083 -1.812,2.812 -2.894,4.752 l -1.293,2.352 1.835,0.93 5.88,-10.598 -1.905,-0.953 -3.882,3.153 c -0.823,0.694 -2.047,1.753 -2.798,2.564 l -0.024,-0.011 c 0.61,-1.047 1.599,-2.612 2.753,-4.729 l 1.339,-2.411 -1.74,-1.071 -5.858,10.598 z m 13.996,6.128 c 0.847,0.283 1.553,0.33 1.954,0.259 l 0.234,-2.035 c -0.375,0.058 -0.823,0.023 -1.388,-0.165 -1.506,-0.482 -2.376,-1.892 -1.434,-4.881 0.894,-2.73 2.282,-3.376 3.315,-3.034 0.191,0.058 0.33,0.117 0.425,0.176 l -0.894,2.751 -1.013,-0.304 -0.587,1.798 3.082,0.99 1.929,-6.094 c -0.425,-0.354 -1.388,-0.894 -2.211,-1.165 -1.319,-0.423 -2.423,-0.363 -3.436,0.143 -1.269,0.646 -2.328,2.174 -2.94,4.151 -1.293,4.163 0.542,6.645 2.964,7.41 m 14.891,2.506 0.283,-7.81 c 0.047,-1.742 0.611,-2.283 1.2,-2.259 0.681,0.035 1.152,0.529 1.082,2.341 l -0.282,7.798 h 2.352 l 0.234,-7.316 c 0.119,-3.07 -0.987,-4.775 -3.293,-4.858 -2.493,-0.082 -3.528,1.612 -3.646,4.611 l -0.235,7.316 z m 10.492,-0.318 2.07,-0.247 1.741,-8.657 0.024,-0.012 1.153,8.175 1.999,-0.424 -2.023,-11.938 -2.071,0.435 -1.621,8.634 h -0.047 l -1.225,-8.129 -2.047,0.248 z m 12.211,-2.587 2.211,-0.753 -3.882,-11.446 -2.212,0.753 z m 6.162,-2.306 2.352,-1.059 -3.01,-9.057 0.046,-0.024 5.554,7.752 2.211,-1.294 -7.928,-9.386 -2.307,1.176 z M -4.68,9.598 -5.952,7.939 l -2.281,1.729 -1.669,-2.2 2.187,-1.645 -1.152,-1.542 -2.189,1.647 -1.953,-2.587 2.471,-1.859 -1.247,-1.682 -4.329,3.283 7.269,9.655 z M 1.46,3.788 C 2.306,2.847 2.894,1.87 2.918,0.8 2.94,-0.164 2.517,-0.87 1.74,-1.575 0.8,-2.447 -0.471,-2.775 -1.692,-2.269 l -0.047,-0.024 c 0.327,-0.824 0.047,-1.625 -0.73,-2.671 -0.825,-1.082 -1.74,-2.48 -1.929,-2.939 l -1.601,1.952 c 0.142,0.329 0.87,1.34 1.695,2.376 0.963,1.164 1.01,1.728 0.47,2.293 l -0.212,0.26 -3.504,-3.259 -1.671,1.647 8.868,8.221 C 0.189,5.082 0.848,4.446 1.46,3.788 m 2.632,-8.752 c 1.601,1.046 3.649,0.812 4.988,-1.282 0.423,-0.658 0.659,-1.411 0.683,-1.823 L 7.856,-8.834 c 0,0.39 -0.115,0.931 -0.469,1.507 -0.542,0.823 -1.316,0.905 -1.835,0.576 -0.612,-0.4 -0.729,-0.906 -0.705,-2.411 0.07,-1.847 -0.636,-3 -1.695,-3.695 -1.833,-1.175 -3.929,-0.588 -5.197,1.389 -0.517,0.812 -0.825,1.729 -0.849,2.187 l 1.883,0.8 c 0.046,-0.54 0.306,-1.34 0.658,-1.892 0.612,-0.93 1.388,-1.084 2.047,-0.66 0.73,0.471 0.801,1.153 0.801,2.364 -0.048,1.918 0.682,3.106 1.597,3.705 m -81.253,-83.288 c 0,0 -2.046,1.471 -3.174,4.187 -1.131,2.693 -0.378,5.175 -0.378,5.175 0,0 1.788,-1.165 2.918,-3.871 1.152,-2.714 0.634,-5.491 0.634,-5.491 m 8.045,-3.798 c 0,0 -2.329,0.975 -4.021,3.351 -1.742,2.375 -1.553,4.964 -1.553,4.964 0,0 2,-0.731 3.716,-3.105 1.695,-2.389 1.858,-5.21 1.858,-5.21 m 52.085,3.351 c -1.694,-2.376 -4.025,-3.351 -4.025,-3.351 0,0 0.144,2.821 1.86,5.21 1.695,2.374 3.716,3.105 3.716,3.105 0,0 0.167,-2.589 -1.551,-4.964 m 7.198,4.634 c -1.129,-2.716 -3.199,-4.187 -3.199,-4.187 0,0 -0.495,2.777 0.635,5.491 1.129,2.706 2.916,3.871 2.916,3.871 0,0 0.777,-2.482 -0.352,-5.175 m -35.664,-3.647 c -26.418,0.106 -47.732,21.597 -47.636,48.026 C -93.04,-13.28 -71.538,8.058 -45.12,7.963 -18.702,7.87 2.634,-13.656 2.541,-40.074 2.424,-66.493 -19.077,-87.829 -45.497,-87.712 m 58.812,73.421 -10.891,-5.081 -0.988,2.104 10.916,5.082 z m 3.599,-10.445 -2.07,-0.635 -0.54,2.059 -9.505,-2.905 -0.681,2.221 9.502,2.906 -0.681,2.011 2.071,0.625 z M 5.177,-68.197 c 0,0 -1.623,2.257 -1.766,5.127 -0.141,2.882 0.941,4.671 0.941,4.671 0,0 1.719,-1.859 1.859,-4.742 0.165,-2.881 -1.034,-5.056 -1.034,-5.056 m 4.092,8.28 c 0,0 -1.975,1.942 -2.634,4.741 -0.636,2.798 0.117,4.763 0.117,4.763 0,0 2.046,-1.54 2.658,-4.364 0.659,-2.788 -0.141,-5.14 -0.141,-5.14 m 3.293,9.845 c -0.022,-1.859 -1.2,-3.365 -1.2,-3.365 0,0 -1.175,1.53 -1.152,3.389 0.024,1.858 1.223,3.365 1.223,3.365 0,0 1.153,-1.518 1.129,-3.389 m 5.435,19.631 -5.271,-2.105 v -0.035 l 5.624,-0.601 0.189,-2.364 -7.577,1.765 -4.633,-0.589 -0.283,2.317 4.54,0.555 7.034,3.515 z m -63.023,59.118 c -37.852,0.141 -68.692,-30.43 -68.833,-68.281 -0.141,-37.874 30.441,-68.679 68.292,-68.821 37.852,-0.152 68.669,30.405 68.81,68.268 0.165,37.875 -30.418,68.669 -68.269,68.834" /></g><g
         transform="translate(113.407,151.3199)"
         id="g40"><path
           id="path42"
           style="fill:#0c2069;fill-opacity:1;fill-rule:nonzero;stroke:none"
           d="m 0,0 c -0.236,-0.047 -0.47,-0.142 -0.659,-0.271 -0.187,-0.129 -0.352,-0.282 -0.469,-0.506 -0.119,-0.2 -0.165,-0.471 -0.165,-0.776 0,-0.317 0.046,-0.564 0.165,-0.777 0.117,-0.222 0.282,-0.375 0.469,-0.506 0.189,-0.128 0.423,-0.211 0.659,-0.269 0.259,-0.048 0.518,-0.083 0.777,-0.083 0.259,0 0.518,0.035 0.753,0.083 0.26,0.058 0.47,0.141 0.681,0.269 0.189,0.131 0.353,0.284 0.471,0.506 0.095,0.213 0.165,0.46 0.165,0.777 0,0.305 -0.07,0.576 -0.165,0.776 C 2.564,-0.553 2.4,-0.4 2.211,-0.271 2,-0.142 1.79,-0.047 1.53,0 1.295,0.058 1.036,0.094 0.777,0.094 0.518,0.094 0.259,0.058 0,0 m -2.165,-5.164 0.213,-0.13 c 0,0 0,-0.128 0.024,-0.211 0,-0.082 0.047,-0.154 0.069,-0.223 0.119,-0.141 0.26,-0.295 0.447,-0.388 0.165,-0.119 0.378,-0.224 0.59,-0.284 0.21,-0.081 0.421,-0.128 0.634,-0.152 0.212,-0.035 0.424,-0.059 0.588,-0.059 1.694,0 2.588,0.952 2.729,2.87 C 2.636,-3.999 2.189,-4.235 1.718,-4.41 1.271,-4.587 0.8,-4.682 0.306,-4.682 c -0.375,0 -0.8,0.059 -1.223,0.165 -0.4,0.107 -0.777,0.269 -1.105,0.506 -0.33,0.223 -0.59,0.529 -0.8,0.894 -0.211,0.353 -0.306,0.787 -0.306,1.294 0,0.612 0.095,1.128 0.353,1.576 0.235,0.435 0.564,0.789 0.94,1.069 0.401,0.284 0.848,0.495 1.319,0.625 0.493,0.128 0.963,0.199 1.434,0.199 C 1.506,1.646 2.07,1.54 2.564,1.317 3.057,1.093 3.482,0.776 3.836,0.377 4.188,-0.035 4.47,-0.505 4.658,-1.058 4.869,-1.623 4.964,-2.224 4.964,-2.894 4.964,-3.682 4.847,-4.387 4.635,-5.012 4.4,-5.646 4.07,-6.188 3.671,-6.646 3.27,-7.093 2.777,-7.433 2.211,-7.68 1.646,-7.904 0.99,-8.023 0.306,-8.023 c -0.494,0 -0.918,0.048 -1.247,0.106 -0.352,0.096 -0.634,0.189 -0.871,0.295 -0.21,0.104 -0.399,0.211 -0.54,0.306 -0.141,0.082 -0.26,0.141 -0.353,0.141 -0.094,0 -0.211,-0.035 -0.306,-0.117 l -0.117,0.128 z" /></g><g
         transform="translate(131.051,151.3199)"
         id="g44"><path
           id="path46"
           style="fill:#0c2069;fill-opacity:1;fill-rule:nonzero;stroke:none"
           d="M 0,0 C -0.236,-0.047 -0.471,-0.142 -0.659,-0.271 -0.848,-0.4 -1.013,-0.553 -1.13,-0.777 c -0.093,-0.2 -0.163,-0.471 -0.163,-0.776 0,-0.317 0.07,-0.564 0.163,-0.777 0.117,-0.222 0.282,-0.375 0.471,-0.506 0.188,-0.128 0.423,-0.211 0.659,-0.269 0.259,-0.048 0.516,-0.083 0.776,-0.083 0.283,0 0.493,0.035 0.753,0.083 0.259,0.058 0.495,0.141 0.682,0.269 0.189,0.131 0.353,0.284 0.47,0.506 0.118,0.213 0.166,0.46 0.166,0.777 0,0.305 -0.048,0.576 -0.166,0.776 C 2.564,-0.553 2.4,-0.4 2.211,-0.271 2.024,-0.142 1.788,-0.047 1.529,0 1.269,0.058 1.059,0.094 0.776,0.094 0.516,0.094 0.259,0.058 0,0 m -2.165,-5.164 0.212,-0.13 c 0,0 0,-0.128 0.024,-0.211 0,-0.082 0.024,-0.154 0.093,-0.223 0.094,-0.141 0.237,-0.295 0.424,-0.388 0.189,-0.119 0.377,-0.224 0.588,-0.284 0.212,-0.081 0.425,-0.128 0.659,-0.152 0.212,-0.035 0.401,-0.059 0.588,-0.059 1.67,0 2.564,0.952 2.705,2.87 C 2.658,-3.999 2.187,-4.235 1.74,-4.41 1.269,-4.587 0.8,-4.682 0.306,-4.682 c -0.377,0 -0.8,0.059 -1.2,0.165 -0.399,0.107 -0.8,0.269 -1.13,0.506 -0.328,0.223 -0.61,0.529 -0.799,0.894 -0.212,0.353 -0.329,0.787 -0.329,1.294 0,0.612 0.117,1.128 0.375,1.576 0.236,0.435 0.566,0.789 0.966,1.069 0.375,0.284 0.798,0.495 1.293,0.625 0.494,0.128 0.965,0.199 1.435,0.199 0.588,0 1.129,-0.106 1.647,-0.329 0.495,-0.224 0.94,-0.541 1.27,-0.94 0.353,-0.412 0.636,-0.882 0.824,-1.435 0.211,-0.565 0.306,-1.166 0.306,-1.836 0,-0.788 -0.117,-1.493 -0.353,-2.118 C 4.398,-5.646 4.092,-6.188 3.693,-6.646 3.27,-7.093 2.775,-7.433 2.211,-7.68 1.647,-7.904 0.987,-8.023 0.306,-8.023 c -0.495,0 -0.918,0.048 -1.248,0.106 -0.329,0.096 -0.635,0.189 -0.848,0.295 -0.234,0.104 -0.421,0.211 -0.562,0.306 -0.143,0.082 -0.282,0.141 -0.353,0.141 -0.118,0 -0.211,-0.035 -0.306,-0.117 l -0.118,0.128 z" /></g><g
         transform="translate(119.0292,151.543)"
         id="g48"><path
           id="path50"
           style="fill:#0c2069;fill-opacity:1;fill-rule:nonzero;stroke:none"
           d="M 0,0 0.212,0.176 C 0.283,0.106 0.4,0.083 0.471,0.083 c 0.071,0 0.188,0.069 0.329,0.21 0.142,0.13 0.352,0.284 0.637,0.471 0.281,0.154 0.633,0.294 1.104,0.447 0.423,0.141 0.941,0.212 1.575,0.212 0.449,0 0.848,-0.034 1.272,-0.14 C 5.811,1.189 6.212,1.035 6.563,0.812 6.917,0.612 7.199,0.341 7.411,0 7.646,-0.329 7.741,-0.729 7.741,-1.2 7.741,-1.634 7.646,-2.035 7.388,-2.411 7.175,-2.764 6.871,-2.987 6.469,-3.093 V -3.128 C 6.94,-3.246 7.316,-3.48 7.622,-3.846 7.906,-4.2 8.069,-4.645 8.069,-5.199 8.069,-5.81 7.906,-6.316 7.646,-6.704 7.364,-7.105 7.012,-7.433 6.611,-7.657 6.212,-7.903 5.764,-8.045 5.27,-8.128 4.776,-8.198 4.329,-8.245 3.882,-8.245 c -0.493,0 -0.94,0.047 -1.363,0.141 C 2.096,-8.01 1.718,-7.88 1.389,-7.741 1.083,-7.598 0.8,-7.468 0.589,-7.351 0.378,-7.246 0.212,-7.175 0.141,-7.175 0.072,-7.175 0.048,-7.188 0,-7.234 -0.047,-7.246 -0.069,-7.27 -0.117,-7.281 l -0.165,0.035 0.965,2.601 0.165,-0.095 C 0.824,-4.764 0.824,-4.812 0.824,-4.812 V -5.01 c 0,-0.273 0.118,-0.529 0.376,-0.742 0.237,-0.212 0.518,-0.388 0.848,-0.54 0.328,-0.153 0.682,-0.271 1.035,-0.353 0.376,-0.059 0.658,-0.118 0.916,-0.118 0.212,0 0.449,0.022 0.707,0.07 0.258,0.035 0.517,0.117 0.729,0.236 0.235,0.094 0.424,0.234 0.612,0.423 0.141,0.2 0.235,0.448 0.235,0.741 0,0.307 -0.07,0.541 -0.235,0.707 -0.165,0.188 -0.33,0.305 -0.566,0.399 -0.235,0.106 -0.471,0.164 -0.705,0.188 -0.259,0.048 -0.493,0.07 -0.681,0.07 -0.261,0 -0.471,-0.035 -0.66,-0.094 -0.187,-0.058 -0.33,-0.188 -0.378,-0.411 h -0.21 v 2.47 h 0.21 c 0.026,-0.247 0.119,-0.412 0.332,-0.483 0.235,-0.082 0.445,-0.128 0.706,-0.128 0.162,0 0.374,0.023 0.611,0.058 0.234,0.035 0.447,0.106 0.636,0.199 0.186,0.094 0.375,0.225 0.492,0.4 0.165,0.165 0.236,0.377 0.236,0.636 0,0.236 -0.071,0.423 -0.211,0.577 -0.118,0.152 -0.283,0.258 -0.471,0.34 -0.189,0.096 -0.424,0.153 -0.66,0.189 -0.259,0.024 -0.493,0.048 -0.729,0.048 -0.304,0 -0.61,-0.048 -0.894,-0.131 C 2.777,-0.306 2.519,-0.423 2.259,-0.542 2.024,-0.647 1.812,-0.8 1.647,-0.929 1.484,-1.082 1.389,-1.223 1.389,-1.365 c 0,0 0.023,-0.117 0.023,-0.176 0.025,-0.058 0.025,-0.13 0.048,-0.199 L 1.319,-1.847 Z" /></g><g
         transform="translate(106.4909,143.5452)"
         id="g52"><path
           id="path54"
           style="fill:#0c2069;fill-opacity:1;fill-rule:nonzero;stroke:none"
           d="M 0,0 C 0.094,0 0.188,0.047 0.282,0.117 0.353,0.176 0.4,0.317 0.4,0.516 v 6.047 c -0.07,0 -0.164,0 -0.259,-0.037 -0.117,0 -0.21,-0.009 -0.306,-0.046 C -0.259,6.445 -0.353,6.409 -0.447,6.352 -0.518,6.304 -0.564,6.233 -0.612,6.14 H -0.8 v 2.258 h 0.188 c 0,0 0.048,-0.177 0.141,-0.2 0.118,-0.06 0.212,-0.082 0.283,-0.082 0.188,0 0.353,0.082 0.47,0.2 C 0.4,8.433 0.471,8.598 0.471,8.763 0.471,8.951 0.424,9.045 0.378,9.092 0.306,9.138 0.212,9.186 0.071,9.209 V 9.422 H 2.705 V 9.209 C 2.564,9.186 2.471,9.128 2.378,9.08 2.306,9.021 2.259,8.928 2.259,8.81 V 0.516 C 2.259,0.317 2.306,0.176 2.378,0.117 2.471,0.047 2.564,0 2.682,0 V -0.2 H 0 Z" /></g><g
         transform="translate(9.4196,18.6401)"
         id="g56"
         style="fill:#e3e3e3;fill-opacity:1"><path
           id="path58"
           style="fill:#e3e3e3;fill-opacity:1;fill-rule:nonzero;stroke:none"
           d="M 0,0 V -7.378 H 3.758 V 0 H 7.351 V -18.422 H 3.758 v 7.703 H 0 v -7.703 H -3.575 V 0 Z" /></g><g
         transform="translate(27.5333,7.2139)"
         id="g60"
         style="fill:#e3e3e3;fill-opacity:1"><path
           id="path62"
           style="fill:#e3e3e3;fill-opacity:1;fill-rule:nonzero;stroke:none"
           d="M 0,0 -0.598,3.865 C -0.78,4.974 -1.034,6.816 -1.197,8.041 H -1.288 C -1.469,6.816 -1.742,4.902 -1.94,3.822 L -2.613,0 Z m -2.976,-2.787 -0.817,-4.209 h -3.485 l 4.012,18.423 H 1.017 L 4.593,-6.996 H 1.108 l -0.781,4.209 z" /></g><g
         transform="translate(35.8471,0.218)"
         id="g64"
         style="fill:#e3e3e3;fill-opacity:1"><path
           id="path66"
           style="fill:#e3e3e3;fill-opacity:1;fill-rule:nonzero;stroke:none"
           d="M 0,0 V 18.422 H 3.286 L 6.134,11.207 C 6.679,9.783 7.569,7.433 8.095,5.817 H 8.148 C 8.04,7.759 7.804,10.962 7.804,14.356 v 4.066 h 3.141 V 0 H 7.659 L 4.847,6.996 C 4.229,8.557 3.393,10.881 2.994,12.549 H 2.94 C 2.994,10.689 3.141,7.832 3.141,4.129 V 0 Z" /></g><g
         transform="translate(53.7067,0.218)"
         id="g68"
         style="fill:#e3e3e3;fill-opacity:1"><path
           id="path70"
           style="fill:#e3e3e3;fill-opacity:1;fill-rule:nonzero;stroke:none"
           d="m 0,0 v 7.041 l -4.049,11.381 h 3.83 L 1.034,14.03 c 0.327,-1.18 0.691,-2.542 0.963,-3.912 h 0.055 c 0.217,1.343 0.526,2.677 0.853,3.994 l 1.106,4.31 H 7.714 L 3.593,7.186 V 0 Z" /></g><g
         transform="translate(69.4063,7.2139)"
         id="g72"
         style="fill:#e3e3e3;fill-opacity:1"><path
           id="path74"
           style="fill:#e3e3e3;fill-opacity:1;fill-rule:nonzero;stroke:none"
           d="m 0,0 -0.598,3.865 c -0.2,1.109 -0.436,2.951 -0.619,4.176 H -1.289 C -1.469,6.816 -1.742,4.902 -1.942,3.822 L -2.613,0 Z m -2.977,-2.787 -0.816,-4.209 h -3.485 l 4.011,18.423 H 1.017 L 4.61,-6.996 H 1.125 l -0.798,4.209 z" /></g><g
         transform="translate(77.7188,0.218)"
         id="g76"
         style="fill:#e3e3e3;fill-opacity:1"><path
           id="path78"
           style="fill:#e3e3e3;fill-opacity:1;fill-rule:nonzero;stroke:none"
           d="m 0,0 v 18.422 h 3.286 l 2.85,-7.215 C 6.68,9.783 7.569,7.433 8.095,5.817 H 8.15 C 8.041,7.759 7.786,10.962 7.786,14.356 v 4.066 h 3.159 V 0 H 7.66 L 4.829,6.996 c -0.6,1.561 -1.435,3.885 -1.852,5.553 H 2.94 C 2.995,10.689 3.141,7.832 3.141,4.129 V 0 Z" /></g><g
         transform="translate(103.7462,0.7068)"
         id="g80"
         style="fill:#e3e3e3;fill-opacity:1"><path
           id="path82"
           style="fill:#e3e3e3;fill-opacity:1;fill-rule:nonzero;stroke:none"
           d="m 0,0 c -0.781,-0.326 -2.486,-0.653 -3.829,-0.653 -2.107,0 -3.686,0.599 -4.92,1.833 -1.578,1.526 -2.414,4.256 -2.376,7.432 0.09,6.707 3.919,9.503 7.839,9.503 1.379,0 2.433,-0.29 2.995,-0.554 l -0.616,-3.085 c -0.527,0.244 -1.217,0.399 -2.124,0.399 -2.432,0 -4.374,-1.652 -4.374,-6.48 0,-4.428 1.725,-6.016 3.411,-6.016 0.309,0 0.564,0.017 0.708,0.09 v 4.447 h -1.65 v 2.94 H 0 Z" /></g><g
         transform="translate(117.6493,18.6401)"
         id="g84"
         style="fill:#e3e3e3;fill-opacity:1"><path
           id="path86"
           style="fill:#e3e3e3;fill-opacity:1;fill-rule:nonzero;stroke:none"
           d="m 0,0 v -11.97 c 0,-2.714 0.816,-3.53 1.742,-3.53 1.053,0 1.798,0.725 1.798,3.53 V 0 h 3.574 v -11.345 c 0,-4.719 -1.778,-7.295 -5.336,-7.295 -3.865,0 -5.354,2.65 -5.354,7.26 V 0 Z" /></g><g
         transform="translate(129.5569,0.218)"
         id="g88"
         style="fill:#e3e3e3;fill-opacity:1"><path
           id="path90"
           style="fill:#e3e3e3;fill-opacity:1;fill-rule:nonzero;stroke:none"
           d="m 0,0 v 18.422 h 3.266 l 2.85,-7.215 C 6.66,9.783 7.567,7.433 8.095,5.817 H 8.148 C 8.02,7.759 7.786,10.962 7.786,14.356 v 4.066 h 3.139 L 10.925,0 H 7.64 L 4.827,6.996 C 4.228,8.557 3.393,10.881 2.976,12.549 H 2.904 c 0.09,-1.86 0.237,-4.717 0.237,-8.42 V 0 Z" /></g><path
         id="path92"
         style="fill:#e3e3e3;fill-opacity:1;fill-rule:nonzero;stroke:none"
         d="m 148.94,0.218 h -3.593 V 18.64 h 3.593 z" /><g
         transform="translate(156.3989,0.218)"
         id="g94"
         style="fill:#e3e3e3;fill-opacity:1"><path
           id="path96"
           style="fill:#e3e3e3;fill-opacity:1;fill-rule:nonzero;stroke:none"
           d="m 0,0 -4.138,18.422 h 3.993 l 1.29,-7.95 C 1.471,8.502 1.852,6.243 2.124,4.076 H 2.16 c 0.256,2.177 0.545,4.399 0.872,6.486 l 1.252,7.86 H 8.243 L 4.029,0 Z" /></g><g
         transform="translate(175.6764,8.3033)"
         id="g98"
         style="fill:#e3e3e3;fill-opacity:1"><path
           id="path100"
           style="fill:#e3e3e3;fill-opacity:1;fill-rule:nonzero;stroke:none"
           d="m 0,0 h -4.211 v -4.965 h 4.772 v -3.12 H -7.786 V 10.337 H 0.217 V 7.233 H -4.211 V 2.995 H 0 Z" /></g><g
         transform="translate(183.9516,10.336)"
         id="g102"
         style="fill:#e3e3e3;fill-opacity:1"><path
           id="path104"
           style="fill:#e3e3e3;fill-opacity:1;fill-rule:nonzero;stroke:none"
           d="M 0,0 H 0.616 C 2.179,0 3.086,1.252 3.086,2.868 3.086,4.429 2.45,5.553 0.835,5.61 0.546,5.61 0.182,5.572 0,5.5 Z m -3.593,8.041 c 1.125,0.209 2.541,0.354 3.919,0.354 1.961,0 3.703,-0.272 4.902,-1.362 1.125,-1.016 1.47,-2.25 1.47,-3.837 0,-1.961 -0.963,-3.75 -2.85,-4.62 V -1.479 C 5.101,-1.977 5.735,-3.148 6.081,-5.109 6.443,-7.16 6.934,-9.437 7.26,-10.118 H 3.521 c -0.217,0.516 -0.634,2.377 -0.906,4.4 -0.328,2.287 -0.89,2.96 -2.107,2.96 H 0 v -7.36 h -3.593 z" /></g><g
         transform="translate(194.5158,3.8661)"
         id="g106"
         style="fill:#e3e3e3;fill-opacity:1"><path
           id="path108"
           style="fill:#e3e3e3;fill-opacity:1;fill-rule:nonzero;stroke:none"
           d="m 0,0 c 0.708,-0.399 1.977,-0.69 3.012,-0.69 1.707,0 2.505,0.871 2.505,2.059 0,1.354 -0.798,2.007 -2.36,3.014 -2.522,1.533 -3.466,3.485 -3.466,5.146 0,2.957 1.96,5.426 5.807,5.426 1.217,0 2.36,-0.335 2.924,-0.661 L 7.841,11.198 c -0.526,0.336 -1.326,0.627 -2.361,0.627 -1.543,0 -2.269,-0.926 -2.269,-1.915 0,-1.079 0.546,-1.66 2.541,-2.869 2.434,-1.479 3.34,-3.329 3.34,-5.281 0,-3.358 -2.485,-5.572 -6.097,-5.572 -1.471,0 -2.941,0.381 -3.541,0.735 z" /></g><path
         id="path110"
         style="fill:#e3e3e3;fill-opacity:1;fill-rule:nonzero;stroke:none"
         d="m 210.958,0.218 h -3.575 V 18.64 h 3.575 z" /><g
         transform="translate(217.8558,15.3364)"
         id="g112"><path
           id="path114"
           style="fill:#e3e3e3;fill-opacity:1;fill-rule:nonzero;stroke:none"
           d="M 0,0 H -3.266 V 3.304 H 6.861 V 0 H 3.576 V -15.119 H 0 Z" /></g><g
         transform="translate(231.2692,0.218)"
         id="g116"
         style="fill:#e3e3e3;fill-opacity:1"><path
           id="path118"
           style="fill:#e3e3e3;fill-opacity:1;fill-rule:nonzero;stroke:none"
           d="M 0,0 V 7.041 L -4.029,18.422 H -0.2 L 1.053,14.03 c 0.328,-1.18 0.689,-2.542 0.962,-3.912 h 0.054 c 0.218,1.343 0.507,2.677 0.853,3.994 l 1.09,4.31 H 7.731 L 3.595,7.186 V 0 Z" /></g><g
         transform="translate(134.5477,61.2286)"
         id="g120"><path
           id="path122"
           style="fill:#e3e3e3;fill-opacity:1;fill-rule:nonzero;stroke:none"
           d="m 0,0 h -3.249 v 15.184 h -6.607 v -27.979 h -13.122 v 23.812 h 9.673 v 4.167 H -30.02 v -32.153 h 20.164 v -16.962 h 6.607 V -4.174 H 0 V -33.931 H 6.607 V 15.184 H 0 Z m -46.283,15.13 h -7.079 v -26.183 h 7.079 v 6.879 h 6.914 V 0 h -6.914 v 5.936 h 6.914 v 4.102 h -6.914 z M 90.551,-26.444 v 21.29 h -6.497 v -21.29 h -4.647 v 21.29 h -6.498 v -21.29 h -7.116 v -4.166 h 38.479 v 4.166 z m -149.648,-5.218 c -8.785,0 -8.785,16.633 0,16.633 8.712,0 8.712,-16.633 0,-16.633 m 0,20.41 c -17.933,0 -17.988,-24.313 0,-24.313 17.987,0 17.878,24.313 0,24.313 M 29.257,7.46 c 7.986,0 7.986,-16.127 0,-16.127 -8.039,0 -8.039,16.127 0,16.127 m 7.714,1.234 h 6.353 V 12.85 H 32.779 v 3.957 H 25.736 V 12.85 H 15.209 V 8.694 h 6.353 c -7.786,-6.008 -5.209,-21.045 7.731,-21.045 12.851,0 15.41,15.037 7.678,21.045 m 17.007,6.49 H 46.954 V -13.64 h 7.024 v 12.687 h 6.916 V 3.141 H 53.978 Z M 22.415,-20.009 h 24.539 v -13.858 h 7.024 v 17.958 H 22.415 Z M -120.463,7.46 c 7.968,0 7.968,-16.127 0,-16.127 -8.059,0 -8.059,16.127 0,16.127 m 7.678,1.234 h 6.351 v 4.156 h -10.526 v 3.957 h -7.024 V 12.85 h -10.564 V 8.694 h 6.353 c -7.769,-6.008 -5.209,-21.045 7.732,-21.045 12.869,0 15.428,15.037 7.678,21.045 m 42.289,3.64 c 8.477,0 8.477,-17.66 0,-17.66 -8.566,0 -8.566,17.66 0,17.66 m 0,3.912 c -17.425,0 -17.425,-25.439 0,-25.439 17.351,0 17.351,25.439 0,25.439 M 94.907,-22.551 h 6.625 v 37.79 H 67.499 v -4.166 h 27.408 z m -213.935,6.642 h -7.043 v -17.958 h 31.128 v 4.157 h -24.085 z m 23.268,31.093 h -7.024 v -35.193 h 7.024 v 19.056 h 6.914 v 4.094 h -6.914 z" /></g></g><g
       fill-rule="evenodd"
       clip-rule="evenodd"
       id="g3"
       transform="matrix(0.19281545,0,0,0.19281545,34.984835,151.03268)"><path
         fill="#ffffff"
         fill-opacity="0"
         d="M 0,0 H 192.756 V 192.756 H 0 Z"
         id="path1" /><path
         d="m 169.246,125.533 c -2.244,-2.401 -2.117,-4.941 -2.117,-4.941 V 63.181 h -21.818 v 45.912 c -0.271,4.351 -4.533,5.461 -6.896,5.387 -3.385,-0.107 -5.344,-1.999 -5.344,-5.248 l -0.004,-46.033 h -21.252 l -0.002,-0.018 c -4.971,0 -8.873,0.018 -14.976,0.018 -11.627,0 -22.608,1.778 -26.307,11.423 l -2.196,-8.55 c -0.539,-1.679 -2.375,-2.889 -4.187,-2.889 h -2.853 l -28.433,0.002 h -6.716 c -0.546,0 -0.743,0.171 -0.457,0.558 0,0 1.028,0.987 2.896,3.116 2.595,2.955 1.576,6.908 1.576,6.908 l -13.903,55.465 h 20.245 l 2.92,-12.186 H 58.96 l 3.045,12.188 h 26.666 c 10.94,0 19.838,-1.113 24.239,-7.927 3.283,6.21 10.344,9.13 22.799,8.058 4.34,-0.373 8.6,-2.402 10.43,-5.617 l 0.842,2.673 c 0.729,1.612 2.211,2.804 4.322,2.804 h 20.381 c 0.543,0 0.742,-0.16 0.455,-0.548 0,-0.001 -1.086,-1.209 -2.893,-3.144 z M 42.519,105.104 49.266,77.992 56.05,105.104 Z m 127.17,-37.906 h 0.577 v -3.515 h 1.25 v -0.507 h -3.077 v 0.507 h 1.25 z m 5.858,-4.022 -1.24,3.341 -1.26,-3.341 h -0.951 v 4.022 h 0.576 v -3.481 h 0.012 l 1.33,3.481 h 0.566 l 1.33,-3.481 h 0.012 v 3.481 h 0.576 v -4.022 z"
         fill="#8b274c"
         id="path2" /><path
         d="m 69.721,79.227 0.018,-0.141 c 0.079,-0.583 0.183,-1.165 0.309,-1.737 l 0.011,-0.051 -3.649,-2.206 a 0.45,0.45 0 0 0 -0.563,0.052 0.355,0.355 0 0 0 -0.096,0.272 c 0.01,0.098 0.065,0.19 0.137,0.257 z m -0.075,5.955 -0.017,-0.154 A 22.029,22.029 0 0 1 69.511,82.466 L 62.69,79.737 c -0.188,-0.082 -0.437,-0.025 -0.544,0.145 a 0.347,0.347 0 0 0 -0.045,0.277 0.384,0.384 0 0 0 0.186,0.234 z m -9.997,0.409 11.548,5.054 -0.086,-0.181 a 16.024,16.024 0 0 1 -1.125,-3.277 l -0.01,-0.046 -10.058,-2.242 c -0.203,-0.053 -0.426,0.037 -0.5,0.22 a 0.341,0.341 0 0 0 0.007,0.278 c 0.043,0.09 0.123,0.162 0.224,0.194 z M 88.464,102.12 C 82.133,99.947 74.956,97.481 71.526,91.272 L 71.507,91.236 58.211,90.399 c -0.21,-0.023 -0.426,0.111 -0.464,0.306 a 0.341,0.341 0 0 0 0.058,0.268 0.417,0.417 0 0 0 0.268,0.167 l 13.324,3.421 c 0.041,0.008 0.091,0.023 0.11,0.056 a 0.114,0.114 0 0 1 0.018,0.073 c -0.005,0.071 -0.071,0.112 -0.147,0.106 l -13.796,1.293 c -0.212,0.011 -0.399,0.177 -0.399,0.378 a 0.35,0.35 0 0 0 0.108,0.25 c 0.073,0.076 0.182,0.12 0.29,0.125 l 13.78,1.294 c 0.072,0.003 0.134,0.039 0.141,0.101 a 0.129,0.129 0 0 1 -0.028,0.096 c -0.021,0.024 -0.046,0.033 -0.079,0.04 L 58.041,101.8 a 0.369,0.369 0 0 0 -0.237,0.161 0.345,0.345 0 0 0 -0.06,0.268 c 0.039,0.193 0.26,0.319 0.466,0.304 l 13.81,-0.868 c 0.075,-0.013 0.145,0.018 0.164,0.08 a 0.132,0.132 0 0 1 -0.013,0.098 0.121,0.121 0 0 1 -0.072,0.055 l -12.45,5.436 a 0.452,0.452 0 0 0 -0.231,0.214 0.33,0.33 0 0 0 -0.005,0.27 c 0.075,0.183 0.313,0.272 0.521,0.228 l 13.416,-3.008 c 0.119,-0.024 0.165,0.008 0.195,0.07 a 0.09,0.09 0 0 1 0.004,0.077 0.127,0.127 0 0 1 -0.074,0.075 l -11.185,7.277 a 0.404,0.404 0 0 0 -0.196,0.243 0.346,0.346 0 0 0 0.044,0.278 c 0.109,0.169 0.375,0.232 0.556,0.139 l 12.619,-5.044 c 0.059,-0.037 0.147,-0.024 0.188,0.03 a 0.133,0.133 0 0 1 0.027,0.109 0.085,0.085 0 0 1 -0.038,0.062 l -9.607,8.904 a 0.473,0.473 0 0 0 -0.143,0.274 c -0.009,0.1 0.027,0.187 0.095,0.262 0.14,0.147 0.415,0.17 0.575,0.049 l 11.45,-6.932 a 0.15,0.15 0 0 1 0.192,0 c 0.062,0.057 0.053,0.089 0.051,0.102 -0.002,0.035 -0.032,0.076 -0.032,0.076 l -7.755,10.297 a 0.316,0.316 0 0 0 -0.07,0.245 0.354,0.354 0 0 0 0.15,0.252 c 0.163,0.125 0.427,0.094 0.567,-0.04 l 9.934,-8.606 c 0.043,-0.054 0.14,-0.075 0.196,-0.036 0.048,0.033 0.07,0.071 0.073,0.105 a 0.166,0.166 0 0 1 -0.024,0.081 l -5.621,11.299 a 0.384,0.384 0 0 0 -0.038,0.277 0.379,0.379 0 0 0 0.193,0.237 c 0.186,0.097 0.448,0.032 0.555,-0.133 0,0 8.171,-10.09 8.19,-10.082 1.638,0.754 3.244,1.236 4.527,1.359 3.87,0.373 7.488,-0.496 9.442,-2.27 1.014,-0.923 1.529,-2.027 1.529,-3.283 0.001,-4.736 -5.309,-6.56 -11.455,-8.671 z m 26.474,15.166 -0.043,0.136 a 18.68,18.68 0 0 1 -0.617,1.669 l -0.023,0.051 3.139,2.73 a 0.456,0.456 0 0 0 0.561,0.021 0.373,0.373 0 0 0 0.146,-0.26 0.376,0.376 0 0 0 -0.084,-0.263 z m 1.035,-6.039 -0.012,0.156 a 30.86,30.86 0 0 1 -0.283,2.607 l -0.008,0.047 6.291,3.81 c 0.16,0.12 0.414,0.086 0.553,-0.062 a 0.352,0.352 0 0 0 0.096,-0.273 0.373,0.373 0 0 0 -0.127,-0.246 z m -0.151,-5.361 0.023,0.163 c 0.133,0.896 0.199,1.833 0.199,2.792 l -0.006,0.514 9.639,3.863 c 0.184,0.084 0.43,0.021 0.539,-0.146 a 0.35,0.35 0 0 0 0.043,-0.277 0.406,0.406 0 0 0 -0.178,-0.233 z m 15.248,-9.652 a 0.448,0.448 0 0 0 -0.281,-0.125 l -13.791,-1.294 c -0.07,0.006 -0.127,-0.04 -0.133,-0.104 a 0.137,0.137 0 0 1 0.027,-0.094 0.118,0.118 0 0 1 0.078,-0.039 l 13.324,-3.416 a 0.425,0.425 0 0 0 0.266,-0.169 0.35,0.35 0 0 0 0.059,-0.268 c -0.039,-0.194 -0.248,-0.319 -0.469,-0.304 l -13.822,0.87 c -0.07,0.017 -0.137,-0.018 -0.156,-0.081 a 0.116,0.116 0 0 1 0.012,-0.096 0.1,0.1 0 0 1 0.064,-0.049 l 12.471,-5.443 a 0.383,0.383 0 0 0 0.225,-0.205 0.34,0.34 0 0 0 0.008,-0.276 c -0.074,-0.184 -0.318,-0.266 -0.521,-0.218 l -13.451,3.003 c -0.068,0.031 -0.162,0.013 -0.189,-0.041 a 0.118,0.118 0 0 1 -0.004,-0.094 0.183,0.183 0 0 1 0.064,-0.07 l 11.234,-7.304 a 0.417,0.417 0 0 0 0.188,-0.239 0.355,0.355 0 0 0 -0.045,-0.277 c -0.107,-0.168 -0.354,-0.227 -0.549,-0.142 l -12.682,5.066 c -0.061,0.039 -0.137,0.03 -0.176,-0.022 a 0.128,0.128 0 0 1 -0.027,-0.098 0.092,0.092 0 0 1 0.043,-0.063 l 9.654,-8.95 a 0.418,0.418 0 0 0 0.135,-0.254 0.358,0.358 0 0 0 -0.096,-0.272 c -0.139,-0.148 -0.377,-0.182 -0.537,-0.062 l -11.545,6.975 a 0.144,0.144 0 0 1 -0.189,-0.003 c -0.021,-0.021 -0.035,-0.043 -0.035,-0.071 0,-0.028 0.012,-0.063 0.033,-0.086 l 7.768,-10.311 a 0.412,0.412 0 0 0 0.092,-0.272 0.35,0.35 0 0 0 -0.145,-0.259 c -0.168,-0.125 -0.439,-0.102 -0.574,0.042 l -9.98,8.646 c -0.045,0.056 -0.125,0.082 -0.184,0.044 -0.033,-0.02 -0.055,-0.042 -0.061,-0.076 a 0.168,0.168 0 0 1 0.012,-0.082 l 5.662,-11.379 a 0.36,0.36 0 0 0 0.037,-0.276 0.373,0.373 0 0 0 -0.195,-0.236 c -0.186,-0.096 -0.443,-0.041 -0.549,0.125 l -8.334,10.245 c -2.305,-1.123 -6.158,-1.787 -7.947,-1.787 -0.032,0 -0.087,-0.001 -0.158,-0.004 -3.663,-0.09 -6.388,0.632 -7.881,2.089 -0.863,0.841 -1.301,1.929 -1.301,3.23 0,1.79 1.011,3.256 3.177,4.614 1.938,1.215 4.628,2.229 7.479,3.307 3.717,1.403 7.932,2.995 11.383,5.375 3.961,2.729 6.291,6.067 7.135,10.208 l 0.008,0.047 12.764,2.858 a 0.408,0.408 0 0 0 0.48,-0.234 0.333,0.333 0 0 0 -0.008,-0.276 0.43,0.43 0 0 0 -0.221,-0.195 l -12.447,-5.443 a 0.117,0.117 0 0 1 -0.07,-0.054 0.13,0.13 0 0 1 -0.014,-0.103 c 0.02,-0.062 0.092,-0.098 0.164,-0.08 l 13.814,0.875 c 0.215,0.018 0.414,-0.113 0.453,-0.309 a 0.345,0.345 0 0 0 -0.059,-0.268 0.418,0.418 0 0 0 -0.258,-0.165 l -13.318,-3.42 a 0.134,0.134 0 0 1 -0.092,-0.046 0.104,0.104 0 0 1 -0.025,-0.082 0.131,0.131 0 0 1 0.143,-0.112 l 13.775,-1.293 c 0.111,-0.007 0.217,-0.05 0.289,-0.122 0.072,-0.072 0.109,-0.161 0.109,-0.253 0,-0.092 -0.037,-0.182 -0.11,-0.253 z"
         fill="#ecb73a"
         id="path3" /></g><g
       id="g1"
       transform="matrix(0.13613504,0,0,0.13613504,67.50137,150.81095)"><path
         class="cls-1"
         d="m 231.50446,88.20325 -2.76802,0.745237 c -1.33079,-2.754716 -3.14065,-4.258497 -7.53222,-4.258497 h -41.37397 v 112.1715 c 0,4.52465 2.00948,6.1482 4.7775,6.1482 l 0.54562,2.26233 h -26.84184 l 0.54561,-2.26233 c 2.66157,0 4.89728,-1.75663 4.89728,-6.1482 V 84.68999 h -41.25419 c -4.27181,0 -6.65391,1.75663 -7.6653,4.258497 l -2.75472,-0.745237 3.99235,-17.206992 a 23.40843,23.40843 0 0 0 6.6539,0.625467 h 99.19637 a 21.838108,21.838108 0 0 0 5.52275,-0.625467 z M 216.65294,189.2228 c -11.44471,0 -25.72398,-0.41254 -29.27717,-0.81177 v -2.5551 a 4.2584977,4.2584977 0 0 0 4.55128,-4.29842 v -80.08638 a 4.2185743,4.2185743 0 0 0 -4.57789,-4.418187 V 94.39138 c 4.40488,-0.399234 19.0967,-0.944854 29.03763,-0.944854 21.29249,0 32.68397,11.285024 32.68397,45.246544 0,34.7999 -9.51508,50.52973 -32.41782,50.52973 z m 2.90111,-81.97608 c -1.92963,0 -10.00747,0 -10.83255,0.13308 v 68.00289 c 0.82508,0.13307 9.03599,0.13307 10.00747,0.13307 8.82307,0 12.9618,-10.35346 12.9618,-36.82269 0,-24.85898 -5.24328,-31.44635 -12.13672,-31.44635 z M 156.32867,97.159403 v -2.661561 c 0,0 -10.88579,0.07984 -19.5891,0 0,0 -1.8897,2.195791 -1.8897,7.598748 v 66.92496 c 0,5.32312 -3.87258,7.98468 -8.42385,7.98468 -4.2718,0 -8.26414,-2.15586 -8.26414,-7.98468 v -66.88503 c 0,-3.353567 1.92963,-5.096887 4.55127,-5.096887 v -2.555098 h -18.45793 a 10.885785,10.885785 0 0 0 -2.74141,7.651985 v 68.53521 a 20.800099,20.800099 0 0 1 -0.97147,7.79837 33.016665,33.016665 0 0 0 25.92361,12.22987 298.84007,298.84007 0 0 0 29.90264,-2.15587 v -2.55509 a 4.2584977,4.2584977 0 0 1 -4.53796,-4.29843 V 101.5909 a 4.2185743,4.2185743 0 0 1 4.49804,-4.431497 z"
         id="path29"
         style="stroke-width:1.33079" /></g><g
       id="g7"
       transform="matrix(0.18152603,0,0,0.18152603,110.44616,165.55511)">
	<g
   id="g6">
		<g
   id="g2">
			<path
   class="st0"
   d="M 33.08,0 H 11.02 C 4.94,0 0,4.94 0,11.02 V 33.08 C 0,39.17 4.94,44.1 11.02,44.1 h 22.06 c 6.09,0 11.02,-4.94 11.02,-11.02 V 11.02 C 44.1,4.94 39.17,0 33.08,0 Z m 0,33.08 H 11.02 V 11.02 h 22.06 z"
   id="path1-7" />
			<path
   class="st0"
   d="m 21.98,12.93 c -5,0 -9.05,4.05 -9.05,9.05 0,5 4.05,9.05 9.05,9.05 5,0 9.05,-4.05 9.05,-9.05 -0.01,-5 -4.06,-9.05 -9.05,-9.05 z"
   id="path2-5" />
		</g>
		<path
   d="M 74.96,0.05 96.44,31.27 V 7.25 L 96.38,1.54 H 89.93 V 0.05 h 13.84 V 1.54 H 98.43 L 98.37,7.25 V 44.43 L 97.38,44.74 68.56,2.84 v 33.65 l 0.06,5.9 h 6.64 v 1.49 H 60.93 v -1.49 h 5.71 l 0.06,-5.9 V 7.25 L 66.64,1.54 H 60.93 V 0.05 Z"
   id="path3-92"
   style="fill:#e3e3e3;fill-opacity:1" />
		<path
   d="m 146.6,0.05 v 14.03 h -1.86 c -0.19,-2.17 -0.44,-4.9 -2.36,-8.13 -2.23,-3.79 -5.28,-3.97 -8.26,-4.1 h -3.48 l -0.06,5.59 v 28.62 l 0.06,6.33 h 6.71 v 1.49 h -20.36 v -1.49 h 6.7 l 0.06,-6.33 V 7.43 l -0.06,-5.59 h -2.86 c -3.6,0.06 -6.33,0.06 -8.94,4.22 -2.05,3.29 -2.23,5.9 -2.36,8.01 h -1.8 V 0.05 Z"
   id="path4-2"
   style="fill:#e3e3e3;fill-opacity:1" />
		<path
   d="m 164.23,0.05 21.48,31.22 V 7.25 l -0.06,-5.71 h -6.46 V 0.05 h 13.84 v 1.49 h -5.34 l -0.06,5.71 v 37.18 l -0.99,0.31 -28.8,-41.91 v 33.65 l 0.06,5.9 h 6.64 v 1.49 H 150.2 v -1.49 h 5.71 l 0.06,-5.9 V 7.25 L 155.91,1.54 H 150.2 V 0.05 Z"
   id="path5-8"
   style="fill:#e3e3e3;fill-opacity:1" />
		<path
   d="m 217.13,0.05 v 1.49 h -6.15 l -0.06,5.28 v 23.72 c 0.06,6.15 0.19,11.98 11.73,11.98 11.67,0 12.41,-5.09 12.6,-10.62 V 6.81 l -0.06,-5.28 h -6.27 V 0.05 h 13.71 v 1.49 h -5.4 l -0.06,5.28 v 22.6 c -0.06,8.13 -0.13,15.08 -16.2,15.08 -2.29,0 -7.76,-0.25 -11.23,-1.68 -5.53,-2.36 -5.65,-7.2 -5.71,-13.16 V 6.81 l -0.06,-5.28 h -5.34 V 0.05 Z"
   id="path6-9"
   style="fill:#e3e3e3;fill-opacity:1" />
	</g>
</g><path
       fill="#00326f"
       d="m 41.180744,134.88849 c -2.02023,0 -3.097781,0.13484 -3.569351,0.13484 -0.785716,0 -1.481585,-0.0225 -2.177753,-0.0225 -0.381468,0 -0.448805,0.0225 -0.448805,0.17967 0,0.26923 0.08969,0.29199 1.100167,0.29199 0.628284,0 0.987889,0.20206 0.987889,1.97551 v 10.32691 c 0,0.33669 -0.0452,0.38164 -1.055311,0.38164 -0.493959,0 -0.628767,0.0446 -0.628767,0.2694 0,0.22444 0.157168,0.24683 0.381937,0.24683 0.718201,0 1.21216,-0.0897 2.154924,-0.0897 0.987747,0 1.930774,0.22424 2.873708,0.22424 3.120631,0 5.208574,-1.18948 5.208574,-3.70396 0,-1.95307 -1.324936,-2.71654 -2.380013,-3.25564 -0.449011,-0.2244 -0.875633,-0.33662 -0.875633,-0.38137 0,-0.0672 0.493959,-0.31428 0.920752,-0.6062 0.71855,-0.49379 1.683851,-1.27991 1.683851,-2.87371 0,-1.59399 -1.257343,-3.09796 -4.176255,-3.09796 z m 38.465893,0.0257 c -0.11716,0 -0.859221,0.33196 -2.382258,0.4296 -0.331822,0.0195 -0.48833,-2e-4 -0.48833,0.23415 0,0.215 0.195479,0.25417 0.546967,0.25417 0.878526,0 0.9958,-1.1e-4 0.9958,1.2299 v 10.75913 c 0,0.35149 -0.332106,0.33202 -1.132605,0.33202 -0.468856,0 -0.488295,0.11748 -0.488295,0.25417 0,0.15616 0.03895,0.19519 0.488295,0.19519 0.273355,0 1.308438,-0.0389 1.972104,-0.0389 0.351893,0 0.78138,0.0389 1.074231,0.0389 0.702838,0 0.839502,-3e-5 0.839502,-0.19519 0,-0.15657 0.03902,-0.27364 -0.937372,-0.27364 -0.351339,0 -0.48806,-0.21477 -0.48806,-1.8353 0,-0.56655 0.09764,-2.10888 0.09764,-9.54878 0,-0.58568 0.09757,-1.28898 0.09757,-1.52333 0,-0.21483 -0.09772,-0.31226 -0.195208,-0.31226 z m -16.211409,0.0195 c -0.175861,0 -1.328084,0.42934 -2.733782,0.42934 -0.214832,0 -0.253881,0.0782 -0.253881,0.27335 0,0.13704 0.07811,0.1958 0.878433,0.1958 0.52718,0 0.683538,0.17574 0.683538,1.56195 0,4.12029 -0.05871,9.9001 -0.05871,10.46627 0,0.29285 -0.175634,0.29282 -0.839498,0.29282 -0.468685,0 -0.566179,0.0976 -0.566179,0.25417 0,0.17563 0.117168,0.19519 0.566179,0.19519 0.27332,0 0.995914,-0.0389 1.660133,-0.0389 0.624844,0 1.522717,0.0389 1.81554,0.0389 0.429543,0 0.527265,-3e-5 0.527265,-0.19519 0,-0.15656 -0.07806,-0.2542 -0.527265,-0.2542 -1.210518,0 -1.171257,1.5e-4 -1.171257,-0.91734 v -1.23019 c 0,-0.17586 0.273264,-0.31272 0.585639,-0.50805 0.331822,-0.21483 0.605057,-0.40991 0.683226,-0.40991 0.11716,0 0.937738,1.23042 1.757741,2.16764 0.820024,0.93717 0.995857,1.42537 1.347551,1.42537 0.273356,0 0.859052,-0.0195 1.09338,-0.0195 0.175691,0 0.429451,0.0195 0.663807,0.0195 0.429487,0 0.566179,-0.0391 0.566179,-0.17574 0,-0.15616 -0.156074,-0.25417 -0.624581,-0.25417 -0.663843,0 -1.288744,-0.95663 -1.952957,-1.75716 -1.366678,-1.64038 -1.717932,-2.01122 -1.717932,-2.18705 0,-0.13666 1.210512,-0.9956 2.18705,-1.95267 0.605171,-0.58567 1.268893,-1.42514 1.268893,-1.60117 0,-0.0586 -0.078,-0.0781 -0.234158,-0.0781 -0.23415,0 -1.367076,0.0584 -1.620928,0.0584 -0.234328,0 -0.605114,-0.0584 -0.8003,-0.0584 -0.253824,0 -0.351489,0.039 -0.351489,0.1955 0,0.17583 0.09758,0.21466 0.390395,0.21466 0.85903,0 0.917667,0.0392 0.917667,0.35149 0,0.41001 -0.175776,0.74203 -0.937106,1.46437 -0.624872,0.58605 -2.656047,2.3823 -3.144228,2.3823 -0.05849,0 -0.07785,-0.0586 -0.07785,-0.13682 0,-3.18273 0.116784,-5.36961 0.116784,-8.33769 0,-0.62487 0.03916,-1.44542 0.03916,-1.6991 0,-0.11713 -0.03902,-0.17571 -0.136515,-0.17571 z m -22.928264,0.49367 c 2.042995,0 2.985993,2.15531 2.985993,3.27792 0,1.77346 -0.740846,2.20002 -1.391888,2.69398 0,0 -0.943091,-0.13484 -2.312306,-0.13484 -0.539106,0 -0.830771,0.0448 -0.830771,-0.31455 v -4.87132 c 0,-0.44901 0.06745,-0.65107 1.548944,-0.65107 z m 9.845226,5.05187 c -1.776868,0 -3.632096,1.6404 -3.632096,4.39362 0,3.26093 2.382408,4.04231 3.983435,4.04231 1.581709,0 3.241523,-1.23062 3.241523,-1.32811 0,-0.0392 -0.05864,-0.15628 -0.156273,-0.15628 -0.11699,0 -0.819946,0.46883 -2.108626,0.46883 -1.484243,0 -3.573828,-0.72257 -3.573828,-3.41729 0,-0.44902 0.05885,-0.54668 0.371475,-0.56618 2.225701,-0.13666 4.178423,-0.566 4.686135,-0.68354 0.52752,-0.11716 0.800876,-0.19516 0.800876,-0.27335 0,-0.15616 -0.312667,-0.6249 -0.644859,-1.01525 -0.702835,-0.8202 -1.952352,-1.46459 -2.967911,-1.46459 z m 22.768657,0 c -1.776682,0 -3.632117,1.6404 -3.632117,4.39362 0,3.26093 2.382259,4.04231 3.983435,4.04231 1.581532,0 3.241551,-1.23062 3.241551,-1.32811 0,-0.0392 -0.05878,-0.15628 -0.15628,-0.15628 -0.117189,0 -0.82023,0.46883 -2.108938,0.46883 -1.484038,0 -3.573281,-0.72257 -3.573281,-3.41729 0,-0.44902 0.05864,-0.54668 0.370935,-0.56618 2.226077,-0.13666 4.178422,-0.566 4.686476,-0.68354 0.527179,-0.11716 0.800584,-0.19516 0.800584,-0.27335 0,-0.15616 -0.31229,-0.6249 -0.644311,-1.01525 -0.703212,-0.8202 -1.952665,-1.46459 -2.968196,-1.46459 z m 11.262825,0 c -1.777059,0 -3.632127,1.6404 -3.632127,4.39362 0,3.26093 2.382268,4.04231 3.983445,4.04231 1.58173,0 3.24158,-1.23062 3.24158,-1.32811 0,-0.0392 -0.05878,-0.15628 -0.156274,-0.15628 -0.117196,0 -0.819888,0.46883 -2.108945,0.46883 -1.483867,0 -3.573281,-0.72257 -3.573281,-3.41729 0,-0.44902 0.05864,-0.54668 0.370963,-0.56618 2.226071,-0.13666 4.178793,-0.566 4.686476,-0.68354 0.52718,-0.11716 0.800585,-0.19516 0.800585,-0.27335 0,-0.15616 -0.312262,-0.6249 -0.644312,-1.01525 -0.702834,-0.8202 -1.952721,-1.46459 -2.967904,-1.46459 z m -27.236295,0.13655 c -0.312696,0 -0.683744,0.0976 -0.996092,0.0976 -0.390487,0 -0.761593,-0.0392 -1.425436,-0.0392 -0.332191,0 -0.312546,0.0588 -0.312546,0.29337 0,0.21486 -1.14e-4,0.19521 0.35178,0.19521 1.093351,0 1.054153,0.0391 1.054153,1.36677 v 5.35048 c 0,0.27336 -0.05842,0.29283 -0.858973,0.29283 -0.468855,0 -0.488323,0.0389 -0.488323,0.23441 0,0.19536 0.03895,0.19522 0.488323,0.19522 0.273355,0 0.93734,-0.0976 1.601176,-0.0976 0.625043,0 1.933198,0.0976 2.206525,0.0976 0.507676,0 0.527258,0.0196 0.527258,-0.19522 0,-0.17603 -0.01962,-0.23441 -0.527258,-0.23441 -1.444847,0 -1.503256,-1.8e-4 -1.503256,-0.95687 v -4.02281 c 0,-0.81999 0.429316,-1.28862 1.561658,-1.28862 0.976539,0 1.211009,0.80058 1.484358,0.80058 0.117167,0 0.429373,-0.85908 0.429373,-1.05443 0,-0.50754 -0.898079,-0.93743 -1.24998,-0.93743 -0.91766,0 -1.835007,1.01557 -2.12783,1.01557 -0.07816,0 -0.09761,-0.13664 -0.09761,-0.31227 0,-0.0587 0.03895,-0.48827 0.03895,-0.58596 0,-0.15651 -0.07811,-0.21495 -0.156281,-0.21495 z m 38.989465,0.0194 c -0.273355,0 -0.800556,0.0782 -1.093379,0.0782 -0.527556,0 -0.878959,-0.0389 -1.40599,-0.0389 -0.351517,0 -0.410161,-1.5e-4 -0.410161,0.25388 0,0.19533 0.07817,0.1955 0.683538,0.1955 0.663665,0 0.663495,0.11699 0.663495,0.7027 0,0.27332 -0.70275,2.30441 -1.171285,3.71008 -0.312326,0.91807 -0.429515,1.19127 -0.566179,1.19127 -0.07816,0 -0.312574,-0.3319 -0.469111,-0.74189 -1.171348,-3.00745 -1.679025,-3.69096 -1.679025,-4.25713 0,-0.44901 0.117132,-0.56618 0.585646,-0.56618 0.410012,0 0.488294,-0.0195 0.488294,-0.19521 0,-0.2152 -0.07828,-0.29311 -0.488294,-0.29311 -0.624673,0 -1.308389,0.0584 -1.855064,0.0584 -0.468507,0 -0.605078,-0.0389 -1.151761,-0.0389 -0.351517,0 -0.409891,0.0978 -0.409891,0.27364 0,0.17567 0.0194,0.19522 0.409891,0.19522 0.351318,0 0.488124,0.0978 0.976304,1.26913 1.074061,2.53854 2.635891,6.15099 2.635891,6.36585 0,0.58567 -1.678791,2.88968 -2.381974,3.76823 -0.663872,0.83987 -1.581738,0.95701 -1.581738,1.0742 0,0.0977 0.195215,0.19522 0.527236,0.19522 0.429544,0 0.566115,-0.15617 1.151789,-0.23416 0.429864,-0.0586 0.664156,-0.0782 0.879017,-0.50773 0.624666,-1.28889 1.503562,-2.87068 2.733782,-5.85818 1.542532,-3.74873 2.401847,-6.09214 2.831362,-6.09214 0.234356,0 0.507506,-0.0977 0.507506,-0.27336 0,-0.21503 -0.09755,-0.23469 -0.409899,-0.23469 z m -45.979988,0.2542 c 0.89837,0 2.050244,1.4447 2.050244,1.93288 0,0.11716 -0.01926,0.15622 -0.234122,0.19522 -1.464541,0.23432 -2.519014,0.48858 -3.534374,0.48858 -0.234527,0 -0.234413,-0.0197 -0.234413,-0.11736 0,-0.2737 0.468769,-2.49937 1.952636,-2.49937 z m 22.768288,0 c 0.898547,0 2.050535,1.4447 2.050535,1.93288 0,0.11716 -0.01954,0.15622 -0.234413,0.19522 -1.464542,0.23432 -2.518901,0.48858 -3.534083,0.48858 -0.234328,0 -0.234413,-0.0197 -0.234413,-0.11736 0,-0.2737 0.468507,-2.49937 1.952345,-2.49937 z m 11.262824,0 c 0.8982,0 2.050536,1.4447 2.050536,1.93288 0,0.11716 -0.01955,0.15622 -0.234413,0.19522 -1.464542,0.23432 -2.518844,0.48858 -3.534374,0.48858 -0.234329,0 -0.234414,-0.0197 -0.234414,-0.11736 0,-0.2737 0.468422,-2.49937 1.952637,-2.49937 z m -44.420114,0.80111 c 2.446852,0 4.107995,1.57156 4.107995,3.59217 0,1.9531 -1.256995,3.12084 -2.963086,3.12084 -0.718549,0 -1.436665,-0.15726 -1.683815,-0.4268 -0.201861,-0.22459 -0.269397,-1.48162 -0.269397,-1.68382 v -4.0188 c 0,-0.49378 0.17982,-0.58365 0.808474,-0.58365 z m 11.132456,9.16466 c -0.461257,0 -0.846002,0.27826 -0.846002,0.73937 0,0.87636 1.154625,0.72011 1.154625,1.20792 0,0.19426 -0.148682,0.36194 -0.44965,0.36194 -0.202032,0 -0.457242,-0.095 -0.67083,-0.23981 L 49.898062,153.26 c 0.213382,0.14839 0.502857,0.2897 0.861247,0.2897 0.49919,0 0.914547,-0.32055 0.914547,-0.76249 0,-0.88808 -1.154646,-0.621 -1.154646,-1.21187 0,-0.19426 0.129641,-0.33511 0.381127,-0.33511 0.224761,0 0.399933,0.0763 0.594367,0.17517 l 0.163899,-0.3278 c -0.220781,-0.13701 -0.484022,-0.23243 -0.758266,-0.23243 z m 9.205037,0 c -0.784991,0 -1.135414,0.5603 -1.135414,1.34529 0,0.74692 0.346642,1.34929 1.135414,1.34929 0.788772,0 1.135697,-0.60237 1.135697,-1.34929 0,-0.78499 -0.350707,-1.34529 -1.135697,-1.34529 z m 6.119218,0 c -0.784991,0 -1.170105,0.56406 -1.170105,1.34925 0,0.80015 0.35097,1.3453 1.154881,1.3453 0.350593,0 0.67837,-0.1451 0.945016,-0.38899 l -0.232451,-0.29703 c -0.213382,0.1944 -0.457185,0.3007 -0.689722,0.3007 -0.484044,0 -0.712856,-0.34646 -0.712856,-0.96391 0,-0.61349 0.24415,-0.96027 0.705237,-0.96027 0.247697,0 0.43061,0.0878 0.632463,0.2553 l 0.236382,-0.30493 c -0.274421,-0.22497 -0.544948,-0.33542 -0.868817,-0.33542 z m 9.921418,0 c -0.785161,0 -1.135406,0.5603 -1.135406,1.34529 0,0.74692 0.346634,1.34929 1.135406,1.34929 0.788772,0 1.135698,-0.60237 1.135698,-1.34929 0,-0.78499 -0.350707,-1.34529 -1.135698,-1.34529 z m -36.465516,0.0381 -0.438378,0.046 v 2.56846 h 0.453574 v -1.75294 h 0.0076 l 1.101297,1.75294 h 0.403978 v -2.6105 h -0.453597 v 1.71514 h -0.0113 l -1.063194,-1.71907 z m 5.817732,0 v 2.61446 h 1.585348 l 0.0344,-0.38506 h -1.166203 v -0.73911 h 0.979453 v -0.38506 h -0.979453 v -0.72014 h 1.101297 v -0.38506 z m 16.326238,0 v 2.61446 h 0.45334 v -1.12417 h 0.960568 v -0.38505 h -0.960568 v -0.72014 h 1.07082 v -0.38506 z m 7.010737,0 -0.52949,0.042 -0.918498,2.57242 h 0.423154 l 0.216936,-0.62909 h 1.051935 l 0.21722,0.62909 h 0.465159 L 68.8352,150.89321 Z m 4.358613,0 v 2.61446 h 0.453346 v -1.12417 h 0.960533 v -0.38505 h -0.960533 v -0.72014 h 1.071112 v -0.38506 z m 7.140356,0 -0.438385,0.046 v 2.56846 h 0.453347 v -1.75294 h 0.0079 l 1.101016,1.75294 h 0.403977 v -2.6105 h -0.453357 v 1.71514 h -0.01151 l -1.062969,-1.71907 z m 4.369796,0 -0.529773,0.042 -0.918506,2.57242 h 0.423161 l 0.217227,-0.62909 h 1.051608 l 0.217221,0.62909 h 0.465187 l -0.926096,-2.61446 z m -48.023701,0.004 v 1.70328 c 0,0.58698 0.323819,0.94927 0.964229,0.94927 0.636194,0 0.960241,-0.36221 0.960241,-0.95294 v -1.69961 h -0.453631 v 1.73009 c 0,0.32407 -0.136891,0.53712 -0.506639,0.53712 -0.3735,0 -0.510853,-0.21319 -0.510853,-0.54105 v -1.72616 h -0.45329 z m 5.174287,0 v 2.61052 h 0.453339 v -2.61053 z m 0.899031,0 0.899294,2.61052 h 0.499012 l 0.903275,-2.61052 H 44.60913 l -0.499012,1.45956 c 0,0 -0.04947,0.14846 -0.179096,0.59438 h -0.02289 c -0.125831,-0.44593 -0.175193,-0.5983 -0.175193,-0.5983 l -0.499304,-1.45565 z m 4.96448,0 v 2.61052 h 0.453339 v -1.04433 H 48.3886 c 0.163936,0 0.259226,0.15272 0.335405,0.30891 l 0.361915,0.73539 h 0.499304 l -0.499304,-0.94132 c -0.03035,-0.061 -0.07617,-0.12976 -0.159941,-0.17939 v -0.007 c 0.342853,-0.12961 0.491671,-0.39626 0.491671,-0.70858 0,-0.45352 -0.285943,-0.77381 -0.861504,-0.77381 h -0.838084 z m 4.495823,0 v 2.61052 h 0.453347 v -2.61053 z m 0.97521,0 v 0.38875 h 0.689977 v 2.22177 h 0.453347 v -2.22576 h 0.659244 l 0.03447,-0.38476 z m 2.133751,0 0.823179,1.49371 v 1.11681 h 0.453311 v -1.11684 l 0.823471,-1.49349 h -0.499595 l -0.369542,0.74334 c 0,0 -0.0457,0.095 -0.175165,0.38477 h -0.0113 c -0.137388,-0.28976 -0.187041,-0.38477 -0.187041,-0.38477 l -0.346698,-0.74334 h -0.510563 z m 14.806123,0 v 2.61052 h 1.543314 l 0.0344,-0.38506 h -1.12417 v -2.22546 z m 2.019213,0 v 2.61052 H 72.6015 v -2.61053 z m 5.524531,0 v 2.61052 h 0.45361 v -1.04433 h 0.21722 c 0.163729,0 0.259204,0.15272 0.335376,0.30891 l 0.361944,0.73539 h 0.499332 l -0.499304,-0.94132 c -0.03035,-0.061 -0.07617,-0.12976 -0.159941,-0.17939 v -0.007 c 0.342825,-0.12961 0.491678,-0.39626 0.491678,-0.70858 0,-0.45352 -0.285979,-0.77381 -0.861511,-0.77381 z m 4.759047,0 v 2.61052 h 0.453346 v -2.61053 z m -22.327048,0.34302 c 0.449757,0 0.666899,0.39248 0.666899,0.96027 0,0.56779 -0.220753,0.96392 -0.666899,0.96392 -0.449537,0 -0.670517,-0.3963 -0.670517,-0.9679 0,-0.5678 0.22098,-0.95629 0.670517,-0.95629 z m 16.040288,0 c 0.449736,0 0.666871,0.39248 0.666871,0.96027 0,0.56779 -0.220923,0.96392 -0.666871,0.96392 -0.449736,0 -0.670545,-0.3963 -0.670545,-0.9679 0,-0.5678 0.220838,-0.95629 0.670545,-0.95629 z m -27.973627,0.0457 h 0.3735 c 0.308716,0 0.407908,0.14481 0.407908,0.38873 0,0.2477 -0.12586,0.40762 -0.400281,0.40762 h -0.381127 z m 29.954857,0 h 0.373508 c 0.308737,0 0.407929,0.14481 0.407929,0.38873 0,0.2477 -0.125888,0.40762 -0.40031,0.40762 h -0.381127 z m -9.582346,0.0686 h 0.0076 c 0.179095,0.54104 0.209594,0.62481 0.209594,0.62481 l 0.201974,0.57551 H 68.13595 l 0.201974,-0.57548 c 0,0 0.03063,-0.0838 0.205934,-0.62484 z m 15.868765,0 h 0.0076 c 0.179096,0.54104 0.209885,0.62481 0.209885,0.62481 l 0.201684,0.57551 h -0.827075 l 0.202266,-0.57548 c 0,0 0.03035,-0.0838 0.205642,-0.62484 z"
       id="path1-1"
       style="stroke-width:0.289;stroke-dasharray:none;fill:#e3e3e3;fill-opacity:1" /><g
       style="overflow:visible"
       id="g4"
       transform="matrix(0.20216573,0,0,0.20216573,157.51261,133.02655)"><g
         id="Hintergrund">
		<g
   id="g9">
			<path
   fill-rule="evenodd"
   clip-rule="evenodd"
   fill="#9b0a7d"
   d="M 6.8697981,27.439711 H 176.9478 v 57.26 H 6.8697981 Z"
   id="path1-2" />
			<path
   fill-rule="evenodd"
   clip-rule="evenodd"
   fill="#ffffff"
   d="m 119.1218,27.439711 h 2.268 v 40.819 h -2.268 z"
   id="path2-9" />
			<path
   fill-rule="evenodd"
   clip-rule="evenodd"
   fill="#ffffff"
   d="m 62.428798,43.313711 h 2.268 v 41.386 h -2.268 z"
   id="path3-3" />
			<path
   fill="#ffffff"
   d="m 36.448798,68.543711 c -7.525,0 -12.805,-5.215 -12.805,-12.836 0,-7.301 5.596,-12.678 12.743,-12.678 3.509,0 7.208,0.82 9.516,3.92 l -3.509,3.479 c -0.918,-1.488 -3.193,-2.529 -5.945,-2.529 -3.858,0 -7.272,3.004 -7.272,7.809 0,4.553 2.847,8.061 7.526,8.061 1.359,0 4.456,-0.281 6.29,-3.633 l 3.796,2.846 c -2.815,4.549 -6.989,5.561 -10.34,5.561 z"
   id="path4-1" />
			<path
   fill="#ffffff"
   d="m 148.7148,68.462711 c -7.24,0 -10.215,-4.456 -10.215,-9.987 v -14.799 h 5.567 v 14.352 c 0,3.797 1.328,5.504 4.679,5.504 3.32,0 4.395,-1.74 4.395,-5.504 v -14.352 h 5.563 v 14.799 c 0,5.246 -2.718,9.987 -9.989,9.987 z"
   id="path5-9" />
			<path
   fill="#ffffff"
   d="m 98.216798,68.212711 -2.561,-5.656 h -7.493 l -2.563,5.656 h -5.912 l 12.22,-25.986 12.222002,25.986 z m -6.308,-14.257 -2.166,4.584 h 4.333 z"
   id="path6-4" />
			
			
			
		</g>
	</g></g><g
       id="g21"
       transform="matrix(0.20142047,0,0,0.20142047,102.03332,136.91501)">
	<polygon
   fill-rule="evenodd"
   clip-rule="evenodd"
   fill="#00305e"
   points="225.936,23.328 225.936,26.856 229.392,26.856 229.392,23.328 "
   id="polygon1"
   style="fill:#e3e3e3;fill-opacity:1" />
	<polygon
   fill-rule="evenodd"
   clip-rule="evenodd"
   fill="#00305e"
   points="235.368,23.328 235.368,26.856 238.824,26.856 238.824,23.328 "
   id="polygon2"
   style="fill:#e3e3e3;fill-opacity:1" />
	<path
   fill-rule="evenodd"
   clip-rule="evenodd"
   fill="#00305e"
   d="m 182.304,47.088 -4.464,-8.713 c 1.943,-0.646 3.6,-2.447 3.6,-5.255 0,-3.312 -2.376,-6.12 -6.48,-6.12 h -7.848 V 47.088 H 171 v -8.064 h 2.809 l 3.96,8.064 z M 177.552,33.12 c 0,1.584 -1.152,2.664 -2.809,2.664 H 171 v -5.328 h 3.744 c 1.656,0 2.808,1.152 2.808,2.664 z"
   id="path2-50"
   style="fill:#e3e3e3;fill-opacity:1" />
	<path
   fill-rule="evenodd"
   clip-rule="evenodd"
   fill="#00305e"
   d="M 241.2,47.088 233.856,27 h -3.024 l -7.344,20.088 h 4.104 l 1.224,-3.6 h 7.128 l 1.152,3.6 z m -6.336,-6.912 h -4.968 l 2.52,-7.272 z"
   id="path3-36"
   style="fill:#e3e3e3;fill-opacity:1" />
	<path
   fill-rule="evenodd"
   clip-rule="evenodd"
   fill="#00305e"
   d="M 100.008,40.176 V 27 H 96.12 v 13.031 c 0,2.305 -1.44,3.672 -3.528,3.672 -2.088,0 -3.456,-1.367 -3.456,-3.672 V 27 h -3.888 v 13.176 c 0,4.248 3.24,7.057 7.344,7.057 4.104,0 7.416,-2.809 7.416,-7.057 z"
   id="path4-10"
   style="fill:#e3e3e3;fill-opacity:1" />
	<polygon
   fill-rule="evenodd"
   clip-rule="evenodd"
   fill="#00305e"
   points="115.992,27 115.992,39.24 108.072,27 104.544,27 104.544,47.088 108.504,47.088 108.504,34.704 116.424,47.088 119.952,47.088 119.952,27 "
   id="polygon4"
   style="fill:#e3e3e3;fill-opacity:1" />
	<polygon
   fill-rule="evenodd"
   clip-rule="evenodd"
   fill="#00305e"
   points="128.592,47.088 128.592,27 124.632,27 124.632,47.088 "
   id="polygon5"
   style="fill:#e3e3e3;fill-opacity:1" />
	<polygon
   fill-rule="evenodd"
   clip-rule="evenodd"
   fill="#00305e"
   points="137.808,47.088 140.688,47.088 147.384,27 143.28,27 139.248,40.031 135.216,27 131.184,27 "
   id="polygon6"
   style="fill:#e3e3e3;fill-opacity:1" />
	<polygon
   fill-rule="evenodd"
   clip-rule="evenodd"
   fill="#00305e"
   points="163.152,47.016 163.152,43.561 153.864,43.561 153.864,38.664 161.784,38.664 161.784,35.208 153.864,35.208 153.864,30.456 163.152,30.456 163.152,27 149.976,27 149.976,47.016 "
   id="polygon7"
   style="fill:#e3e3e3;fill-opacity:1" />
	<path
   fill-rule="evenodd"
   clip-rule="evenodd"
   fill="#00305e"
   d="m 198.648,41.111 c 0,-1.727 -0.504,-3.24 -1.584,-4.248 -0.792,-0.792 -1.944,-1.296 -3.816,-1.512 l -2.376,-0.36 c -0.792,-0.144 -1.439,-0.432 -1.872,-0.792 -0.359,-0.36 -0.575,-0.936 -0.575,-1.44 0,-1.368 1.008,-2.52 3.096,-2.52 1.368,0 2.88,0.144 4.104,1.368 l 2.521,-2.448 c -1.729,-1.656 -3.744,-2.376 -6.48,-2.376 -4.319,0 -6.983,2.52 -6.983,6.12 0,1.656 0.432,2.952 1.439,3.96 0.864,0.865 2.16,1.369 3.889,1.656 l 2.376,0.359 c 0.936,0.145 1.439,0.289 1.8,0.648 0.432,0.432 0.647,1.008 0.647,1.729 0,1.584 -1.296,2.447 -3.6,2.447 -1.8,0 -3.528,-0.432 -4.824,-1.654 l -2.52,2.52 c 1.943,2.016 4.248,2.664 7.344,2.664 4.174,0 7.414,-2.232 7.414,-6.121 z"
   id="path7-6"
   style="fill:#e3e3e3;fill-opacity:1" />
	<polygon
   fill-rule="evenodd"
   clip-rule="evenodd"
   fill="#00305e"
   points="206.352,47.088 206.352,27 202.464,27 202.464,47.088 "
   id="polygon8"
   style="fill:#e3e3e3;fill-opacity:1" />
	<polygon
   fill-rule="evenodd"
   clip-rule="evenodd"
   fill="#00305e"
   points="214.992,30.456 214.992,47.016 218.88,47.016 218.88,30.456 224.136,30.456 224.136,27 209.736,27 209.736,30.456 "
   id="polygon9"
   style="fill:#e3e3e3;fill-opacity:1" />
	<polygon
   fill-rule="evenodd"
   clip-rule="evenodd"
   fill="#00305e"
   points="245.88,30.456 245.88,47.088 249.768,47.088 249.768,30.456 255.024,30.456 255.024,27 240.624,27 240.624,30.456 "
   id="polygon10"
   style="fill:#e3e3e3;fill-opacity:1" />
	<path
   fill-rule="evenodd"
   clip-rule="evenodd"
   fill="#00305e"
   d="m 99.792,63.648 c 0,-3.025 0.288,-5.76 -2.016,-7.992 -1.296,-1.369 -3.168,-1.945 -5.256,-1.945 h -7.272 v 20.09 h 7.272 c 2.088,0 3.96,-0.576 5.256,-1.945 2.304,-2.233 2.016,-5.184 2.016,-8.208 z m -3.888,0 c 0,3.096 -0.144,4.535 -0.864,5.4 -0.648,0.791 -1.584,1.223 -2.88,1.223 H 89.208 V 57.24 h 2.952 c 1.296,0 2.232,0.432 2.88,1.225 0.72,0.863 0.864,2.158 0.864,5.183 z"
   id="path10-3"
   style="fill:#e3e3e3;fill-opacity:1" />
	<path
   fill-rule="evenodd"
   clip-rule="evenodd"
   fill="#00305e"
   d="m 119.16,73.801 -4.464,-8.641 c 1.944,-0.721 3.672,-2.449 3.672,-5.256 0,-3.385 -2.448,-6.193 -6.552,-6.193 h -7.848 v 20.09 h 3.888 v -7.992 h 2.88 l 3.888,7.992 z m -4.752,-13.897 c 0,1.512 -1.08,2.592 -2.808,2.592 h -3.744 V 57.24 h 3.744 c 1.728,0 2.808,1.08 2.808,2.664 z"
   id="path11-2"
   style="fill:#e3e3e3;fill-opacity:1" />
	<polygon
   fill-rule="evenodd"
   clip-rule="evenodd"
   fill="#00305e"
   points="135.792,73.801 135.792,70.271 126.432,70.271 126.432,65.447 134.352,65.447 134.352,61.92 126.432,61.92 126.432,57.24 135.792,57.24 135.792,53.711 122.544,53.711 122.544,73.801 "
   id="polygon11"
   style="fill:#e3e3e3;fill-opacity:1" />
	<path
   fill-rule="evenodd"
   clip-rule="evenodd"
   fill="#00305e"
   d="m 152.711,67.896 c 0,-1.801 -0.504,-3.24 -1.583,-4.248 -0.864,-0.793 -2.017,-1.297 -3.816,-1.584 l -2.376,-0.361 c -0.792,-0.07 -1.44,-0.432 -1.872,-0.791 -0.432,-0.359 -0.576,-0.936 -0.576,-1.439 0,-1.369 1.008,-2.521 3.096,-2.521 1.297,0 2.881,0.217 4.104,1.369 l 2.52,-2.449 c -1.728,-1.654 -3.743,-2.303 -6.479,-2.303 -4.393,0 -6.984,2.52 -6.984,6.047 0,1.729 0.433,3.025 1.368,3.961 0.937,0.863 2.232,1.439 3.96,1.656 l 2.376,0.359 c 0.937,0.145 1.368,0.359 1.8,0.721 0.433,0.359 0.576,0.936 0.576,1.656 0,1.654 -1.224,2.52 -3.527,2.52 -1.872,0 -3.601,-0.432 -4.824,-1.729 l -2.521,2.52 c 1.944,2.016 4.248,2.664 7.272,2.664 4.247,-0.001 7.486,-2.161 7.486,-6.048 z"
   id="path12-0"
   style="fill:#e3e3e3;fill-opacity:1" />
	<path
   fill-rule="evenodd"
   clip-rule="evenodd"
   fill="#00305e"
   d="m 171.072,63.648 c 0,-3.025 0.216,-5.76 -2.016,-7.992 -1.296,-1.369 -3.24,-1.945 -5.328,-1.945 h -7.2 v 20.09 h 7.2 c 2.088,0 4.032,-0.576 5.328,-1.945 2.232,-2.233 2.016,-5.184 2.016,-8.208 z m -3.888,0 c 0,3.096 -0.145,4.535 -0.864,5.4 -0.647,0.791 -1.584,1.223 -2.952,1.223 h -2.952 V 57.24 h 2.952 c 1.368,0 2.305,0.432 2.952,1.225 0.72,0.863 0.864,2.158 0.864,5.183 z"
   id="path13-6"
   style="fill:#e3e3e3;fill-opacity:1" />
	<polygon
   fill-rule="evenodd"
   clip-rule="evenodd"
   fill="#00305e"
   points="188.424,73.801 188.424,70.271 179.136,70.271 179.136,65.447 187.056,65.447 187.056,61.92 179.136,61.92 179.136,57.24 188.424,57.24 188.424,53.711 175.248,53.711 175.248,73.801 "
   id="polygon13"
   style="fill:#e3e3e3;fill-opacity:1" />
	<polygon
   fill-rule="evenodd"
   clip-rule="evenodd"
   fill="#00305e"
   points="203.832,53.711 203.832,66.023 195.912,53.711 192.384,53.711 192.384,73.801 196.344,73.801 196.344,61.488 204.264,73.801 207.792,73.801 207.792,53.711 "
   id="polygon14"
   style="fill:#e3e3e3;fill-opacity:1" />
	<polygon
   fill-rule="evenodd"
   clip-rule="evenodd"
   fill="#00305e"
   points="90.504,3.672 90.504,20.232 94.392,20.232 94.392,3.672 99.648,3.672 99.648,0.216 85.248,0.216 85.248,3.672 "
   id="polygon15"
   style="fill:#e3e3e3;fill-opacity:1" />
	<polygon
   fill-rule="evenodd"
   clip-rule="evenodd"
   fill="#00305e"
   points="116.496,20.232 116.496,16.776 107.136,16.776 107.136,11.88 115.056,11.88 115.056,8.424 107.136,8.424 107.136,3.672 116.496,3.672 116.496,0.216 103.248,0.216 103.248,20.232 "
   id="polygon16"
   style="fill:#e3e3e3;fill-opacity:1" />
	<path
   fill-rule="evenodd"
   clip-rule="evenodd"
   fill="#00305e"
   d="m 134.711,14.112 h -3.96 c -0.432,1.584 -1.439,2.808 -3.384,2.808 -1.08,0 -1.944,-0.36 -2.52,-1.008 -0.792,-0.864 -1.008,-1.8 -1.008,-5.688 0,-3.888 0.216,-4.824 1.008,-5.688 0.576,-0.648 1.44,-1.008 2.52,-1.008 1.944,0 2.952,1.224 3.384,2.808 h 3.96 C 133.992,2.16 131.04,0 127.296,0 c -2.16,0 -3.96,0.792 -5.4,2.232 -2.016,2.016 -1.944,4.536 -1.944,7.992 0,3.456 -0.072,5.976 1.944,7.992 1.44,1.44 3.24,2.232 5.4,2.232 3.744,0 6.696,-2.16 7.415,-6.336 z"
   id="path16-1"
   style="fill:#e3e3e3;fill-opacity:1" />
	<polygon
   fill-rule="evenodd"
   clip-rule="evenodd"
   fill="#00305e"
   points="153,20.232 153,0.216 149.112,0.216 149.112,8.424 142.272,8.424 142.272,0.216 138.384,0.216 138.384,20.232 142.272,20.232 142.272,11.88 149.112,11.88 149.112,20.232 "
   id="polygon17"
   style="fill:#e3e3e3;fill-opacity:1" />
	<polygon
   fill-rule="evenodd"
   clip-rule="evenodd"
   fill="#00305e"
   points="169.488,0.216 169.488,12.456 161.496,0.216 158.04,0.216 158.04,20.232 161.928,20.232 161.928,7.92 169.919,20.232 173.375,20.232 173.375,0.216 "
   id="polygon18"
   style="fill:#e3e3e3;fill-opacity:1" />
	<polygon
   fill-rule="evenodd"
   clip-rule="evenodd"
   fill="#00305e"
   points="182.304,20.232 182.304,0.216 178.416,0.216 178.416,20.232 "
   id="polygon19"
   style="fill:#e3e3e3;fill-opacity:1" />
	<path
   fill-rule="evenodd"
   clip-rule="evenodd"
   fill="#00305e"
   d="m 200.304,14.328 c 0,-1.728 -0.504,-3.24 -1.584,-4.248 -0.792,-0.792 -1.944,-1.296 -3.816,-1.512 l -2.376,-0.36 c -0.792,-0.144 -1.44,-0.432 -1.872,-0.792 -0.359,-0.432 -0.576,-0.936 -0.576,-1.439 0,-1.368 1.008,-2.52 3.097,-2.52 1.367,0 2.88,0.144 4.104,1.368 l 2.521,-2.448 C 198.072,0.72 196.056,0 193.32,0 c -4.32,0 -6.984,2.52 -6.984,6.12 0,1.656 0.433,2.952 1.44,3.96 0.864,0.864 2.16,1.368 3.888,1.656 l 2.376,0.36 c 0.937,0.144 1.44,0.288 1.801,0.648 0.432,0.432 0.647,1.008 0.647,1.728 0,1.584 -1.296,2.448 -3.6,2.448 -1.801,0 -3.528,-0.432 -4.824,-1.656 l -2.521,2.52 c 1.944,2.016 4.248,2.664 7.345,2.664 4.176,0 7.416,-2.232 7.416,-6.12 z"
   id="path19-5"
   style="fill:#e3e3e3;fill-opacity:1" />
	<path
   fill-rule="evenodd"
   clip-rule="evenodd"
   fill="#00305e"
   d="m 218.448,14.112 h -3.96 c -0.359,1.584 -1.439,2.808 -3.384,2.808 -1.08,0 -1.944,-0.36 -2.521,-1.008 -0.72,-0.864 -0.936,-1.8 -0.936,-5.688 0,-3.888 0.216,-4.824 0.936,-5.688 0.576,-0.648 1.44,-1.008 2.521,-1.008 1.944,0 3.024,1.224 3.384,2.808 h 3.96 C 217.728,2.16 214.848,0 211.104,0 c -2.232,0 -4.032,0.792 -5.472,2.232 -2.017,2.016 -1.944,4.536 -1.944,7.992 0,3.456 -0.072,5.976 1.944,7.992 1.439,1.44 3.239,2.232 5.472,2.232 3.672,0 6.624,-2.16 7.344,-6.336 z"
   id="path20-5"
   style="fill:#e3e3e3;fill-opacity:1" />
	<polygon
   fill-rule="evenodd"
   clip-rule="evenodd"
   fill="#00305e"
   points="236.736,20.232 236.736,0.216 232.848,0.216 232.848,8.424 226.08,8.424 226.08,0.216 222.12,0.216 222.12,20.232 226.08,20.232 226.08,11.88 232.848,11.88 232.848,20.232 "
   id="polygon20"
   style="fill:#e3e3e3;fill-opacity:1" />
	<polygon
   fill-rule="evenodd"
   clip-rule="evenodd"
   fill="#00305e"
   points="255.096,20.232 255.096,16.776 245.736,16.776 245.736,11.88 253.656,11.88 253.656,8.424 245.736,8.424 245.736,3.672 255.096,3.672 255.096,0.216 241.848,0.216 241.848,20.232 "
   id="polygon21"
   style="fill:#e3e3e3;fill-opacity:1" />
	<path
   fill-rule="evenodd"
   clip-rule="evenodd"
   fill="#00305e"
   d="M 4.464,29.232 H 24.552 V 52.633 H 49.104 V 29.232 H 69.12 v 20.52 L 49.536,69.336 H 24.048 L 4.464,49.752 Z M 66.96,31.464 H 51.336 V 54.863 H 22.32 V 31.464 H 6.696 V 48.889 L 24.984,67.104 H 48.672 L 66.888,48.889 Z M 66.528,24.768 48.672,6.912 H 24.984 L 7.128,24.768 h 21.888 v 23.4 H 44.64 v -23.4 z M 69.12,27 H 46.872 V 50.4 H 26.784 V 27 H 4.464 V 24.264 L 24.048,4.68 H 49.536 L 69.12,24.264 Z M 0,22.536 V 51.48 L 22.32,73.8 H 51.336 L 73.584,51.48 V 22.536 L 51.336,0.216 H 22.32 Z M 2.232,23.4 V 50.615 L 23.184,71.568 H 50.4 L 71.352,50.615 V 23.4 L 50.4,2.448 H 23.184 Z"
   id="path21-4"
   style="fill:#e3e3e3;fill-opacity:1" />
</g></g><style
     type="text/css"
     id="style1-3">
	.st0{fill:#00509E;}
</style></svg>
