<?xml version="1.0" standalone="no"?>

<svg 
     version="1.1"
     baseProfile="full"
     xmlns="http://www.w3.org/2000/svg"
     xmlns:xlink="http://www.w3.org/1999/xlink"
     xmlns:ev="http://www.w3.org/2001/xml-events"
     xmlns:klighd="http://de.cau.cs.kieler/klighd"
     x="0px"
     y="0px"
     width="126px"
     height="127px"
     viewBox="0 0 126 127"
     >
<title></title>
<desc>Creator: FreeHEP Graphics2D Driver Producer: de.cau.cs.kieler.klighd.piccolo.freehep.SemanticSVGGraphics2D Revision Source:  Date: Sunday, April 10, 2022 at 11:29:37 AM Pacific Daylight Time</desc>
<g stroke-dashoffset="0" stroke-linejoin="miter" stroke-dasharray="none" stroke-width="1" stroke-linecap="butt" stroke-miterlimit="10">
<g fill="#ffffff" fill-rule="nonzero" fill-opacity="1" stroke="none">
  <path d="M 0 0 L 126 0 L 126 127 L 0 127 L 0 0 z"/>
</g>
<g fill="#ffffff" fill-rule="nonzero" fill-opacity="1" stroke="none">
  <path d="M 0.5 8.5 L 0.5 118.5 C 0.5 122.91827799864635 4.081722001353653 126.5 8.5 126.5 L 117.5 126.5 C 121.91827799864635 126.5 125.5 122.91827799864635 125.5 118.5 L 125.5 8.5 C 125.5 4.081722001353653 121.91827799864635 0.5 117.5 0.5 L 8.5 0.5 C 4.081722001353653 0.5 0.5 4.081722001353653 0.5 8.5 z"/>
</g>
<g stroke-opacity="1" fill="none" stroke="#bebebe">
  <path d="M 0.5 8.5 L 0.5 118.5 C 0.5 122.91827799864635 4.081722001353653 126.5 8.5 126.5 L 117.5 126.5 C 121.91827799864635 126.5 125.5 122.91827799864635 125.5 118.5 L 125.5 8.5 C 125.5 4.081722001353653 121.91827799864635 0.5 117.5 0.5 L 8.5 0.5 C 4.081722001353653 0.5 0.5 4.081722001353653 0.5 8.5 z"/>
</g>
<g transform="matrix(1, 0, 0, 1, 38.5, 6)">
  <text x="0" y="10.0" font-weight="normal" font-size="10px" font-family="Helvetica" style="white-space: pre" font-style="normal" fill="#000000" fill-opacity="1" stroke="none" textLength="49.0px" lengthAdjust="spacingAndGlyphs">ChildBank</text>
</g>
<g transform="matrix(1, 0, 0, 1, 12, 30)">
<g fill="#f2f2f2" fill-rule="nonzero" fill-opacity="1" stroke="none">
  <path d="M 0.5 8.5 L 0.5 82.5 C 0.5 86.91827799864635 4.081722001353653 90.5 8.5 90.5 L 99.5 90.5 C 103.91827799864635 90.5 107.5 86.91827799864635 107.5 82.5 L 107.5 8.5 C 107.5 4.081722001353653 103.91827799864635 0.5 99.5 0.5 L 8.5 0.5 C 4.081722001353653 0.5 0.5 4.081722001353653 0.5 8.5 z"/>
</g>
</g>
<g transform="matrix(1, 0, 0, 1, 12, 30)">
<g stroke-opacity="1" fill="none" stroke="#bebebe">
  <path d="M 0.5 8.5 L 0.5 82.5 C 0.5 86.91827799864635 4.081722001353653 90.5 8.5 90.5 L 99.5 90.5 C 103.91827799864635 90.5 107.5 86.91827799864635 107.5 82.5 L 107.5 8.5 C 107.5 4.081722001353653 103.91827799864635 0.5 99.5 0.5 L 8.5 0.5 C 4.081722001353653 0.5 0.5 4.081722001353653 0.5 8.5 z"/>
</g>
</g>
<g transform="matrix(1, 0, 0, 1, 6, 21)">
<g fill="#f2f2f2" fill-rule="nonzero" fill-opacity="1" stroke="none">
  <path d="M 0.5 8.5 L 0.5 82.5 C 0.5 86.91827799864635 4.081722001353653 90.5 8.5 90.5 L 99.5 90.5 C 103.91827799864635 90.5 107.5 86.91827799864635 107.5 82.5 L 107.5 8.5 C 107.5 4.081722001353653 103.91827799864635 0.5 99.5 0.5 L 8.5 0.5 C 4.081722001353653 0.5 0.5 4.081722001353653 0.5 8.5 z"/>
</g>
</g>
<g transform="matrix(1, 0, 0, 1, 6, 21)">
<g stroke-opacity="1" fill="none" stroke="#bebebe">
  <path d="M 0.5 8.5 L 0.5 82.5 C 0.5 86.91827799864635 4.081722001353653 90.5 8.5 90.5 L 99.5 90.5 C 103.91827799864635 90.5 107.5 86.91827799864635 107.5 82.5 L 107.5 8.5 C 107.5 4.081722001353653 103.91827799864635 0.5 99.5 0.5 L 8.5 0.5 C 4.081722001353653 0.5 0.5 4.081722001353653 0.5 8.5 z"/>
</g>
</g>
<g transform="matrix(1, 0, 0, 1, 44, 27)">
  <text x="0" y="10.0" font-weight="normal" font-size="10px" font-family="Helvetica" style="white-space: pre" font-style="normal" fill="#000000" fill-opacity="1" stroke="none" textLength="32.0px" lengthAdjust="spacingAndGlyphs">Parent</text>
</g>
<g transform="matrix(1, 0, 0, 1, 18, 54)">
<g fill="#f2f2f2" fill-rule="nonzero" fill-opacity="1" stroke="none">
  <path d="M 0.5 8.5 L 0.5 43.5 C 0.5 47.918277998646346 4.081722001353653 51.5 8.5 51.5 L 81.5 51.5 C 85.91827799864635 51.5 89.5 47.918277998646346 89.5 43.5 L 89.5 8.5 C 89.5 4.081722001353653 85.91827799864635 0.5 81.5 0.5 L 8.5 0.5 C 4.081722001353653 0.5 0.5 4.081722001353653 0.5 8.5 z"/>
</g>
</g>
<g transform="matrix(1, 0, 0, 1, 18, 54)">
<g stroke-opacity="1" fill="none" stroke="#bebebe">
  <path d="M 0.5 8.5 L 0.5 43.5 C 0.5 47.918277998646346 4.081722001353653 51.5 8.5 51.5 L 81.5 51.5 C 85.91827799864635 51.5 89.5 47.918277998646346 89.5 43.5 L 89.5 8.5 C 89.5 4.081722001353653 85.91827799864635 0.5 81.5 0.5 L 8.5 0.5 C 4.081722001353653 0.5 0.5 4.081722001353653 0.5 8.5 z"/>
</g>
</g>
<g transform="matrix(1, 0, 0, 1, 12, 45)">
<g fill="#f2f2f2" fill-rule="nonzero" fill-opacity="1" stroke="none">
  <path d="M 0.5 8.5 L 0.5 43.5 C 0.5 47.918277998646346 4.081722001353653 51.5 8.5 51.5 L 81.5 51.5 C 85.91827799864635 51.5 89.5 47.918277998646346 89.5 43.5 L 89.5 8.5 C 89.5 4.081722001353653 85.91827799864635 0.5 81.5 0.5 L 8.5 0.5 C 4.081722001353653 0.5 0.5 4.081722001353653 0.5 8.5 z"/>
</g>
</g>
<g transform="matrix(1, 0, 0, 1, 12, 45)">
<g stroke-opacity="1" fill="none" stroke="#bebebe">
  <path d="M 0.5 8.5 L 0.5 43.5 C 0.5 47.918277998646346 4.081722001353653 51.5 8.5 51.5 L 81.5 51.5 C 85.91827799864635 51.5 89.5 47.918277998646346 89.5 43.5 L 89.5 8.5 C 89.5 4.081722001353653 85.91827799864635 0.5 81.5 0.5 L 8.5 0.5 C 4.081722001353653 0.5 0.5 4.081722001353653 0.5 8.5 z"/>
</g>
</g>
<g transform="matrix(1, 0, 0, 1, 44.5, 51)">
  <text x="0" y="10.0" font-weight="normal" font-size="10px" font-family="Helvetica" style="white-space: pre" font-style="normal" fill="#000000" fill-opacity="1" stroke="none" textLength="25.0px" lengthAdjust="spacingAndGlyphs">Child</text>
</g>
<g transform="matrix(1, 0, 0, 1, 18, 71)">
<g fill="#ffffff" fill-rule="nonzero" fill-opacity="1" stroke="none">
  <path d="M 17.5 9 C 17.5 13.694420373561742 13.694420373561742 17.5 9 17.5 C 4.305579626438257 17.5 0.5 13.694420373561742 0.5 9 C 0.5 4.305579626438257 4.305579626438257 0.5 9 0.5 C 13.694420373561742 0.5 17.5 4.305579626438257 17.5 9 z"/>
</g>
</g>
<g transform="matrix(1, 0, 0, 1, 18, 71)">
<g stroke-opacity="1" fill="none" stroke="#000000">
  <path d="M 17.5 9 C 17.5 13.694420373561742 13.694420373561742 17.5 9 17.5 C 4.305579626438257 17.5 0.5 13.694420373561742 0.5 9 C 0.5 4.305579626438257 4.305579626438257 0.5 9 0.5 C 13.694420373561742 0.5 17.5 4.305579626438257 17.5 9 z"/>
</g>
</g>
<g transform="matrix(1, 0, 0, 1, 51, 69)">
<g fill="#a6a6a6" fill-rule="nonzero" fill-opacity="1" stroke="none">
  <path d="M 0 0 L 39 0 L 45 11 L 39 22 L 0 22 L 6 11 z"/>
</g>
</g>
<g transform="matrix(1, 0, 0, 1, 51, 69)">
<g stroke-opacity="1" fill="none" stroke="#737373">
  <path d="M 0 0 L 39 0 L 45 11 L 39 22 L 0 22 L 6 11 z"/>
</g>
</g>
<g transform="matrix(1, 0, 0, 1, 12, 67)">
<g stroke-opacity="1" stroke-dasharray="3,1" fill="none" stroke="#000000">
  <path d="M 24 13 L 45 13"/>
</g>
</g>
<g transform="matrix(1, 0, 0, 1, 24, 98.5)">
  <text x="0" y="6.0" font-weight="normal" font-size="6px" font-family="Helvetica" style="white-space: pre" font-style="normal" fill="#000000" fill-opacity="1" stroke="none" textLength="4.0px" lengthAdjust="spacingAndGlyphs">2</text>
</g>
<g transform="matrix(1, 0, 0, 1, 18, 113.5)">
  <text x="0" y="6.0" font-weight="normal" font-size="6px" font-family="Helvetica" style="white-space: pre" font-style="normal" fill="#000000" fill-opacity="1" stroke="none" textLength="4.0px" lengthAdjust="spacingAndGlyphs">2</text>
</g>
</g>
</svg>
