<?xml version="1.0" standalone="no"?>

<svg 
     version="1.1"
     baseProfile="full"
     xmlns="http://www.w3.org/2000/svg"
     xmlns:xlink="http://www.w3.org/1999/xlink"
     xmlns:ev="http://www.w3.org/2001/xml-events"
     xmlns:klighd="http://de.cau.cs.kieler/klighd"
     x="0px"
     y="0px"
     width="304px"
     height="137px"
     viewBox="0 0 304 137"
     >
<title></title>
<desc>Creator: FreeHEP Graphics2D Driver Producer: de.cau.cs.kieler.klighd.piccolo.freehep.SemanticSVGGraphics2D Revision Source:  Date: Sunday, April 10, 2022 at 1:54:07 PM Pacific Daylight Time</desc>
<g stroke-dashoffset="0" stroke-linejoin="miter" stroke-dasharray="none" stroke-width="1" stroke-linecap="butt" stroke-miterlimit="10">
<g fill="#ffffff" fill-rule="nonzero" fill-opacity="1" stroke="none">
  <path d="M 0 0 L 304 0 L 304 137 L 0 137 L 0 0 z"/>
</g>
<g fill="#ffffff" fill-rule="nonzero" fill-opacity="1" stroke="none">
  <path d="M 0.5 8.5 L 0.5 128.5 C 0.5 132.91827799864635 4.081722001353653 136.5 8.5 136.5 L 295.5 136.5 C 299.9182779986464 136.5 303.5 132.91827799864635 303.5 128.5 L 303.5 8.5 C 303.5 4.081722001353653 299.9182779986464 0.5 295.5 0.5 L 8.5 0.5 C 4.081722001353653 0.5 0.5 4.081722001353653 0.5 8.5 z"/>
</g>
<g stroke-opacity="1" fill="none" stroke="#bebebe">
  <path d="M 0.5 8.5 L 0.5 128.5 C 0.5 132.91827799864635 4.081722001353653 136.5 8.5 136.5 L 295.5 136.5 C 299.9182779986464 136.5 303.5 132.91827799864635 303.5 128.5 L 303.5 8.5 C 303.5 4.081722001353653 299.9182779986464 0.5 295.5 0.5 L 8.5 0.5 C 4.081722001353653 0.5 0.5 4.081722001353653 0.5 8.5 z"/>
</g>
<g transform="matrix(1, 0, 0, 1, 114, 6)">
  <text x="0" y="10.0" font-weight="normal" font-size="10px" font-family="Helvetica" style="white-space: pre" font-style="normal" fill="#000000" fill-opacity="1" stroke="none" textLength="76.0px" lengthAdjust="spacingAndGlyphs">CycleWithDelay</text>
</g>
<g transform="matrix(1, 0, 0, 1, 212.6999969482422, 21)">
<g fill="#f2f2f2" fill-rule="nonzero" fill-opacity="1" stroke="none">
  <path d="M 0.5 8.5 L 0.5 47.5 C 0.5 51.918277998646346 4.081722001353653 55.5 8.5 55.5 L 55.099998474121094 55.5 C 59.51827647276744 55.5 63.099998474121094 51.918277998646346 63.099998474121094 47.5 L 63.099998474121094 8.5 C 63.099998474121094 4.081722001353653 59.51827647276744 0.5 55.099998474121094 0.5 L 8.5 0.5 C 4.081722001353653 0.5 0.5 4.081722001353653 0.5 8.5 z"/>
</g>
</g>
<g transform="matrix(1, 0, 0, 1, 212.6999969482422, 21)">
<g stroke-opacity="1" fill="none" stroke="#bebebe">
  <path d="M 0.5 8.5 L 0.5 47.5 C 0.5 51.918277998646346 4.081722001353653 55.5 8.5 55.5 L 55.099998474121094 55.5 C 59.51827647276744 55.5 63.099998474121094 51.918277998646346 63.099998474121094 47.5 L 63.099998474121094 8.5 C 63.099998474121094 4.081722001353653 59.51827647276744 0.5 55.099998474121094 0.5 L 8.5 0.5 C 4.081722001353653 0.5 0.5 4.081722001353653 0.5 8.5 z"/>
</g>
</g>
<g transform="matrix(1, 0, 0, 1, 240.99999618530273, 27)">
  <text x="0" y="10.0" font-weight="normal" font-size="10px" font-family="Helvetica" style="white-space: pre" font-style="normal" fill="#000000" fill-opacity="1" stroke="none" textLength="7.0px" lengthAdjust="spacingAndGlyphs">A</text>
</g>
<g transform="matrix(1, 0, 0, 1, 221.99999713897705, 45)">
<g fill="#a6a6a6" fill-rule="nonzero" fill-opacity="1" stroke="none">
  <path d="M 0 0 L 39 0 L 45 11 L 39 22 L 0 22 L 6 11 z"/>
</g>
</g>
<g transform="matrix(1, 0, 0, 1, 221.99999713897705, 45)">
<g stroke-opacity="1" fill="none" stroke="#737373">
  <path d="M 0 0 L 39 0 L 45 11 L 39 22 L 0 22 L 6 11 z"/>
</g>
</g>
<g transform="matrix(1, 0, 0, 1, 212.6999969482422, 43)">
<g stroke-opacity="1" stroke-dasharray="3,1" fill="none" stroke="#000000">
  <path d="M 3.299999952316284 13 L 15.300000190734863 13"/>
</g>
</g>
<g transform="matrix(1, 0, 0, 1, 212.6999969482422, 43)">
<g stroke-opacity="1" stroke-dasharray="3,1" fill="none" stroke="#000000">
  <path d="M 54.29999923706055 13 L 60.29999923706055 13"/>
</g>
</g>
<g transform="matrix(1, 0, 0, 1, 201.99999713897705, 61)">
  <text x="0" y="8.0" font-weight="normal" font-size="8px" font-family="Helvetica" style="white-space: pre" font-style="normal" fill="#000000" fill-opacity="1" stroke="none" textLength="5.0px" lengthAdjust="spacingAndGlyphs">x</text>
</g>
<g transform="matrix(1, 0, 0, 1, 207.99999713897705, 52)">
<g fill="#000000" fill-rule="nonzero" fill-opacity="1" stroke="none">
  <path d="M 0 0 L 8 4 L 0 8 z"/>
</g>
</g>
<g transform="matrix(1, 0, 0, 1, 207.99999713897705, 52)">
<g stroke-opacity="1" fill="none" stroke="#000000">
  <path d="M 0 0 L 8 4 L 0 8 z"/>
</g>
</g>
<g transform="matrix(1, 0, 0, 1, 281.99999618530273, 61)">
  <text x="0" y="8.0" font-weight="normal" font-size="8px" font-family="Helvetica" style="white-space: pre" font-style="normal" fill="#000000" fill-opacity="1" stroke="none" textLength="5.0px" lengthAdjust="spacingAndGlyphs">y</text>
</g>
<g transform="matrix(1, 0, 0, 1, 272.99999618530273, 52)">
<g fill="#000000" fill-rule="nonzero" fill-opacity="1" stroke="none">
  <path d="M 0 0 L 8 4 L 0 8 z"/>
</g>
</g>
<g transform="matrix(1, 0, 0, 1, 272.99999618530273, 52)">
<g stroke-opacity="1" fill="none" stroke="#000000">
  <path d="M 0 0 L 8 4 L 0 8 z"/>
</g>
</g>
<g transform="matrix(1, 0, 0, 1, 27.700000762939453, 21)">
<g fill="#f2f2f2" fill-rule="nonzero" fill-opacity="1" stroke="none">
  <path d="M 0.5 8.5 L 0.5 82.5 C 0.5 86.91827799864635 4.081722001353653 90.5 8.5 90.5 L 115.10000610351562 90.5 C 119.51828410216197 90.5 123.10000610351562 86.91827799864635 123.10000610351562 82.5 L 123.10000610351562 8.5 C 123.10000610351562 4.081722001353653 119.51828410216197 0.5 115.10000610351562 0.5 L 8.5 0.5 C 4.081722001353653 0.5 0.5 4.081722001353653 0.5 8.5 z"/>
</g>
</g>
<g transform="matrix(1, 0, 0, 1, 27.700000762939453, 21)">
<g stroke-opacity="1" fill="none" stroke="#bebebe">
  <path d="M 0.5 8.5 L 0.5 82.5 C 0.5 86.91827799864635 4.081722001353653 90.5 8.5 90.5 L 115.10000610351562 90.5 C 119.51828410216197 90.5 123.10000610351562 86.91827799864635 123.10000610351562 82.5 L 123.10000610351562 8.5 C 123.10000610351562 4.081722001353653 119.51828410216197 0.5 115.10000610351562 0.5 L 8.5 0.5 C 4.081722001353653 0.5 0.5 4.081722001353653 0.5 8.5 z"/>
</g>
</g>
<g transform="matrix(1, 0, 0, 1, 86.00000381469727, 27)">
  <text x="0" y="10.0" font-weight="normal" font-size="10px" font-family="Helvetica" style="white-space: pre" font-style="normal" fill="#000000" fill-opacity="1" stroke="none" textLength="7.0px" lengthAdjust="spacingAndGlyphs">B</text>
</g>
<g transform="matrix(1, 0, 0, 1, 64, 47)">
<g fill="#ffffff" fill-rule="nonzero" fill-opacity="1" stroke="none">
  <path d="M 17.5 9 C 17.5 13.694420373561742 13.694420373561742 17.5 9 17.5 C 4.305579626438257 17.5 0.5 13.694420373561742 0.5 9 C 0.5 4.305579626438257 4.305579626438257 0.5 9 0.5 C 13.694420373561742 0.5 17.5 4.305579626438257 17.5 9 z"/>
</g>
</g>
<g transform="matrix(1, 0, 0, 1, 64, 47)">
<g stroke-opacity="1" fill="none" stroke="#000000">
  <path d="M 17.5 9 C 17.5 13.694420373561742 13.694420373561742 17.5 9 17.5 C 4.305579626438257 17.5 0.5 13.694420373561742 0.5 9 C 0.5 4.305579626438257 4.305579626438257 0.5 9 0.5 C 13.694420373561742 0.5 17.5 4.305579626438257 17.5 9 z"/>
</g>
</g>
<g transform="matrix(1, 0, 0, 1, 37.000000953674316, 80)">
<g fill="#a6a6a6" fill-rule="nonzero" fill-opacity="1" stroke="none">
  <path d="M 0 0 L 39 0 L 45 11 L 39 22 L 0 22 L 6 11 z"/>
</g>
</g>
<g transform="matrix(1, 0, 0, 1, 37.000000953674316, 80)">
<g stroke-opacity="1" fill="none" stroke="#737373">
  <path d="M 0 0 L 39 0 L 45 11 L 39 22 L 0 22 L 6 11 z"/>
</g>
</g>
<g transform="matrix(1, 0, 0, 1, 57.000000953674316, 85)">
  <text x="0" y="10.0" font-weight="bold" font-size="10px" font-family="Helvetica" style="white-space: pre" font-style="normal" fill="#000000" fill-opacity="1" stroke="none" textLength="5.0px" lengthAdjust="spacingAndGlyphs">1</text>
</g>
<g transform="matrix(1, 0, 0, 1, 97.00000381469727, 45)">
<g fill="#a6a6a6" fill-rule="nonzero" fill-opacity="1" stroke="none">
  <path d="M 0 0 L 39 0 L 45 11 L 39 22 L 0 22 L 6 11 z"/>
</g>
</g>
<g transform="matrix(1, 0, 0, 1, 97.00000381469727, 45)">
<g stroke-opacity="1" fill="none" stroke="#737373">
  <path d="M 0 0 L 39 0 L 45 11 L 39 22 L 0 22 L 6 11 z"/>
</g>
</g>
<g transform="matrix(1, 0, 0, 1, 116.00000381469727, 50)">
  <text x="0" y="10.0" font-weight="bold" font-size="10px" font-family="Helvetica" style="white-space: pre" font-style="normal" fill="#000000" fill-opacity="1" stroke="none" textLength="7.0px" lengthAdjust="spacingAndGlyphs">2</text>
</g>
<g transform="matrix(1, 0, 0, 1, 27.700000762939453, 43)">
<g stroke-opacity="1" stroke-dasharray="3,1" fill="none" stroke="#000000">
  <path d="M 3.299999952316284 48 L 15.300000190734863 48"/>
</g>
</g>
<g transform="matrix(1, 0, 0, 1, 27.700000762939453, 43)">
<g stroke-opacity="1" stroke-dasharray="3,1" fill="none" stroke="#000000">
  <path d="M 54.29999923706055 13 L 75.30000305175781 13"/>
</g>
</g>
<g transform="matrix(1, 0, 0, 1, 27.700000762939453, 43)">
<g stroke-opacity="1" stroke-dasharray="3,1" fill="none" stroke="#000000">
  <path d="M 114.30000305175781 13 L 120.30000305175781 13"/>
</g>
</g>
<g transform="matrix(1, 0, 0, 1, 17.000000953674316, 96)">
  <text x="0" y="8.0" font-weight="normal" font-size="8px" font-family="Helvetica" style="white-space: pre" font-style="normal" fill="#000000" fill-opacity="1" stroke="none" textLength="5.0px" lengthAdjust="spacingAndGlyphs">x</text>
</g>
<g transform="matrix(1, 0, 0, 1, 23.000000953674316, 87)">
<g fill="#000000" fill-rule="nonzero" fill-opacity="1" stroke="none">
  <path d="M 0 0 L 8 4 L 0 8 z"/>
</g>
</g>
<g transform="matrix(1, 0, 0, 1, 23.000000953674316, 87)">
<g stroke-opacity="1" fill="none" stroke="#000000">
  <path d="M 0 0 L 8 4 L 0 8 z"/>
</g>
</g>
<g transform="matrix(1, 0, 0, 1, 157.00000381469727, 61)">
  <text x="0" y="8.0" font-weight="normal" font-size="8px" font-family="Helvetica" style="white-space: pre" font-style="normal" fill="#000000" fill-opacity="1" stroke="none" textLength="5.0px" lengthAdjust="spacingAndGlyphs">y</text>
</g>
<g transform="matrix(1, 0, 0, 1, 148.00000381469727, 52)">
<g fill="#000000" fill-rule="nonzero" fill-opacity="1" stroke="none">
  <path d="M 0 0 L 8 4 L 0 8 z"/>
</g>
</g>
<g transform="matrix(1, 0, 0, 1, 148.00000381469727, 52)">
<g stroke-opacity="1" fill="none" stroke="#000000">
  <path d="M 0 0 L 8 4 L 0 8 z"/>
</g>
</g>
<g transform="matrix(1, 0, 0, 1, 0, 22)">
<g stroke-opacity="1" fill="none" stroke="#000000">
  <path d="M 281 34 L 298 34 L 298 102 L 6 102 L 6 69 L 23 69"/>
</g>
</g>
<g transform="matrix(1, 0, 0, 1, 177, 117)">
<g fill="#ffffff" fill-rule="nonzero" fill-opacity="1" stroke="none">
  <path d="M -2 12 L 2 0 L 12 0 L 8 12 z"/>
</g>
</g>
<g transform="matrix(1, 0, 0, 1, 177, 117)">
<g stroke-opacity="1" fill="none" stroke="#ffffff">
  <path d="M -2 12 L 2 0 L 12 0 L 8 12 z"/>
</g>
</g>
<g transform="matrix(1, 0, 0, 1, 177, 117)">
<g stroke-opacity="1" fill="none" stroke="#000000">
  <path d="M -2 12 L 2 0"/>
</g>
</g>
<g transform="matrix(1, 0, 0, 1, 177, 117)">
<g stroke-opacity="1" fill="none" stroke="#000000">
  <path d="M 8 12 L 12 0"/>
</g>
</g>
<g transform="matrix(1, 0, 0, 1, 179, 118)">
  <text x="0" y="8.0" font-weight="normal" font-size="8px" font-family="Helvetica" style="white-space: pre" font-style="normal" fill="#000000" fill-opacity="1" stroke="none" textLength="6.0px" lengthAdjust="spacingAndGlyphs">0</text>
</g>
<g transform="matrix(1, 0, 0, 1, 0, 22)">
<g stroke-opacity="1" fill="none" stroke="#000000">
  <path d="M 156 34 L 208 34"/>
</g>
</g>
</g>
</svg>
