<?xml version="1.0" encoding="utf-8"?>
<!-- Generator: Adobe Illustrator 26.1.0, SVG Export Plug-In . SVG Version: 6.00 Build 0)  -->
<svg version="1.1" id="Layer_1" xmlns:ev="http://www.w3.org/2001/xml-events" xmlns:klighd="http://de.cau.cs.kieler/klighd"
	 xmlns="http://www.w3.org/2000/svg" xmlns:xlink="http://www.w3.org/1999/xlink" x="0px" y="0px" viewBox="0 0 244.4 96.5"
	 style="enable-background:new 0 0 244.4 96.5;" xml:space="preserve">
<style type="text/css">
	.st0{fill:#F2F2F2;}
	.st1{fill:none;stroke:#BEBEBE;stroke-miterlimit:10;}
	.st2{fill:none;}
	.st3{font-family:'Helvetica';}
	.st4{font-size:10px;}
	.st5{fill:#A6A6A6;}
	.st6{fill:none;stroke:#737373;stroke-miterlimit:10;}
	.st7{fill:none;stroke:#000000;stroke-miterlimit:10;stroke-dasharray:3,1;}
	.st8{font-size:8px;}
	.st9{fill:none;stroke:#000000;stroke-miterlimit:10;}
	.st10{enable-background:new    ;}
	.st11{font-family:'Helvetica-Bold';}
</style>
<desc>
	Creator: FreeHEP Graphics2D Driver Producer: de.cau.cs.kieler.klighd.piccolo.freehep.SemanticSVGGraphics2D Revision Source:  Date: Saturday, April 2, 2022 at 6:03:55 PM Pacific Daylight Time
	</desc>
<g transform="matrix(1, 0, 0, 1, 145.69999980926514, 0)">
	<g>
		<path class="st0" d="M-134.5,21v39c0,4.4,3.6,8,8,8h46.6c4.4,0,8-3.6,8-8V21c0-4.4-3.6-8-8-8h-46.6C-130.9,13-134.5,16.6-134.5,21
			z"/>
	</g>
</g>
<g transform="matrix(1, 0, 0, 1, 145.69999980926514, 0)">
	<g>
		<path class="st1" d="M-134.5,21v39c0,4.4,3.6,8,8,8h46.6c4.4,0,8-3.6,8-8V21c0-4.4-3.6-8-8-8h-46.6C-130.9,13-134.5,16.6-134.5,21
			z"/>
	</g>
</g>
<g transform="matrix(1, 0, 0, 1, 173.99999904632568, 6)">
	<rect x="-135" y="13.9" class="st2" width="7" height="13.4"/>
	<text transform="matrix(1 0 0 1 -135 22.5005)" class="st3 st4">A</text>
</g>
<g transform="matrix(1, 0, 0, 1, 155, 24)">
	<g>
		<path class="st5" d="M-135,12.5h39l6,11l-6,11h-39l6-11L-135,12.5z"/>
	</g>
</g>
<g transform="matrix(1, 0, 0, 1, 155, 24)">
	<g>
		<path class="st6" d="M-135,12.5h39l6,11l-6,11h-39l6-11L-135,12.5z"/>
	</g>
</g>
<g transform="matrix(1, 0, 0, 1, 145.69999980926514, 22)">
	<g>
		<path class="st7" d="M-131.7,25.5h12"/>
	</g>
</g>
<g transform="matrix(1, 0, 0, 1, 145.69999980926514, 22)">
	<g>
		<path class="st7" d="M-80.7,25.5h6"/>
	</g>
</g>
<g transform="matrix(1, 0, 0, 1, 135, 40)">
	<rect x="-135" y="13.6" class="st2" width="5" height="10.7"/>
	<text transform="matrix(1 0 0 1 -135 20.5)" class="st3 st8">a</text>
</g>
<g transform="matrix(1, 0, 0, 1, 141, 31)">
	<g>
		<path d="M-135,12.5l8,4l-8,4V12.5z"/>
	</g>
</g>
<g transform="matrix(1, 0, 0, 1, 141, 31)">
	<g>
		<path class="st9" d="M-135,12.5l8,4l-8,4V12.5z"/>
	</g>
</g>
<g transform="matrix(1, 0, 0, 1, 214.99999904632568, 40)">
	<rect x="-135" y="13.6" class="st2" width="13" height="10.7"/>
	<text transform="matrix(1 0 0 1 -135 20.5)" class="st10"><tspan x="0" y="0" class="st3 st8">ou</tspan><tspan x="10.8" y="0" class="st3 st8">t</tspan></text>
</g>
<g transform="matrix(1, 0, 0, 1, 205.99999904632568, 31)">
	<g>
		<path d="M-135,12.5l8,4l-8,4V12.5z"/>
	</g>
</g>
<g transform="matrix(1, 0, 0, 1, 205.99999904632568, 31)">
	<g>
		<path class="st9" d="M-135,12.5l8,4l-8,4V12.5z"/>
	</g>
</g>
<g transform="matrix(1, 0, 0, 1, 11.699999809265137, 81)">
	<g>
		<path class="st0" d="M120.9-73V7c0,4.4,3.6,8,8,8h76.6c4.4,0,8-3.6,8-8v-80c0-4.4-3.6-8-8-8h-76.6C124.5-81,120.9-77.4,120.9-73z"
			/>
	</g>
</g>
<g transform="matrix(1, 0, 0, 1, 11.699999809265137, 81)">
	<g>
		<path class="st1" d="M120.9-73V7c0,4.4,3.6,8,8,8h76.6c4.4,0,8-3.6,8-8v-80c0-4.4-3.6-8-8-8h-76.6C124.5-81,120.9-77.4,120.9-73z"
			/>
	</g>
</g>
<g transform="matrix(1, 0, 0, 1, 55.00000286102295, 87)">
	<rect x="120.4" y="-80.1" class="st2" width="7" height="13.4"/>
	<text transform="matrix(1 0 0 1 120.4 -71.4995)" class="st3 st4">B</text>
</g>
<g transform="matrix(1, 0, 0, 1, 35.999999046325684, 142)">
	<g>
		<path class="st5" d="M120.4-81.5h39l6,11l-6,11h-39l6-11L120.4-81.5z"/>
	</g>
</g>
<g transform="matrix(1, 0, 0, 1, 35.999999046325684, 142)">
	<g>
		<path class="st6" d="M120.4-81.5h39l6,11l-6,11h-39l6-11L120.4-81.5z"/>
	</g>
</g>
<g transform="matrix(1, 0, 0, 1, 54.999999046325684, 147)">
	<rect x="120.4" y="-80.1" class="st2" width="7" height="13.4"/>
	<text transform="matrix(1 0 0 1 120.4 -71.5)" class="st11 st4">2</text>
</g>
<g transform="matrix(1, 0, 0, 1, 35.999999046325684, 105)">
	<g>
		<path class="st5" d="M120.4-81.5h39l6,11l-6,11h-39l6-11L120.4-81.5z"/>
	</g>
</g>
<g transform="matrix(1, 0, 0, 1, 35.999999046325684, 105)">
	<g>
		<path class="st6" d="M120.4-81.5h39l6,11l-6,11h-39l6-11L120.4-81.5z"/>
	</g>
</g>
<g transform="matrix(1, 0, 0, 1, 55.999999046325684, 110)">
	<text transform="matrix(1 0 0 1 120.4 -71.5)" class="st11 st4">1</text>
</g>
<g transform="matrix(1, 0, 0, 1, 11.699999809265137, 103)">
	<g>
		<path class="st7" d="M123.7-56.5h13.5v21h11.5"/>
	</g>
</g>
<g transform="matrix(1, 0, 0, 1, 26.49999976158142, 126)">
	<g>
		<path d="M123.9-79.5c0,0.8-0.7,1.5-1.5,1.5c-0.8,0-1.5-0.7-1.5-1.5s0.7-1.5,1.5-1.5C123.2-81,123.9-80.3,123.9-79.5z"/>
	</g>
</g>
<g transform="matrix(1, 0, 0, 1, 26.49999976158142, 126)">
	<g>
		<path class="st9" d="M123.9-79.5c0,0.8-0.7,1.5-1.5,1.5c-0.8,0-1.5-0.7-1.5-1.5s0.7-1.5,1.5-1.5C123.2-81,123.9-80.3,123.9-79.5z"
			/>
	</g>
</g>
<g transform="matrix(1, 0, 0, 1, 11.699999809265137, 103)">
	<g>
		<path class="st7" d="M123.7-27.5h25"/>
	</g>
</g>
<g transform="matrix(1, 0, 0, 1, 11.699999809265137, 103)">
	<g>
		<path class="st7" d="M189.7-31.5h7.5v-37h13.5"/>
	</g>
</g>
<g transform="matrix(1, 0, 0, 1, 86.49999904632568, 114)">
	<g>
		<path d="M123.9-79.5c0,0.8-0.7,1.5-1.5,1.5c-0.8,0-1.5-0.7-1.5-1.5s0.7-1.5,1.5-1.5C123.2-81,123.9-80.3,123.9-79.5z"/>
	</g>
</g>
<g transform="matrix(1, 0, 0, 1, 86.49999904632568, 114)">
	<g>
		<path class="st9" d="M123.9-79.5c0,0.8-0.7,1.5-1.5,1.5c-0.8,0-1.5-0.7-1.5-1.5s0.7-1.5,1.5-1.5C123.2-81,123.9-80.3,123.9-79.5z"
			/>
	</g>
</g>
<g transform="matrix(1, 0, 0, 1, 11.699999809265137, 103)">
	<g>
		<path class="st7" d="M123.7-56.5h13.5v-12h13.5"/>
	</g>
</g>
<g transform="matrix(1, 0, 0, 1, 11.699999809265137, 103)">
	<g>
		<path class="st7" d="M189.7-68.5h21"/>
	</g>
</g>
<g transform="matrix(1, 0, 0, 1, 0, 162)">
	<rect x="120.4" y="-80.4" class="st2" width="6" height="10.7"/>
	<text transform="matrix(1 0 0 1 120.4 -73.5)" class="st3 st8">b</text>
</g>
<g transform="matrix(1, 0, 0, 1, 7, 153)">
	<g>
		<path d="M120.4-81.5l8,4l-8,4V-81.5z"/>
	</g>
</g>
<g transform="matrix(1, 0, 0, 1, 7, 153)">
	<g>
		<path class="st9" d="M120.4-81.5l8,4l-8,4V-81.5z"/>
	</g>
</g>
<g transform="matrix(1, 0, 0, 1, 1, 113)">
	<rect x="120.4" y="-80.4" class="st2" width="5" height="10.7"/>
	<text transform="matrix(1 0 0 1 120.4 -73.5)" class="st3 st8">a</text>
</g>
<g transform="matrix(1, 0, 0, 1, 7, 124)">
	<g>
		<path d="M120.4-81.5l8,4l-8,4V-81.5z"/>
	</g>
</g>
<g transform="matrix(1, 0, 0, 1, 7, 124)">
	<g>
		<path class="st9" d="M120.4-81.5l8,4l-8,4V-81.5z"/>
	</g>
</g>
<g transform="matrix(1, 0, 0, 1, 111.00000286102295, 121)">
	<rect x="120.4" y="-80.4" class="st2" width="13" height="10.7"/>
	<text transform="matrix(1 0 0 1 120.4 -73.5)" class="st10"><tspan x="0" y="0" class="st3 st8">ou</tspan><tspan x="10.8" y="0" class="st3 st8">t</tspan></text>
</g>
<g transform="matrix(1, 0, 0, 1, 102.00000286102295, 112)">
	<g>
		<path d="M120.4-81.5l8,4l-8,4V-81.5z"/>
	</g>
</g>
<g transform="matrix(1, 0, 0, 1, 102.00000286102295, 112)">
	<g>
		<path class="st9" d="M120.4-81.5l8,4l-8,4V-81.5z"/>
	</g>
</g>
</svg>
