<?xml version="1.0" standalone="no"?>

<svg 
     version="1.1"
     baseProfile="full"
     xmlns="http://www.w3.org/2000/svg"
     xmlns:xlink="http://www.w3.org/1999/xlink"
     xmlns:ev="http://www.w3.org/2001/xml-events"
     xmlns:klighd="http://de.cau.cs.kieler/klighd"
     x="0px"
     y="0px"
     width="217px"
     height="137px"
     viewBox="0 0 217 137"
     >
<title></title>
<desc>Creator: FreeHEP Graphics2D Driver Producer: de.cau.cs.kieler.klighd.piccolo.freehep.SemanticSVGGraphics2D Revision Source:  Date: Sunday, April 10, 2022 at 1:10:16 PM Pacific Daylight Time</desc>
<g stroke-dashoffset="0" stroke-linejoin="miter" stroke-dasharray="none" stroke-width="1" stroke-linecap="butt" stroke-miterlimit="10">
<g fill="#ffffff" fill-rule="nonzero" fill-opacity="1" stroke="none">
  <path d="M 0 0 L 217 0 L 217 137 L 0 137 L 0 0 z"/>
</g>
<g fill="#ffffff" fill-rule="nonzero" fill-opacity="1" stroke="none">
  <path d="M 0.5 8.5 L 0.5 128.5 C 0.5 132.91827799864635 4.081722001353653 136.5 8.5 136.5 L 208.5 136.5 C 212.91827799864635 136.5 216.5 132.91827799864635 216.5 128.5 L 216.5 8.5 C 216.5 4.081722001353653 212.91827799864635 0.5 208.5 0.5 L 8.5 0.5 C 4.081722001353653 0.5 0.5 4.081722001353653 0.5 8.5 z"/>
</g>
<g stroke-opacity="1" fill="none" stroke="#bebebe">
  <path d="M 0.5 8.5 L 0.5 128.5 C 0.5 132.91827799864635 4.081722001353653 136.5 8.5 136.5 L 208.5 136.5 C 212.91827799864635 136.5 216.5 132.91827799864635 216.5 128.5 L 216.5 8.5 C 216.5 4.081722001353653 212.91827799864635 0.5 208.5 0.5 L 8.5 0.5 C 4.081722001353653 0.5 0.5 4.081722001353653 0.5 8.5 z"/>
</g>
<g transform="matrix(1, 0, 0, 1, 81.5, 6)">
  <text x="0" y="10.0" font-weight="normal" font-size="10px" font-family="Helvetica" style="white-space: pre" font-style="normal" fill="#000000" fill-opacity="1" stroke="none" textLength="54.0px" lengthAdjust="spacingAndGlyphs">Interleaved</text>
</g>
<g transform="matrix(1, 0, 0, 1, 46.599998474121094, 30)">
<g fill="#f2f2f2" fill-rule="nonzero" fill-opacity="1" stroke="none">
  <path d="M 0.5 8.5 L 0.5 82.5 C 0.5 86.91827799864635 4.081722001353653 90.5 8.5 90.5 L 120.5 90.5 C 124.91827799864635 90.5 128.5 86.91827799864635 128.5 82.5 L 128.5 8.5 C 128.5 4.081722001353653 124.91827799864635 0.5 120.5 0.5 L 8.5 0.5 C 4.081722001353653 0.5 0.5 4.081722001353653 0.5 8.5 z"/>
</g>
</g>
<g transform="matrix(1, 0, 0, 1, 46.599998474121094, 30)">
<g stroke-opacity="1" fill="none" stroke="#bebebe">
  <path d="M 0.5 8.5 L 0.5 82.5 C 0.5 86.91827799864635 4.081722001353653 90.5 8.5 90.5 L 120.5 90.5 C 124.91827799864635 90.5 128.5 86.91827799864635 128.5 82.5 L 128.5 8.5 C 128.5 4.081722001353653 124.91827799864635 0.5 120.5 0.5 L 8.5 0.5 C 4.081722001353653 0.5 0.5 4.081722001353653 0.5 8.5 z"/>
</g>
</g>
<g transform="matrix(1, 0, 0, 1, 44.599998474121094, 27)">
<g fill="#f2f2f2" fill-rule="nonzero" fill-opacity="1" stroke="none">
  <path d="M 0.5 8.5 L 0.5 82.5 C 0.5 86.91827799864635 4.081722001353653 90.5 8.5 90.5 L 120.5 90.5 C 124.91827799864635 90.5 128.5 86.91827799864635 128.5 82.5 L 128.5 8.5 C 128.5 4.081722001353653 124.91827799864635 0.5 120.5 0.5 L 8.5 0.5 C 4.081722001353653 0.5 0.5 4.081722001353653 0.5 8.5 z"/>
</g>
</g>
<g transform="matrix(1, 0, 0, 1, 44.599998474121094, 27)">
<g stroke-opacity="1" fill="none" stroke="#bebebe">
  <path d="M 0.5 8.5 L 0.5 82.5 C 0.5 86.91827799864635 4.081722001353653 90.5 8.5 90.5 L 120.5 90.5 C 124.91827799864635 90.5 128.5 86.91827799864635 128.5 82.5 L 128.5 8.5 C 128.5 4.081722001353653 124.91827799864635 0.5 120.5 0.5 L 8.5 0.5 C 4.081722001353653 0.5 0.5 4.081722001353653 0.5 8.5 z"/>
</g>
</g>
<g transform="matrix(1, 0, 0, 1, 42.599998474121094, 24)">
<g fill="#f2f2f2" fill-rule="nonzero" fill-opacity="1" stroke="none">
  <path d="M 0.5 8.5 L 0.5 82.5 C 0.5 86.91827799864635 4.081722001353653 90.5 8.5 90.5 L 120.5 90.5 C 124.91827799864635 90.5 128.5 86.91827799864635 128.5 82.5 L 128.5 8.5 C 128.5 4.081722001353653 124.91827799864635 0.5 120.5 0.5 L 8.5 0.5 C 4.081722001353653 0.5 0.5 4.081722001353653 0.5 8.5 z"/>
</g>
</g>
<g transform="matrix(1, 0, 0, 1, 42.599998474121094, 24)">
<g stroke-opacity="1" fill="none" stroke="#bebebe">
  <path d="M 0.5 8.5 L 0.5 82.5 C 0.5 86.91827799864635 4.081722001353653 90.5 8.5 90.5 L 120.5 90.5 C 124.91827799864635 90.5 128.5 86.91827799864635 128.5 82.5 L 128.5 8.5 C 128.5 4.081722001353653 124.91827799864635 0.5 120.5 0.5 L 8.5 0.5 C 4.081722001353653 0.5 0.5 4.081722001353653 0.5 8.5 z"/>
</g>
</g>
<g transform="matrix(1, 0, 0, 1, 40.599998474121094, 21)">
<g fill="#f2f2f2" fill-rule="nonzero" fill-opacity="1" stroke="none">
  <path d="M 0.5 8.5 L 0.5 82.5 C 0.5 86.91827799864635 4.081722001353653 90.5 8.5 90.5 L 120.5 90.5 C 124.91827799864635 90.5 128.5 86.91827799864635 128.5 82.5 L 128.5 8.5 C 128.5 4.081722001353653 124.91827799864635 0.5 120.5 0.5 L 8.5 0.5 C 4.081722001353653 0.5 0.5 4.081722001353653 0.5 8.5 z"/>
</g>
</g>
<g transform="matrix(1, 0, 0, 1, 40.599998474121094, 21)">
<g stroke-opacity="1" fill="none" stroke="#bebebe">
  <path d="M 0.5 8.5 L 0.5 82.5 C 0.5 86.91827799864635 4.081722001353653 90.5 8.5 90.5 L 120.5 90.5 C 124.91827799864635 90.5 128.5 86.91827799864635 128.5 82.5 L 128.5 8.5 C 128.5 4.081722001353653 124.91827799864635 0.5 120.5 0.5 L 8.5 0.5 C 4.081722001353653 0.5 0.5 4.081722001353653 0.5 8.5 z"/>
</g>
</g>
<g transform="matrix(1, 0, 0, 1, 92.0999984741211, 27)">
  <text x="0" y="10.0" font-weight="normal" font-size="10px" font-family="Helvetica" style="white-space: pre" font-style="normal" fill="#000000" fill-opacity="1" stroke="none" textLength="26.0px" lengthAdjust="spacingAndGlyphs">Node</text>
</g>
<g transform="matrix(1, 0, 0, 1, 77, 47)">
<g fill="#ffffff" fill-rule="nonzero" fill-opacity="1" stroke="none">
  <path d="M 17.5 9 C 17.5 13.694420373561742 13.694420373561742 17.5 9 17.5 C 4.305579626438257 17.5 0.5 13.694420373561742 0.5 9 C 0.5 4.305579626438257 4.305579626438257 0.5 9 0.5 C 13.694420373561742 0.5 17.5 4.305579626438257 17.5 9 z"/>
</g>
</g>
<g transform="matrix(1, 0, 0, 1, 77, 47)">
<g stroke-opacity="1" fill="none" stroke="#000000">
  <path d="M 17.5 9 C 17.5 13.694420373561742 13.694420373561742 17.5 9 17.5 C 4.305579626438257 17.5 0.5 13.694420373561742 0.5 9 C 0.5 4.305579626438257 4.305579626438257 0.5 9 0.5 C 13.694420373561742 0.5 17.5 4.305579626438257 17.5 9 z"/>
</g>
</g>
<g transform="matrix(1, 0, 0, 1, 110, 45)">
<g fill="#a6a6a6" fill-rule="nonzero" fill-opacity="1" stroke="none">
  <path d="M 0 0 L 39 0 L 45 11 L 39 22 L 0 22 L 6 11 z"/>
</g>
</g>
<g transform="matrix(1, 0, 0, 1, 110, 45)">
<g stroke-opacity="1" fill="none" stroke="#737373">
  <path d="M 0 0 L 39 0 L 45 11 L 39 22 L 0 22 L 6 11 z"/>
</g>
</g>
<g transform="matrix(1, 0, 0, 1, 130, 50)">
  <text x="0" y="10.0" font-weight="bold" font-size="10px" font-family="Helvetica" style="white-space: pre" font-style="normal" fill="#000000" fill-opacity="1" stroke="none" textLength="5.0px" lengthAdjust="spacingAndGlyphs">1</text>
</g>
<g transform="matrix(1, 0, 0, 1, 49.99999809265137, 80)">
<g fill="#a6a6a6" fill-rule="nonzero" fill-opacity="1" stroke="none">
  <path d="M 0 0 L 39 0 L 45 11 L 39 22 L 0 22 L 6 11 z"/>
</g>
</g>
<g transform="matrix(1, 0, 0, 1, 49.99999809265137, 80)">
<g stroke-opacity="1" fill="none" stroke="#737373">
  <path d="M 0 0 L 39 0 L 45 11 L 39 22 L 0 22 L 6 11 z"/>
</g>
</g>
<g transform="matrix(1, 0, 0, 1, 68.99999809265137, 85)">
  <text x="0" y="10.0" font-weight="bold" font-size="10px" font-family="Helvetica" style="white-space: pre" font-style="normal" fill="#000000" fill-opacity="1" stroke="none" textLength="7.0px" lengthAdjust="spacingAndGlyphs">2</text>
</g>
<g transform="matrix(1, 0, 0, 1, 40.599998474121094, 43)">
<g stroke-opacity="1" stroke-dasharray="3,1" fill="none" stroke="#000000">
  <path d="M 54.400001525878906 13 L 75.4000015258789 13"/>
</g>
</g>
<g transform="matrix(1, 0, 0, 1, 40.599998474121094, 43)">
<g stroke-opacity="1" stroke-dasharray="3,1" fill="none" stroke="#000000">
  <path d="M 114.4000015258789 13 L 126.4000015258789 13"/>
</g>
</g>
<g transform="matrix(1, 0, 0, 1, 40.599998474121094, 43)">
<g stroke-opacity="1" stroke-dasharray="3,1" fill="none" stroke="#000000">
  <path d="M 3.4000000953674316 48 L 15.399999618530273 48"/>
</g>
</g>
<g transform="matrix(1, 0, 0, 1, 52.599998474121094, 113.5)">
  <text x="0" y="6.0" font-weight="normal" font-size="6px" font-family="Helvetica" style="white-space: pre" font-style="normal" fill="#000000" fill-opacity="1" stroke="none" textLength="5.0px" lengthAdjust="spacingAndGlyphs">4</text>
</g>
<g transform="matrix(1, 0, 0, 1, 15.999998569488525, 96)">
  <text x="0" y="8.0" font-weight="normal" font-size="8px" font-family="Helvetica" style="white-space: pre" font-style="normal" fill="#000000" fill-opacity="1" stroke="none" textLength="19.0px" lengthAdjust="spacingAndGlyphs">in[4]</text>
</g>
<g transform="matrix(1, 0, 0, 1, 35.999998569488525, 87)">
<g fill="#ffffff" fill-rule="nonzero" fill-opacity="1" stroke="none">
  <path d="M 0 0.6000000238418579 L 6.800000190734863 4 L 0 7.400000095367432 z"/>
</g>
</g>
<g transform="matrix(1, 0, 0, 1, 35.999998569488525, 87)">
<g stroke-opacity="1" stroke-width="2.200000047683716" fill="none" stroke="#000000">
  <path d="M 0 0.6000000238418579 L 6.800000190734863 4 L 0 7.400000095367432 z"/>
</g>
</g>
<g transform="matrix(1, 0, 0, 1, 176, 61)">
  <text x="0" y="8.0" font-weight="normal" font-size="8px" font-family="Helvetica" style="white-space: pre" font-style="normal" fill="#000000" fill-opacity="1" stroke="none" textLength="25.0px" lengthAdjust="spacingAndGlyphs">out[4]</text>
</g>
<g transform="matrix(1, 0, 0, 1, 167, 52)">
<g fill="#ffffff" fill-rule="nonzero" fill-opacity="1" stroke="none">
  <path d="M 0 0.6000000238418579 L 6.800000190734863 4 L 0 7.400000095367432 z"/>
</g>
</g>
<g transform="matrix(1, 0, 0, 1, 167, 52)">
<g stroke-opacity="1" stroke-width="2.200000047683716" fill="none" stroke="#000000">
  <path d="M 0 0.6000000238418579 L 6.800000190734863 4 L 0 7.400000095367432 z"/>
</g>
</g>
<g transform="matrix(1, 0, 0, 1, 0, 22)">
<g stroke-opacity="1" stroke-width="2.200000047683716" fill="none" stroke="#000000" stroke-linecap="square">
  <path d="M 175 34 L 211 34 L 211 109 L 6 109 L 6 69 L 36 69"/>
</g>
</g>
</g>
</svg>
