<?xml version="1.0" standalone="no"?>

<svg 
     version="1.1"
     baseProfile="full"
     xmlns="http://www.w3.org/2000/svg"
     xmlns:xlink="http://www.w3.org/1999/xlink"
     xmlns:ev="http://www.w3.org/2001/xml-events"
     xmlns:klighd="http://de.cau.cs.kieler/klighd"
     x="0px"
     y="0px"
     width="164px"
     height="56px"
     viewBox="0 0 164 56"
     >
<title></title>
<desc>Creator: FreeHEP Graphics2D Driver Producer: de.cau.cs.kieler.klighd.piccolo.freehep.SemanticSVGGraphics2D Revision Source:  Date: Saturday, April 9, 2022 at 3:59:14 PM Pacific Daylight Time</desc>
<g stroke-dashoffset="0" stroke-linejoin="miter" stroke-dasharray="none" stroke-width="1" stroke-linecap="butt" stroke-miterlimit="10">
<g fill="#ffffff" fill-rule="nonzero" fill-opacity="1" stroke="none">
  <path d="M 0 0 L 164.00000286102295 0 L 164.00000286102295 56 L 0 56 L 0 0 z"/>
</g>
<g transform="matrix(1, 0, 0, 1, 10.699999809265137, 0)">
<g fill="#f2f2f2" fill-rule="nonzero" fill-opacity="1" stroke="none">
  <path d="M 0.5 8.5 L 0.5 47.5 C 0.5 51.918277998646346 4.081722001353653 55.5 8.5 55.5 L 144.8000030517578 55.5 C 149.21828105040416 55.5 152.8000030517578 51.918277998646346 152.8000030517578 47.5 L 152.8000030517578 8.5 C 152.8000030517578 4.081722001353653 149.21828105040416 0.5 144.8000030517578 0.5 L 8.5 0.5 C 4.081722001353653 0.5 0.5 4.081722001353653 0.5 8.5 z"/>
</g>
</g>
<g transform="matrix(1, 0, 0, 1, 10.699999809265137, 0)">
<g stroke-opacity="1" fill="none" stroke="#bebebe">
  <path d="M 0.5 8.5 L 0.5 47.5 C 0.5 51.918277998646346 4.081722001353653 55.5 8.5 55.5 L 144.8000030517578 55.5 C 149.21828105040416 55.5 152.8000030517578 51.918277998646346 152.8000030517578 47.5 L 152.8000030517578 8.5 C 152.8000030517578 4.081722001353653 149.21828105040416 0.5 144.8000030517578 0.5 L 8.5 0.5 C 4.081722001353653 0.5 0.5 4.081722001353653 0.5 8.5 z"/>
</g>
</g>
<g transform="matrix(1, 0, 0, 1, 64.85000133514404, 6)">
  <text x="0" y="10.0" font-weight="normal" font-size="10px" font-family="Helvetica" style="white-space: pre" font-style="normal" fill="#000000" fill-opacity="1" stroke="none" textLength="45.0px" lengthAdjust="spacingAndGlyphs">Schedule</text>
</g>
<g transform="matrix(1, 0, 0, 1, 20, 24)">
<g fill="#a6a6a6" fill-rule="nonzero" fill-opacity="1" stroke="none">
  <path d="M 0 0 L 39 0 L 45 11 L 39 22 L 0 22 L 6 11 z"/>
</g>
</g>
<g transform="matrix(1, 0, 0, 1, 20, 24)">
<g stroke-opacity="1" fill="none" stroke="#737373">
  <path d="M 0 0 L 39 0 L 45 11 L 39 22 L 0 22 L 6 11 z"/>
</g>
</g>
<g transform="matrix(1, 0, 0, 1, 40, 29)">
  <text x="0" y="10.0" font-weight="bold" font-size="10px" font-family="Helvetica" style="white-space: pre" font-style="normal" fill="#000000" fill-opacity="1" stroke="none" textLength="5.0px" lengthAdjust="spacingAndGlyphs">1</text>
</g>
<g transform="matrix(1, 0, 0, 1, 113.00000286102295, 24)">
<g fill="#a6a6a6" fill-rule="nonzero" fill-opacity="1" stroke="none">
  <path d="M 0 0 L 39 0 L 45 11 L 39 22 L 0 22 L 6 11 z"/>
</g>
</g>
<g transform="matrix(1, 0, 0, 1, 113.00000286102295, 24)">
<g stroke-opacity="1" fill="none" stroke="#737373">
  <path d="M 0 0 L 39 0 L 45 11 L 39 22 L 0 22 L 6 11 z"/>
</g>
</g>
<g transform="matrix(1, 0, 0, 1, 132.00000286102295, 29)">
  <text x="0" y="10.0" font-weight="bold" font-size="10px" font-family="Helvetica" style="white-space: pre" font-style="normal" fill="#000000" fill-opacity="1" stroke="none" textLength="7.0px" lengthAdjust="spacingAndGlyphs">2</text>
</g>
<g transform="matrix(1, 0, 0, 1, 80.00000286102295, 26)">
<g fill="#ffffff" fill-rule="nonzero" fill-opacity="1" stroke="none">
  <path d="M 9 0 L 18 18 L 0 18 z"/>
</g>
</g>
<g transform="matrix(1, 0, 0, 1, 80.00000286102295, 26)">
<g stroke-opacity="1" fill="none" stroke="#000000">
  <path d="M 9 0 L 18 18 L 0 18 z"/>
</g>
</g>
<g transform="matrix(1, 0, 0, 1, 86.50000286102295, 32.69999980926514)">
  <text x="0" y="8.0" font-weight="normal" font-size="8px" font-family="Helvetica" style="white-space: pre" font-style="normal" fill="#000000" fill-opacity="1" stroke="none" textLength="5.0px" lengthAdjust="spacingAndGlyphs">L</text>
</g>
<g transform="matrix(1, 0, 0, 1, 10.699999809265137, 22)">
<g stroke-opacity="1" stroke-dasharray="3,1" fill="none" stroke="#000000">
  <path d="M 3.299999952316284 13 L 15.300000190734863 13"/>
</g>
</g>
<g transform="matrix(1, 0, 0, 1, 10.699999809265137, 22)">
<g stroke-opacity="1" stroke-dasharray="3,1" fill="none" stroke="#000000">
  <path d="M 54.29999923706055 13 L 73.80000305175781 13"/>
</g>
</g>
<g transform="matrix(1, 0, 0, 1, 10.699999809265137, 22)">
<g stroke-opacity="1" stroke-dasharray="3,1" fill="none" stroke="#000000">
  <path d="M 82.80000305175781 13 L 108.30000305175781 13"/>
</g>
</g>
<g transform="matrix(1, 0, 0, 1, 6, 31)">
<g fill="#000000" fill-rule="nonzero" fill-opacity="1" stroke="none">
  <path d="M 0 0 L 8 4 L 0 8 z"/>
</g>
</g>
<g transform="matrix(1, 0, 0, 1, 6, 31)">
<g stroke-opacity="1" fill="none" stroke="#000000">
  <path d="M 0 0 L 8 4 L 0 8 z"/>
</g>
</g>
<g transform="matrix(1, 0, 0, 1, 0, 40)">
  <text x="0" y="8.0" font-weight="normal" font-size="8px" font-family="Helvetica" style="white-space: pre" font-style="normal" fill="#000000" fill-opacity="1" stroke="none" textLength="5.0px" lengthAdjust="spacingAndGlyphs">x</text>
</g>
</g>
</svg>
