<?xml version="1.0" standalone="no"?>

<svg 
     version="1.1"
     baseProfile="full"
     xmlns="http://www.w3.org/2000/svg"
     xmlns:xlink="http://www.w3.org/1999/xlink"
     xmlns:ev="http://www.w3.org/2001/xml-events"
     xmlns:klighd="http://de.cau.cs.kieler/klighd"
     x="0px"
     y="0px"
     width="286px"
     height="163px"
     viewBox="0 0 286 163"
     >
<title></title>
<desc>Creator: FreeHEP Graphics2D Driver Producer: de.cau.cs.kieler.klighd.piccolo.freehep.SemanticSVGGraphics2D Revision Source:  Date: Sunday, April 10, 2022 at 1:46:50 PM Pacific Daylight Time</desc>
<g stroke-dashoffset="0" stroke-linejoin="miter" stroke-dasharray="none" stroke-width="1" stroke-linecap="butt" stroke-miterlimit="10">
<g fill="#ffffff" fill-rule="nonzero" fill-opacity="1" stroke="none">
  <path d="M 0 0 L 286 0 L 286 163 L 0 163 L 0 0 z"/>
</g>
<g transform="matrix(1, 0, 0, 1, 81, 0)">
<g fill="#eecbad" fill-rule="nonzero" fill-opacity="1" stroke="none">
  <path d="M 1 2 L 1 21 C 1 21.552284749830793 1.4477152501692068 22 2 22 L 122 22 C 122.55228474983079 22 123 21.552284749830793 123 21 L 123 2 C 123 1.4477152501692068 122.55228474983079 1 122 1 L 2 1 C 1.4477152501692068 1 1 1.4477152501692068 1 2 z"/>
</g>
</g>
<g transform="matrix(1, 0, 0, 1, 81, 0)">
<g stroke-opacity="1" stroke-width="2" fill="none" stroke="#ff0000">
  <path d="M 1 2 L 1 21 C 1 21.552284749830793 1.4477152501692068 22 2 22 L 122 22 C 122.55228474983079 22 123 21.552284749830793 123 21 L 123 2 C 123 1.4477152501692068 122.55228474983079 1 122 1 L 2 1 C 1.4477152501692068 1 1 1.4477152501692068 1 2 z"/>
</g>
</g>
<g transform="matrix(1, 0, 0, 1, 84, 3)">
  <text x="0" y="6.0" font-weight="normal" font-size="6px" font-family="Helvetica" style="white-space: pre" font-style="normal" fill="#000000" fill-opacity="1" stroke="none" textLength="118.0px" lengthAdjust="spacingAndGlyphs">Reactor contains cyclic dependencies!</text>
</g>
<g transform="matrix(1, 0, 0, 1, 84, 12)">
<g stroke-opacity="1" fill="none" stroke="#000000">
  <path d="M 0.5 0.5 L 58 0.5 L 58 7.5 L 0.5 7.5 L 0.5 0.5 z"/>
</g>
</g>
<g transform="matrix(1, 0, 0, 1, 98.25, 13)">
  <text x="0" y="5.0" font-weight="normal" font-size="5px" font-family="Helvetica" style="white-space: pre" font-style="normal" fill="#000000" fill-opacity="1" stroke="none" textLength="30.0px" lengthAdjust="spacingAndGlyphs">Show Cycle</text>
</g>
<g transform="matrix(1, 0, 0, 1, 144.5, 12)">
<g stroke-opacity="1" fill="none" stroke="#000000">
  <path d="M 0.5 0.5 L 57 0.5 L 57 7.5 L 0.5 7.5 L 0.5 0.5 z"/>
</g>
</g>
<g transform="matrix(1, 0, 0, 1, 158.75, 13)">
  <text x="0" y="5.0" font-weight="normal" font-size="5px" font-family="Helvetica" style="white-space: pre" font-style="normal" fill="#000000" fill-opacity="1" stroke="none" textLength="29.0px" lengthAdjust="spacingAndGlyphs">Filter Cycle</text>
</g>
<g transform="matrix(1, 0, 0, 1, 0, 33)">
<g fill="#ffffff" fill-rule="nonzero" fill-opacity="1" stroke="none">
  <path d="M 0.5 8.5 L 0.5 121.5 C 0.5 125.91827799864635 4.081722001353653 129.5 8.5 129.5 L 277.5 129.5 C 281.9182779986464 129.5 285.5 125.91827799864635 285.5 121.5 L 285.5 8.5 C 285.5 4.081722001353653 281.9182779986464 0.5 277.5 0.5 L 8.5 0.5 C 4.081722001353653 0.5 0.5 4.081722001353653 0.5 8.5 z"/>
</g>
</g>
<g transform="matrix(1, 0, 0, 1, 0, 33)">
<g stroke-opacity="1" fill="none" stroke="#bebebe">
  <path d="M 0.5 8.5 L 0.5 121.5 C 0.5 125.91827799864635 4.081722001353653 129.5 8.5 129.5 L 277.5 129.5 C 281.9182779986464 129.5 285.5 125.91827799864635 285.5 121.5 L 285.5 8.5 C 285.5 4.081722001353653 281.9182779986464 0.5 277.5 0.5 L 8.5 0.5 C 4.081722001353653 0.5 0.5 4.081722001353653 0.5 8.5 z"/>
</g>
</g>
<g transform="matrix(1, 0, 0, 1, 129.5, 39)">
  <text x="0" y="10.0" font-weight="normal" font-size="10px" font-family="Helvetica" style="white-space: pre" font-style="normal" fill="#000000" fill-opacity="1" stroke="none" textLength="27.0px" lengthAdjust="spacingAndGlyphs">Cycle</text>
</g>
<g transform="matrix(1, 0, 0, 1, 194.6999969482422, 89)">
<g fill="#f2f2f2" fill-rule="nonzero" fill-opacity="1" stroke="none">
  <path d="M 0.5 8.5 L 0.5 47.5 C 0.5 51.918277998646346 4.081722001353653 55.5 8.5 55.5 L 55.099998474121094 55.5 C 59.51827647276744 55.5 63.099998474121094 51.918277998646346 63.099998474121094 47.5 L 63.099998474121094 8.5 C 63.099998474121094 4.081722001353653 59.51827647276744 0.5 55.099998474121094 0.5 L 8.5 0.5 C 4.081722001353653 0.5 0.5 4.081722001353653 0.5 8.5 z"/>
</g>
</g>
<g transform="matrix(1, 0, 0, 1, 194.6999969482422, 89)">
<g stroke-opacity="1" fill="none" stroke="#bebebe">
  <path d="M 0.5 8.5 L 0.5 47.5 C 0.5 51.918277998646346 4.081722001353653 55.5 8.5 55.5 L 55.099998474121094 55.5 C 59.51827647276744 55.5 63.099998474121094 51.918277998646346 63.099998474121094 47.5 L 63.099998474121094 8.5 C 63.099998474121094 4.081722001353653 59.51827647276744 0.5 55.099998474121094 0.5 L 8.5 0.5 C 4.081722001353653 0.5 0.5 4.081722001353653 0.5 8.5 z"/>
</g>
</g>
<g transform="matrix(1, 0, 0, 1, 222.99999618530273, 95)">
  <text x="0" y="10.0" font-weight="normal" font-size="10px" font-family="Helvetica" style="white-space: pre" font-style="normal" fill="#000000" fill-opacity="1" stroke="none" textLength="7.0px" lengthAdjust="spacingAndGlyphs">A</text>
</g>
<g transform="matrix(1, 0, 0, 1, 203.99999713897705, 113)">
<g fill="#a6a6a6" fill-rule="nonzero" fill-opacity="1" stroke="none">
  <path d="M 0 0 L 39 0 L 45 11 L 39 22 L 0 22 L 6 11 z"/>
</g>
</g>
<g transform="matrix(1, 0, 0, 1, 203.99999713897705, 113)">
<g stroke-opacity="1" stroke-width="2" fill="none" stroke="#ff0000">
  <path d="M 0 0 L 39 0 L 45 11 L 39 22 L 0 22 L 6 11 z"/>
</g>
</g>
<g transform="matrix(1, 0, 0, 1, 194.6999969482422, 111)">
<g stroke-opacity="1" stroke-dasharray="6,2" stroke-width="2" fill="none" stroke="#ff0000">
  <path d="M 3.299999952316284 13 L 15.300000190734863 13"/>
</g>
</g>
<g transform="matrix(1, 0, 0, 1, 194.6999969482422, 111)">
<g stroke-opacity="1" stroke-dasharray="6,2" stroke-width="2" fill="none" stroke="#ff0000">
  <path d="M 54.29999923706055 13 L 60.29999923706055 13"/>
</g>
</g>
<g transform="matrix(1, 0, 0, 1, 189.99999713897705, 120)">
<g fill="#ff0000" fill-rule="nonzero" fill-opacity="1" stroke="none">
  <path d="M 0 0 L 8 4 L 0 8 z"/>
</g>
</g>
<g transform="matrix(1, 0, 0, 1, 189.99999713897705, 120)">
<g stroke-opacity="1" stroke-width="2" fill="none" stroke="#ff0000">
  <path d="M 0 0 L 8 4 L 0 8 z"/>
</g>
</g>
<g transform="matrix(1, 0, 0, 1, 183.99999713897705, 129)">
  <text x="0" y="8.0" font-weight="normal" font-size="8px" font-family="Helvetica" style="white-space: pre" font-style="normal" fill="#000000" fill-opacity="1" stroke="none" textLength="5.0px" lengthAdjust="spacingAndGlyphs">x</text>
</g>
<g transform="matrix(1, 0, 0, 1, 254.99999618530273, 120)">
<g fill="#ff0000" fill-rule="nonzero" fill-opacity="1" stroke="none">
  <path d="M 0 0 L 8 4 L 0 8 z"/>
</g>
</g>
<g transform="matrix(1, 0, 0, 1, 254.99999618530273, 120)">
<g stroke-opacity="1" stroke-width="2" fill="none" stroke="#ff0000">
  <path d="M 0 0 L 8 4 L 0 8 z"/>
</g>
</g>
<g transform="matrix(1, 0, 0, 1, 263.99999618530273, 129)">
  <text x="0" y="8.0" font-weight="normal" font-size="8px" font-family="Helvetica" style="white-space: pre" font-style="normal" fill="#000000" fill-opacity="1" stroke="none" textLength="5.0px" lengthAdjust="spacingAndGlyphs">y</text>
</g>
<g transform="matrix(1, 0, 0, 1, 27.700000762939453, 54)">
<g fill="#f2f2f2" fill-rule="nonzero" fill-opacity="1" stroke="none">
  <path d="M 0.5 8.5 L 0.5 82.5 C 0.5 86.91827799864635 4.081722001353653 90.5 8.5 90.5 L 115.10000610351562 90.5 C 119.51828410216197 90.5 123.10000610351562 86.91827799864635 123.10000610351562 82.5 L 123.10000610351562 8.5 C 123.10000610351562 4.081722001353653 119.51828410216197 0.5 115.10000610351562 0.5 L 8.5 0.5 C 4.081722001353653 0.5 0.5 4.081722001353653 0.5 8.5 z"/>
</g>
</g>
<g transform="matrix(1, 0, 0, 1, 27.700000762939453, 54)">
<g stroke-opacity="1" fill="none" stroke="#bebebe">
  <path d="M 0.5 8.5 L 0.5 82.5 C 0.5 86.91827799864635 4.081722001353653 90.5 8.5 90.5 L 115.10000610351562 90.5 C 119.51828410216197 90.5 123.10000610351562 86.91827799864635 123.10000610351562 82.5 L 123.10000610351562 8.5 C 123.10000610351562 4.081722001353653 119.51828410216197 0.5 115.10000610351562 0.5 L 8.5 0.5 C 4.081722001353653 0.5 0.5 4.081722001353653 0.5 8.5 z"/>
</g>
</g>
<g transform="matrix(1, 0, 0, 1, 86.00000381469727, 60)">
  <text x="0" y="10.0" font-weight="normal" font-size="10px" font-family="Helvetica" style="white-space: pre" font-style="normal" fill="#000000" fill-opacity="1" stroke="none" textLength="7.0px" lengthAdjust="spacingAndGlyphs">B</text>
</g>
<g transform="matrix(1, 0, 0, 1, 64, 80)">
<g fill="#ffffff" fill-rule="nonzero" fill-opacity="1" stroke="none">
  <path d="M 17.5 9 C 17.5 13.694420373561742 13.694420373561742 17.5 9 17.5 C 4.305579626438257 17.5 0.5 13.694420373561742 0.5 9 C 0.5 4.305579626438257 4.305579626438257 0.5 9 0.5 C 13.694420373561742 0.5 17.5 4.305579626438257 17.5 9 z"/>
</g>
</g>
<g transform="matrix(1, 0, 0, 1, 64, 80)">
<g stroke-opacity="1" fill="none" stroke="#000000">
  <path d="M 17.5 9 C 17.5 13.694420373561742 13.694420373561742 17.5 9 17.5 C 4.305579626438257 17.5 0.5 13.694420373561742 0.5 9 C 0.5 4.305579626438257 4.305579626438257 0.5 9 0.5 C 13.694420373561742 0.5 17.5 4.305579626438257 17.5 9 z"/>
</g>
</g>
<g transform="matrix(1, 0, 0, 1, 37.000000953674316, 113)">
<g fill="#a6a6a6" fill-rule="nonzero" fill-opacity="1" stroke="none">
  <path d="M 0 0 L 39 0 L 45 11 L 39 22 L 0 22 L 6 11 z"/>
</g>
</g>
<g transform="matrix(1, 0, 0, 1, 37.000000953674316, 113)">
<g stroke-opacity="1" stroke-width="2" fill="none" stroke="#ff0000">
  <path d="M 0 0 L 39 0 L 45 11 L 39 22 L 0 22 L 6 11 z"/>
</g>
</g>
<g transform="matrix(1, 0, 0, 1, 57.000000953674316, 118)">
  <text x="0" y="10.0" font-weight="bold" font-size="10px" font-family="Helvetica" style="white-space: pre" font-style="normal" fill="#000000" fill-opacity="1" stroke="none" textLength="5.0px" lengthAdjust="spacingAndGlyphs">1</text>
</g>
<g transform="matrix(1, 0, 0, 1, 97.00000381469727, 78)">
<g fill="#a6a6a6" fill-rule="nonzero" fill-opacity="1" stroke="none">
  <path d="M 0 0 L 39 0 L 45 11 L 39 22 L 0 22 L 6 11 z"/>
</g>
</g>
<g transform="matrix(1, 0, 0, 1, 97.00000381469727, 78)">
<g stroke-opacity="1" stroke-width="2" fill="none" stroke="#ff0000">
  <path d="M 0 0 L 39 0 L 45 11 L 39 22 L 0 22 L 6 11 z"/>
</g>
</g>
<g transform="matrix(1, 0, 0, 1, 116.00000381469727, 83)">
  <text x="0" y="10.0" font-weight="bold" font-size="10px" font-family="Helvetica" style="white-space: pre" font-style="normal" fill="#000000" fill-opacity="1" stroke="none" textLength="7.0px" lengthAdjust="spacingAndGlyphs">2</text>
</g>
<g transform="matrix(1, 0, 0, 1, 27.700000762939453, 76)">
<g stroke-opacity="1" stroke-dasharray="6,2" stroke-width="2" fill="none" stroke="#ff0000">
  <path d="M 3.299999952316284 48 L 15.300000190734863 48"/>
</g>
</g>
<g transform="matrix(1, 0, 0, 1, 27.700000762939453, 76)">
<g stroke-opacity="1" stroke-dasharray="3,1" fill="none" stroke="#000000">
  <path d="M 54.29999923706055 13 L 75.30000305175781 13"/>
</g>
</g>
<g transform="matrix(1, 0, 0, 1, 27.700000762939453, 76)">
<g stroke-opacity="1" stroke-dasharray="2,2" stroke-width="2" fill="none" stroke="#ff0000">
  <path d="M 48.86896514892578 38.0431022644043 L 72.94285583496094 24"/>
</g>
</g>
<g transform="matrix(0.8637789034611509, -0.5038710211308562, 0.5038710211308562, 0.8637789034611509, 92.22101229208688, 101.43963143340902)">
<g fill="#ff0000" fill-rule="nonzero" fill-opacity="1" stroke="none">
  <path d="M 0 0 L 3.200000047683716 3 L 0 6 L 8 3 z"/>
</g>
</g>
<g transform="matrix(0.8637789034611509, -0.5038710211308562, 0.5038710211308562, 0.8637789034611509, 92.22101229208688, 101.43963143340902)">
<g stroke-opacity="1" stroke-linejoin="round" stroke-width="2" fill="none" stroke="#ff0000">
  <path d="M 0 0 L 3.200000047683716 3 L 0 6 L 8 3 z"/>
</g>
</g>
<g transform="matrix(1, 0, 0, 1, 27.700000762939453, 76)">
<g stroke-opacity="1" stroke-dasharray="6,2" stroke-width="2" fill="none" stroke="#ff0000">
  <path d="M 114.30000305175781 13 L 120.30000305175781 13"/>
</g>
</g>
<g transform="matrix(1, 0, 0, 1, 23.000000953674316, 120)">
<g fill="#ff0000" fill-rule="nonzero" fill-opacity="1" stroke="none">
  <path d="M 0 0 L 8 4 L 0 8 z"/>
</g>
</g>
<g transform="matrix(1, 0, 0, 1, 23.000000953674316, 120)">
<g stroke-opacity="1" stroke-width="2" fill="none" stroke="#ff0000">
  <path d="M 0 0 L 8 4 L 0 8 z"/>
</g>
</g>
<g transform="matrix(1, 0, 0, 1, 17.000000953674316, 129)">
  <text x="0" y="8.0" font-weight="normal" font-size="8px" font-family="Helvetica" style="white-space: pre" font-style="normal" fill="#000000" fill-opacity="1" stroke="none" textLength="5.0px" lengthAdjust="spacingAndGlyphs">x</text>
</g>
<g transform="matrix(1, 0, 0, 1, 148.00000381469727, 85)">
<g fill="#ff0000" fill-rule="nonzero" fill-opacity="1" stroke="none">
  <path d="M 0 0 L 8 4 L 0 8 z"/>
</g>
</g>
<g transform="matrix(1, 0, 0, 1, 148.00000381469727, 85)">
<g stroke-opacity="1" stroke-width="2" fill="none" stroke="#ff0000">
  <path d="M 0 0 L 8 4 L 0 8 z"/>
</g>
</g>
<g transform="matrix(1, 0, 0, 1, 157.00000381469727, 94)">
  <text x="0" y="8.0" font-weight="normal" font-size="8px" font-family="Helvetica" style="white-space: pre" font-style="normal" fill="#000000" fill-opacity="1" stroke="none" textLength="5.0px" lengthAdjust="spacingAndGlyphs">y</text>
</g>
<g transform="matrix(1, 0, 0, 1, 0, 55)">
<g stroke-opacity="1" stroke-width="2" fill="none" stroke="#ff0000">
  <path d="M 263 69 L 280 69 L 280 102 L 6 102 L 6 69 L 23 69"/>
</g>
</g>
<g transform="matrix(1, 0, 0, 1, 0, 55)">
<g stroke-opacity="1" stroke-width="2" fill="none" stroke="#ff0000">
  <path d="M 156 34 L 173 34 L 173 69 L 190 69"/>
</g>
</g>
<g transform="matrix(1, 0, 0, 1, -12, -12)">
<g stroke-opacity="1" stroke-dasharray="2,2" stroke-width="2" fill="none" stroke="#ff0000">
  <path d="M 155 35 L 155 45"/>
</g>
</g>
</g>
</svg>
