<?xml version="1.0" encoding="UTF-8" standalone="no"?>
<!-- Created with Inkscape (http://www.inkscape.org/) -->

<svg
   width="760"
   height="165"
   viewBox="0 0 760 165"
   version="1.1"
   id="svg1"
   xml:space="preserve"
   xmlns="http://www.w3.org/2000/svg"
   xmlns:svg="http://www.w3.org/2000/svg"><defs
     id="defs1"><linearGradient
       id="SVGID_5_"
       gradientUnits="userSpaceOnUse"
       x1="141.5723"
       y1="33.008801"
       x2="69.840401"
       y2="49.206402">
		<stop
   offset="0"
   style="stop-color:#FFFFFF"
   id="stop21" />
		<stop
   offset="1"
   style="stop-color:#0E3C6D"
   id="stop22" />
	</linearGradient><linearGradient
       id="SVGID_2_"
       gradientUnits="userSpaceOnUse"
       x1="5.4102001"
       y1="87.404297"
       x2="164.03081"
       y2="94.013802">
		<stop
   offset="0"
   style="stop-color:#5E90BC"
   id="stop3" />
		<stop
   offset="1"
   style="stop-color:#003164"
   id="stop4" />
	</linearGradient><linearGradient
       id="SVGID_3_"
       gradientUnits="userSpaceOnUse"
       x1="-12.1514"
       y1="128.82809"
       x2="171.85519"
       y2="128.82809">
		<stop
   offset="0"
   style="stop-color:#5E90BC"
   id="stop5" />
		<stop
   offset="1"
   style="stop-color:#003164"
   id="stop6" />
	</linearGradient><linearGradient
       id="SVGID_4_"
       gradientUnits="userSpaceOnUse"
       x1="-32.7798"
       y1="175.1348"
       x2="174.1783"
       y2="176.7644">
		<stop
   offset="0"
   style="stop-color:#5E90BC"
   id="stop7" />
		<stop
   offset="1"
   style="stop-color:#003164"
   id="stop8" />
	</linearGradient><linearGradient
       id="SVGID_1_"
       gradientUnits="userSpaceOnUse"
       x1="120.9727"
       y1="59.764599"
       x2="-1.0429"
       y2="293.84921"
       gradientTransform="translate(297,-179)">
	<stop
   offset="0"
   style="stop-color:#003164"
   id="stop1" />
	<stop
   offset="1"
   style="stop-color:#1B4774"
   id="stop2" />
</linearGradient></defs><g
     id="layer1"><g
       id="g1"
       transform="matrix(0.74999625,0,0,0.75,-144.18638,141.23514)"><circle
         fill="url(#SVGID_1_)"
         cx="397"
         cy="-79"
         r="100"
         id="circle2"
         style="fill:url(#SVGID_1_)" /><g
         id="g8"
         transform="translate(297,-179)">
	<linearGradient
   id="linearGradient10"
   gradientUnits="userSpaceOnUse"
   x1="5.4102001"
   y1="87.404297"
   x2="164.03081"
   y2="94.013802">
		<stop
   offset="0"
   style="stop-color:#5E90BC"
   id="stop9" />
		<stop
   offset="1"
   style="stop-color:#003164"
   id="stop10" />
	</linearGradient>
	<path
   fill="url(#SVGID_2_)"
   d="m 0,100 c 0,1.774 0.048,3.537 0.139,5.288 h 199.723 c 0.091,-1.751 0.139,-3.514 0.139,-5.288 0,-7.808 -0.896,-15.406 -2.589,-22.698 H 2.589 C 0.896,84.594 0,92.192 0,100 Z"
   id="path4-0"
   style="fill:url(#SVGID_2_)" />
	<linearGradient
   id="linearGradient12"
   gradientUnits="userSpaceOnUse"
   x1="-12.1514"
   y1="128.82809"
   x2="171.85519"
   y2="128.82809">
		<stop
   offset="0"
   style="stop-color:#5E90BC"
   id="stop11" />
		<stop
   offset="1"
   style="stop-color:#003164"
   id="stop12" />
	</linearGradient>
	<path
   fill="url(#SVGID_3_)"
   d="m 9.15,141.832 h 181.7 c 3.754,-8.139 6.446,-16.867 7.899,-26.009 H 1.251 c 1.453,9.142 4.145,17.87 7.899,26.009 z"
   id="path6-6"
   style="fill:url(#SVGID_3_)" />
	<linearGradient
   id="linearGradient14"
   gradientUnits="userSpaceOnUse"
   x1="-32.7798"
   y1="175.1348"
   x2="174.1783"
   y2="176.7644">
		<stop
   offset="0"
   style="stop-color:#5E90BC"
   id="stop13" />
		<stop
   offset="1"
   style="stop-color:#003164"
   id="stop14" />
	</linearGradient>
	<path
   fill="url(#SVGID_4_)"
   d="M 15.209,153.025 C 32.889,181.237 64.251,200 100,200 c 35.749,0 67.111,-18.763 84.791,-46.975 z"
   id="path8-8"
   style="fill:url(#SVGID_4_)" />
</g><g
         id="g22"
         transform="translate(297,-179)">
	<path
   fill="#f7941e"
   d="m 167.461,58.866 h -60.768 c -1.402,-3.516 -4.834,-6.001 -8.851,-6.001 -5.264,0 -9.53,4.267 -9.53,9.53 0,4.03 2.504,7.475 6.04,8.867 v 34.036 h 7.417 V 71.075 c 2.117,-0.959 3.82,-2.669 4.771,-4.791 h 60.92 v -7.418 z m -69.619,7.723 c -2.317,0 -4.196,-1.878 -4.196,-4.195 0,-2.317 1.879,-4.195 4.196,-4.195 2.316,0 4.195,1.878 4.195,4.195 0,2.317 -1.878,4.195 -4.195,4.195 z"
   id="path9-9" />
	<g
   id="g21">
		<path
   fill="#ffffff"
   d="m 171.5,80.901 c 0,2.312 -1.873,4.187 -4.186,4.187 -2.313,0 -4.188,-1.875 -4.188,-4.187 0,-2.313 1.875,-4.187 4.188,-4.187 2.313,0 4.186,1.875 4.186,4.187 z m -4.186,-9.695 c -5.355,0 -9.695,4.341 -9.695,9.696 0,5.354 4.34,9.695 9.695,9.695 5.354,0 9.695,-4.34 9.695,-9.695 0.001,-5.356 -4.341,-9.696 -9.695,-9.696 z"
   id="path10-2" />
		<path
   fill="#ffffff"
   d="m 102.09,138.192 c 0,2.313 -1.875,4.188 -4.186,4.188 -2.313,0 -4.188,-1.875 -4.188,-4.188 0,-2.313 1.874,-4.187 4.188,-4.187 2.311,0.001 4.186,1.875 4.186,4.187 z m -4.186,-9.694 c -5.355,0 -9.695,4.34 -9.695,9.694 0,5.355 4.34,9.694 9.695,9.694 5.354,0 9.694,-4.339 9.694,-9.694 0,-5.354 -4.34,-9.694 -9.694,-9.694 z"
   id="path11-6" />
		<rect
   x="114.871"
   y="77.302002"
   fill="#ffffff"
   width="45.318001"
   height="7.9330001"
   id="rect11" />
		<rect
   x="114.871"
   y="97.573997"
   fill="#ffffff"
   width="52.571999"
   height="7.6389999"
   id="rect12" />
		<rect
   x="59.783001"
   y="133.82201"
   fill="#ffffff"
   width="30.775"
   height="7.6389999"
   id="rect13" />
		<rect
   x="38.688999"
   y="58.813"
   fill="#ffffff"
   width="28.608999"
   height="7.6389999"
   id="rect14" />
		<rect
   x="38.881001"
   y="153.144"
   fill="#ffffff"
   width="83.648003"
   height="7.6389999"
   id="rect15" />
		<rect
   x="114.871"
   y="116.542"
   fill="#ffffff"
   width="52.59"
   height="7.6399999"
   id="rect16" />
		<rect
   x="114.871"
   y="77.302002"
   fill="#ffffff"
   width="7.7129998"
   height="25.120001"
   id="rect17" />
		<rect
   x="114.871"
   y="118.781"
   fill="#ffffff"
   width="7.7129998"
   height="41.978001"
   id="rect18" />
		<rect
   x="38.688999"
   y="58.792999"
   fill="#ffffff"
   width="7.7119999"
   height="101.965"
   id="rect19" />
		<rect
   x="159.73"
   y="99.355003"
   fill="#ffffff"
   width="7.7129998"
   height="24.82"
   id="rect20" />
		<rect
   x="59.585999"
   y="59.033001"
   fill="#ffffff"
   width="7.7119999"
   height="82.428001"
   id="rect21" />
	</g>
	<linearGradient
   id="linearGradient16"
   gradientUnits="userSpaceOnUse"
   x1="141.5723"
   y1="33.008801"
   x2="69.840401"
   y2="49.206402">
		<stop
   offset="0"
   style="stop-color:#FFFFFF"
   id="stop15" />
		<stop
   offset="1"
   style="stop-color:#0E3C6D"
   id="stop16" />
	</linearGradient>
	<path
   fill="url(#SVGID_5_)"
   d="m 68.724,54.087 c 1.761,-12.731 14.352,-22.603 29.625,-22.603 15.274,0 27.864,9.872 29.625,22.603 h 8.094 C 134.642,37.231 118.461,23.941 98.705,23.941 78.95,23.941 62.767,37.232 61.342,54.087 Z"
   id="path22"
   style="fill:url(#SVGID_5_)" />
</g></g><g
       style="fill:currentColor"
       id="g2"
       transform="matrix(13.585683,0,0,13.585683,260.12821,-26.700319)"><path
         d="m 8,4 a 0.5,0.5 0 0 1 0.5,0.5 v 3 h 3 a 0.5,0.5 0 0 1 0,1 h -3 v 3 a 0.5,0.5 0 0 1 -1,0 v -3 h -3 a 0.5,0.5 0 0 1 0,-1 h 3 v -3 A 0.5,0.5 0 0 1 8,4"
         id="path1-5"
         style="fill:#3b7da1;fill-opacity:1" /></g><g
       fill="none"
       fill-rule="evenodd"
       id="g15"
       transform="matrix(0.82051282,0,0,0.82051282,511.60287,-0.15859)"><path
         fill="#ffffff"
         d="m 99,52 h 84 V 86 H 99 Z"
         id="path1" /><path
         d="M 23,163 C 15.602,163 9.157,158.973 5.697,153 A 19.886,19.886 0 0 0 3,163 c 0,11.046 8.954,20 20,20 h 20 v -20 z"
         fill="#3ecc5f"
         id="path2" /><path
         d="M 112.98,57.376 183,53 V 43 C 183,31.954 174.046,23 163,23 H 73 l -2.5,-4.33 c -1.112,-1.925 -3.889,-1.925 -5,0 L 63,23 60.5,18.67 c -1.111,-1.925 -3.889,-1.925 -5,0 L 53,23 50.5,18.67 c -1.111,-1.925 -3.889,-1.925 -5,0 L 43,23 c -0.022,0 -0.042,0.003 -0.065,0.003 l -4.142,-4.141 c -1.57,-1.571 -4.252,-0.853 -4.828,1.294 l -1.369,5.104 -5.192,-1.392 c -2.148,-0.575 -4.111,1.389 -3.535,3.536 l 1.39,5.193 -5.102,1.367 c -2.148,0.576 -2.867,3.259 -1.296,4.83 l 4.142,4.142 C 23.003,42.957 23,42.978 23,43 l -4.33,2.5 c -1.925,1.111 -1.925,3.889 0,5 L 23,53 18.67,55.5 c -1.925,1.111 -1.925,3.889 0,5 L 23,63 18.67,65.5 c -1.925,1.111 -1.925,3.889 0,5 L 23,73 18.67,75.5 c -1.925,1.111 -1.925,3.889 0,5 L 23,83 18.67,85.5 c -1.925,1.111 -1.925,3.889 0,5 L 23,93 18.67,95.5 c -1.925,1.111 -1.925,3.889 0,5 l 4.33,2.5 -4.33,2.5 c -1.925,1.111 -1.925,3.889 0,5 l 4.33,2.5 -4.33,2.5 c -1.925,1.111 -1.925,3.889 0,5 l 4.33,2.5 -4.33,2.5 c -1.925,1.111 -1.925,3.889 0,5 l 4.33,2.5 -4.33,2.5 c -1.925,1.111 -1.925,3.889 0,5 l 4.33,2.5 -4.33,2.5 c -1.925,1.111 -1.925,3.889 0,5 l 4.33,2.5 -4.33,2.5 c -1.925,1.111 -1.925,3.889 0,5 L 23,163 c 0,11.046 8.954,20 20,20 h 120 c 11.046,0 20,-8.954 20,-20 V 83 L 112.98,78.624 A 10.645,10.645 0 0 1 103,68 c 0,-5.621 4.37,-10.273 9.98,-10.624"
         fill="#3ecc5f"
         id="path3" /><path
         fill="#3ecc5f"
         d="m 143,183 h 30 v -40 h -30 z"
         id="path4" /><path
         d="m 193,158 c -0.219,0 -0.428,0.037 -0.639,0.064 -0.038,-0.15 -0.074,-0.301 -0.116,-0.451 A 5,5 0 0 0 190.32,148 a 4.96,4.96 0 0 0 -3.016,1.036 26.531,26.531 0 0 0 -0.335,-0.336 4.955,4.955 0 0 0 1.011,-2.987 5,5 0 0 0 -9.599,-1.959 c -0.148,-0.042 -0.297,-0.077 -0.445,-0.115 0.027,-0.211 0.064,-0.42 0.064,-0.639 a 5,5 0 0 0 -5,-5 5,5 0 0 0 -5,5 c 0,0.219 0.037,0.428 0.064,0.639 -0.148,0.038 -0.297,0.073 -0.445,0.115 a 4.998,4.998 0 0 0 -9.599,1.959 c 0,1.125 0.384,2.151 1.011,2.987 -3.717,3.632 -6.031,8.693 -6.031,14.3 0,11.046 8.954,20 20,20 9.339,0 17.16,-6.41 19.361,-15.064 0.211,0.027 0.42,0.064 0.639,0.064 a 5,5 0 0 0 5,-5 5,5 0 0 0 -5,-5"
         fill="#44d860"
         id="path5" /><path
         fill="#3ecc5f"
         d="m 153,123 h 30 v -20 h -30 z"
         id="path6" /><path
         d="m 193,115.5 a 2.5,2.5 0 1 0 0,-5 c -0.109,0 -0.214,0.019 -0.319,0.032 -0.02,-0.075 -0.037,-0.15 -0.058,-0.225 A 2.501,2.501 0 0 0 191.66,105.5 c -0.569,0 -1.088,0.197 -1.508,0.518 a 6.653,6.653 0 0 0 -0.168,-0.168 c 0.314,-0.417 0.506,-0.931 0.506,-1.494 a 2.5,2.5 0 0 0 -4.8,-0.979 A 9.987,9.987 0 0 0 183,103 c -5.522,0 -10,4.478 -10,10 0,5.522 4.478,10 10,10 0.934,0 1.833,-0.138 2.69,-0.377 a 2.5,2.5 0 0 0 4.8,-0.979 c 0,-0.563 -0.192,-1.077 -0.506,-1.494 0.057,-0.055 0.113,-0.111 0.168,-0.168 0.42,0.321 0.939,0.518 1.508,0.518 a 2.5,2.5 0 0 0 0.963,-4.807 c 0.021,-0.074 0.038,-0.15 0.058,-0.225 0.105,0.013 0.21,0.032 0.319,0.032"
         fill="#44d860"
         id="path7" /><path
         d="M 63,55.5 A 2.5,2.5 0 0 1 60.5,53 c 0,-4.136 -3.364,-7.5 -7.5,-7.5 -4.136,0 -7.5,3.364 -7.5,7.5 a 2.5,2.5 0 1 1 -5,0 c 0,-6.893 5.607,-12.5 12.5,-12.5 6.893,0 12.5,5.607 12.5,12.5 A 2.5,2.5 0 0 1 63,55.5"
         fill="#000000"
         id="path8" /><path
         d="m 103,183 h 60 c 11.046,0 20,-8.954 20,-20 V 93 h -60 c -11.046,0 -20,8.954 -20,20 z"
         fill="#ffff50"
         id="path9" /><path
         d="m 168.02,124 h -50.04 a 1,1 0 1 1 0,-2 h 50.04 a 1,1 0 1 1 0,2 m 0,20 h -50.04 a 1,1 0 1 1 0,-2 h 50.04 a 1,1 0 1 1 0,2 m 0,20 h -50.04 a 1,1 0 1 1 0,-2 h 50.04 a 1,1 0 1 1 0,2 m 0,-49.814 h -50.04 a 1,1 0 1 1 0,-2 h 50.04 a 1,1 0 1 1 0,2 m 0,19.814 h -50.04 a 1,1 0 1 1 0,-2 h 50.04 a 1,1 0 1 1 0,2 m 0,20 h -50.04 a 1,1 0 1 1 0,-2 h 50.04 a 1,1 0 1 1 0,2 M 183,61.611 c -0.012,0 -0.022,-0.006 -0.034,-0.005 -3.09,0.105 -4.552,3.196 -5.842,5.923 -1.346,2.85 -2.387,4.703 -4.093,4.647 -1.889,-0.068 -2.969,-2.202 -4.113,-4.46 -1.314,-2.594 -2.814,-5.536 -5.963,-5.426 -3.046,0.104 -4.513,2.794 -5.807,5.167 -1.377,2.528 -2.314,4.065 -4.121,3.994 -1.927,-0.07 -2.951,-1.805 -4.136,-3.813 -1.321,-2.236 -2.848,-4.75 -5.936,-4.664 -2.994,0.103 -4.465,2.385 -5.763,4.4 -1.373,2.13 -2.335,3.428 -4.165,3.351 -1.973,-0.07 -2.992,-1.51 -4.171,-3.177 -1.324,-1.873 -2.816,-3.993 -5.895,-3.89 -2.928,0.1 -4.399,1.97 -5.696,3.618 -1.232,1.564 -2.194,2.802 -4.229,2.724 a 1.0006478,1.0006478 0 0 0 -0.072,2 c 3.017,0.101 4.545,-1.8 5.872,-3.487 1.177,-1.496 2.193,-2.787 4.193,-2.855 1.926,-0.082 2.829,1.115 4.195,3.045 1.297,1.834 2.769,3.914 5.731,4.021 3.103,0.104 4.596,-2.215 5.918,-4.267 1.182,-1.834 2.202,-3.417 4.15,-3.484 1.793,-0.067 2.769,1.35 4.145,3.681 1.297,2.197 2.766,4.686 5.787,4.796 3.125,0.108 4.634,-2.62 5.949,-5.035 1.139,-2.088 2.214,-4.06 4.119,-4.126 1.793,-0.042 2.728,1.595 4.111,4.33 1.292,2.553 2.757,5.445 5.825,5.556 l 0.169,0.003 c 3.064,0 4.518,-3.075 5.805,-5.794 1.139,-2.41 2.217,-4.68 4.067,-4.773 z"
         fill="#000000"
         id="path10" /><path
         fill="#3ecc5f"
         d="m 83,183 h 40 V 143 H 83 Z"
         id="path11" /><path
         d="m 143,158 c -0.219,0 -0.428,0.037 -0.639,0.064 -0.038,-0.15 -0.074,-0.301 -0.116,-0.451 A 5,5 0 0 0 140.32,148 a 4.96,4.96 0 0 0 -3.016,1.036 26.531,26.531 0 0 0 -0.335,-0.336 4.955,4.955 0 0 0 1.011,-2.987 5,5 0 0 0 -9.599,-1.959 c -0.148,-0.042 -0.297,-0.077 -0.445,-0.115 0.027,-0.211 0.064,-0.42 0.064,-0.639 a 5,5 0 0 0 -5,-5 5,5 0 0 0 -5,5 c 0,0.219 0.037,0.428 0.064,0.639 -0.148,0.038 -0.297,0.073 -0.445,0.115 a 4.998,4.998 0 0 0 -9.599,1.959 c 0,1.125 0.384,2.151 1.011,2.987 -3.717,3.632 -6.031,8.693 -6.031,14.3 0,11.046 8.954,20 20,20 9.339,0 17.16,-6.41 19.361,-15.064 0.211,0.027 0.42,0.064 0.639,0.064 a 5,5 0 0 0 5,-5 5,5 0 0 0 -5,-5"
         fill="#44d860"
         id="path12" /><path
         fill="#3ecc5f"
         d="m 83,123 h 40 V 103 H 83 Z"
         id="path13" /><path
         d="m 133,115.5 a 2.5,2.5 0 1 0 0,-5 c -0.109,0 -0.214,0.019 -0.319,0.032 -0.02,-0.075 -0.037,-0.15 -0.058,-0.225 A 2.501,2.501 0 0 0 131.66,105.5 c -0.569,0 -1.088,0.197 -1.508,0.518 a 6.653,6.653 0 0 0 -0.168,-0.168 c 0.314,-0.417 0.506,-0.931 0.506,-1.494 a 2.5,2.5 0 0 0 -4.8,-0.979 A 9.987,9.987 0 0 0 123,103 c -5.522,0 -10,4.478 -10,10 0,5.522 4.478,10 10,10 0.934,0 1.833,-0.138 2.69,-0.377 a 2.5,2.5 0 0 0 4.8,-0.979 c 0,-0.563 -0.192,-1.077 -0.506,-1.494 0.057,-0.055 0.113,-0.111 0.168,-0.168 0.42,0.321 0.939,0.518 1.508,0.518 a 2.5,2.5 0 0 0 0.963,-4.807 c 0.021,-0.074 0.038,-0.15 0.058,-0.225 0.105,0.013 0.21,0.032 0.319,0.032"
         fill="#44d860"
         id="path14" /><path
         d="m 143,41.75 c -0.16,0 -0.33,-0.02 -0.49,-0.05 a 2.52,2.52 0 0 1 -0.47,-0.14 c -0.15,-0.06 -0.29,-0.14 -0.431,-0.23 -0.13,-0.09 -0.259,-0.2 -0.38,-0.31 -0.109,-0.12 -0.219,-0.24 -0.309,-0.38 -0.09,-0.14 -0.17,-0.28 -0.231,-0.43 A 2.619,2.619 0 0 1 140.5,39.25 c 0,-0.16 0.02,-0.33 0.05,-0.49 0.03,-0.16 0.08,-0.31 0.139,-0.47 0.061,-0.15 0.141,-0.29 0.231,-0.43 0.09,-0.13 0.2,-0.26 0.309,-0.38 0.121,-0.11 0.25,-0.22 0.38,-0.31 0.141,-0.09 0.281,-0.17 0.431,-0.23 0.149,-0.06 0.31,-0.11 0.47,-0.14 0.32,-0.07 0.65,-0.07 0.98,0 0.159,0.03 0.32,0.08 0.47,0.14 0.149,0.06 0.29,0.14 0.43,0.23 0.13,0.09 0.259,0.2 0.38,0.31 0.11,0.12 0.22,0.25 0.31,0.38 0.09,0.14 0.17,0.28 0.23,0.43 0.06,0.16 0.11,0.31 0.14,0.47 0.029,0.16 0.05,0.33 0.05,0.49 0,0.66 -0.271,1.31 -0.73,1.77 -0.121,0.11 -0.25,0.22 -0.38,0.31 -0.14,0.09 -0.281,0.17 -0.43,0.23 A 2.565,2.565 0 0 1 143,41.75 m 20,-1.25 c -0.66,0 -1.3,-0.27 -1.771,-0.73 a 3.802,3.802 0 0 1 -0.309,-0.38 c -0.09,-0.14 -0.17,-0.28 -0.231,-0.43 A 2.619,2.619 0 0 1 160.5,38 c 0,-0.66 0.27,-1.3 0.729,-1.77 0.121,-0.11 0.25,-0.22 0.38,-0.31 0.141,-0.09 0.281,-0.17 0.431,-0.23 0.149,-0.06 0.31,-0.11 0.47,-0.14 0.32,-0.07 0.66,-0.07 0.98,0 0.159,0.03 0.32,0.08 0.47,0.14 0.149,0.06 0.29,0.14 0.43,0.23 0.13,0.09 0.259,0.2 0.38,0.31 0.459,0.47 0.73,1.11 0.73,1.77 0,0.16 -0.021,0.33 -0.05,0.49 -0.03,0.16 -0.08,0.32 -0.14,0.47 -0.07,0.15 -0.14,0.29 -0.23,0.43 -0.09,0.13 -0.2,0.26 -0.31,0.38 -0.121,0.11 -0.25,0.22 -0.38,0.31 -0.14,0.09 -0.281,0.17 -0.43,0.23 A 2.565,2.565 0 0 1 163,40.5"
         fill="#000000"
         id="path15" /></g></g></svg>
