<?xml version="1.0" encoding="utf-8"?>
<!-- Generator: Adobe Illustrator 26.2.1, SVG Export Plug-In . SVG Version: 6.00 Build 0)  -->
<svg version="1.1" id="Layer_1" xmlns="http://www.w3.org/2000/svg" xmlns:xlink="http://www.w3.org/1999/xlink" x="0px" y="0px"
	 viewBox="0 0 186 279" style="enable-background:new 0 0 186 279;" xml:space="preserve">
<style type="text/css">
	.st0{fill:#FFFFFF;fill-opacity:0.24;}
	.st1{fill:none;stroke:#000000;stroke-opacity:0.13;}
	.st2{fill:none;stroke:#E2E2E2;}
	.st3{opacity:0.6;fill:#FCFCFC;fill-opacity:0.3;enable-background:new    ;}
	.st4{fill:none;stroke:#FFFFFF;stroke-opacity:0.2;}
	.st5{fill:none;stroke:#FFFFFF;stroke-opacity:0.17;}
	.st6{font-family:'MyriadPro-Regular';}
	.st7{font-size:14px;}
	.st8{fill:url(#SVGID_1_);}
	.st9{fill:#C48200;}
	.st10{fill:#003164;}
</style>
<path class="st0" d="M2,29h184v250H2V29z"/>
<path class="st1" d="M186,1H6C3.2,1,1,3.2,1,6v272"/>
<line class="st2" x1="1" y1="28.5" x2="186" y2="28.5"/>
<path class="st3" d="M1.5,6.5c0-2.8,2.2-5,5-5H186V28H1.5V6.5z"/>
<path class="st4" d="M-2.2,32.2h186v214"/>
<path class="st5" d="M184.2,35.2h1.5v211"/>
<path class="st5" d="M186.2,39.2h1.5v207"/>
<text transform="matrix(1 0 0 1 8.75 47.8223)" class="st6 st7">Welcome to Lingua Franca</text>
<g>
	<g>
		<g>
			
				<linearGradient id="SVGID_1_" gradientUnits="userSpaceOnUse" x1="139.5332" y1="92.1968" x2="81.552" y2="92.1968" gradientTransform="matrix(-1 0 0 1 196.4404 0)">
				<stop  offset="0" style="stop-color:#FFFFFF"/>
				<stop  offset="1" style="stop-color:#003164"/>
			</linearGradient>
			<path class="st8" d="M109,103.8c-2.9-10.1-12.1-17.5-23.1-17.5s-20.3,7.4-23.1,17.5h-5.9c3-13.2,14.9-23.2,29-23.2
				c14.1,0,26,9.9,29,23.2H109z"/>
		</g>
	</g>
</g>
<path class="st9" d="M82.7,117.1v26.1h5.8v-26.1c1.8-0.7,3.2-2.2,3.9-3.9h46.8v-5.8H92.4c-1.1-2.6-3.8-4.5-6.8-4.5
	c-4.1,0-7.4,3.3-7.4,7.4C78.2,113.4,80.1,116,82.7,117.1z M85.6,107.1c1.8,0,3.3,1.5,3.3,3.3s-1.5,3.3-3.3,3.3s-3.3-1.5-3.3-3.3
	S83.8,107.1,85.6,107.1z"/>
<path class="st10" d="M132.5,127.8c1.2,2.5,3.7,4.2,6.7,4.2c4.1,0,7.4-3.3,7.4-7.4c0-4.1-3.3-7.4-7.4-7.4c-3.1,0-5.8,2-6.9,4.8H98.7
	v21.3h34.7v8.8H98.7v28.2h-53v-67H56v58.2h22.7c1.1,2.8,3.8,4.8,6.9,4.8c4.1,0,7.4-3.3,7.4-7.4c0-4.1-3.3-7.4-7.4-7.4
	c-2.9,0-5.5,1.7-6.7,4.2H61.8v-58.2H40V186h64.5v-28.2h34.7v-20.3h-34.7v-9.7L132.5,127.8z M139.1,121.3c1.8,0,3.3,1.5,3.3,3.3
	c0,1.8-1.5,3.3-3.3,3.3s-3.3-1.5-3.3-3.3C135.9,122.8,137.3,121.3,139.1,121.3z M85.6,165.5c1.8,0,3.3,1.5,3.3,3.3s-1.5,3.3-3.3,3.3
	c-1.8,0-3.3-1.5-3.3-3.3S83.8,165.5,85.6,165.5z"/>
</svg>
