<?xml version="1.0" encoding="utf-8"?>
<!-- Generator: Adobe Illustrator 26.2.1, SVG Export Plug-In . SVG Version: 6.00 Build 0)  -->
<svg version="1.1" id="Layer_1" xmlns="http://www.w3.org/2000/svg" xmlns:xlink="http://www.w3.org/1999/xlink" x="0px" y="0px"
	 viewBox="0 0 197 216" style="enable-background:new 0 0 197 216;" xml:space="preserve">
<style type="text/css">
	.st0{fill:none;stroke:#FFFFFF;stroke-opacity:0.13;}
	.st1{fill:none;stroke:#3393DD;}
	.st2{fill:#5495DC;fill-opacity:0.2;}
	.st3{fill:none;stroke:#FFFFFF;stroke-opacity:0.2;}
	.st4{fill:none;stroke:#FFFFFF;stroke-opacity:0.17;}
	.st5{font-family:'MyriadPro-Regular';}
	.st6{font-size:14px;}
	.st7{fill:url(#SVGID_1_);}
	.st8{fill:#C48200;}
	.st9{fill:#003164;}
</style>
<path class="st0" d="M1,215V9c0-4.4,3.6-8,8-8h188"/>
<path class="st1" d="M1,25.5h196"/>
<path class="st2" d="M1,26h196v190H1V26z"/>
<path class="st3" d="M2.8,1.2h186v214"/>
<path class="st4" d="M189.2,4.2h1.5v211"/>
<path class="st4" d="M191.2,8.2h1.5v207"/>
<text transform="matrix(1 0 0 1 13.75 16.8223)" class="st5 st6">Download Lingua Franca</text>
<g>
	<g>
		<g>
			
				<linearGradient id="SVGID_1_" gradientUnits="userSpaceOnUse" x1="144.5332" y1="61.1968" x2="86.552" y2="61.1968" gradientTransform="matrix(-1 0 0 1 206.4404 0)">
				<stop  offset="0" style="stop-color:#FFFFFF"/>
				<stop  offset="1" style="stop-color:#003164"/>
			</linearGradient>
			<path class="st7" d="M114,72.8c-2.9-10.1-12.1-17.5-23.1-17.5s-20.3,7.4-23.1,17.5h-5.9c3-13.2,14.9-23.2,29-23.2
				c14.1,0,26,9.9,29,23.2H114z"/>
		</g>
	</g>
</g>
<path class="st8" d="M87.7,86.1v26.1h5.8V86.1c1.8-0.7,3.2-2.2,3.9-3.9h46.8v-5.8H97.4c-1.1-2.6-3.8-4.5-6.8-4.5
	c-4.1,0-7.4,3.3-7.4,7.4C83.2,82.4,85.1,85,87.7,86.1z M90.6,76.1c1.8,0,3.3,1.5,3.3,3.3s-1.5,3.3-3.3,3.3s-3.3-1.5-3.3-3.3
	S88.8,76.1,90.6,76.1z"/>
<path class="st9" d="M137.5,96.8c1.2,2.5,3.7,4.2,6.7,4.2c4.1,0,7.4-3.3,7.4-7.4c0-4.1-3.3-7.4-7.4-7.4c-3.1,0-5.8,2-6.9,4.8h-33.5
	v21.3h34.7v8.8h-34.7v28.2h-53v-67H61v58.2h22.7c1.1,2.8,3.8,4.8,6.9,4.8c4.1,0,7.4-3.3,7.4-7.4c0-4.1-3.3-7.4-7.4-7.4
	c-2.9,0-5.5,1.7-6.7,4.2H66.8V76.4H45V155h64.5v-28.2h34.7v-20.3h-34.7v-9.7L137.5,96.8z M144.1,90.3c1.8,0,3.3,1.5,3.3,3.3
	c0,1.8-1.5,3.3-3.3,3.3s-3.3-1.5-3.3-3.3C140.9,91.8,142.3,90.3,144.1,90.3z M90.6,134.5c1.8,0,3.3,1.5,3.3,3.3s-1.5,3.3-3.3,3.3
	c-1.8,0-3.3-1.5-3.3-3.3S88.8,134.5,90.6,134.5z"/>
</svg>
