<?xml version="1.0" encoding="utf-8"?>
<!-- Generator: Adobe Illustrator 26.2.1, SVG Export Plug-In . SVG Version: 6.00 Build 0)  -->
<svg version="1.1" id="Layer_1" xmlns="http://www.w3.org/2000/svg" xmlns:xlink="http://www.w3.org/1999/xlink" x="0px" y="0px"
	 viewBox="0 0 194 282" style="enable-background:new 0 0 194 282;" xml:space="preserve">
<style type="text/css">
	.st0{fill:none;stroke:#000000;stroke-opacity:0.13;}
	.st1{fill:#FFFFFF;fill-opacity:0.24;}
	.st2{fill:none;stroke:#DEDEDE;}
	.st3{fill:none;stroke:#FFFFFF;stroke-opacity:0.2;}
	.st4{fill:none;stroke:#FFFFFF;stroke-opacity:0.17;}
	.st5{font-family:'MyriadPro-Regular';}
	.st6{font-size:14px;}
	.st7{fill:url(#SVGID_1_);}
	.st8{fill:#C48200;}
	.st9{fill:#003164;}
</style>
<path class="st0" d="M0,1h188v280"/>
<path class="st1" d="M0,1h188v281H0V1z"/>
<path class="st2" d="M189,5h2v276"/>
<path class="st2" d="M191,10h2v271"/>
<path class="st3" d="M1.8,34.2h186v214"/>
<path class="st4" d="M188.2,37.2h1.5v211"/>
<path class="st4" d="M190.2,41.2h1.5v207"/>
<text transform="matrix(1 0 0 1 12.75 49.8223)" class="st5 st6">Welcome to Lingua Franca</text>
<g>
	<g>
		<g>
			
				<linearGradient id="SVGID_1_" gradientUnits="userSpaceOnUse" x1="143.5332" y1="94.1968" x2="85.552" y2="94.1968" gradientTransform="matrix(-1 0 0 1 204.4404 0)">
				<stop  offset="0" style="stop-color:#FFFFFF"/>
				<stop  offset="1" style="stop-color:#003164"/>
			</linearGradient>
			<path class="st7" d="M113,105.8c-2.9-10.1-12.1-17.5-23.1-17.5s-20.3,7.4-23.1,17.5h-5.9c3-13.2,14.9-23.2,29-23.2
				c14.1,0,26,9.9,29,23.2H113z"/>
		</g>
	</g>
</g>
<path class="st8" d="M86.7,119.1v26.1h5.8v-26.1c1.8-0.7,3.2-2.2,3.9-3.9h46.8v-5.8H96.4c-1.1-2.6-3.8-4.5-6.8-4.5
	c-4.1,0-7.4,3.3-7.4,7.4C82.2,115.4,84.1,118,86.7,119.1z M89.6,109.1c1.8,0,3.3,1.5,3.3,3.3s-1.5,3.3-3.3,3.3s-3.3-1.5-3.3-3.3
	S87.8,109.1,89.6,109.1z"/>
<path class="st9" d="M136.5,129.8c1.2,2.5,3.7,4.2,6.7,4.2c4.1,0,7.4-3.3,7.4-7.4c0-4.1-3.3-7.4-7.4-7.4c-3.1,0-5.8,2-6.9,4.8h-33.5
	v21.3h34.7v8.8h-34.7v28.2h-53v-67H60v58.2h22.7c1.1,2.8,3.8,4.8,6.9,4.8c4.1,0,7.4-3.3,7.4-7.4c0-4.1-3.3-7.4-7.4-7.4
	c-2.9,0-5.5,1.7-6.7,4.2H65.8v-58.2H44V188h64.5v-28.2h34.7v-20.3h-34.7v-9.7L136.5,129.8z M143.1,123.3c1.8,0,3.3,1.5,3.3,3.3
	c0,1.8-1.5,3.3-3.3,3.3s-3.3-1.5-3.3-3.3C139.9,124.8,141.3,123.3,143.1,123.3z M89.6,167.5c1.8,0,3.3,1.5,3.3,3.3s-1.5,3.3-3.3,3.3
	c-1.8,0-3.3-1.5-3.3-3.3S87.8,167.5,89.6,167.5z"/>
</svg>
