<?xml version="1.0" encoding="UTF-8" standalone="no"?>
<svg
   version="1.1"
   x="0px"
   y="0px"
   width="670.10004"
   height="373.29831"
   viewBox="0 0 670.10004 373.29831"
   id="svg570"
   sodipodi:docname="timing.svg"
   inkscape:version="1.1.2 (1:1.1+202202050950+0a00cf5339)"
   xmlns:inkscape="http://www.inkscape.org/namespaces/inkscape"
   xmlns:sodipodi="http://sodipodi.sourceforge.net/DTD/sodipodi-0.dtd"
   xmlns="http://www.w3.org/2000/svg"
   xmlns:svg="http://www.w3.org/2000/svg">
  <defs
     id="defs574" />
  <sodipodi:namedview
     id="namedview572"
     pagecolor="#ffffff"
     bordercolor="#666666"
     borderopacity="1.0"
     inkscape:pageshadow="2"
     inkscape:pageopacity="0.0"
     inkscape:pagecheckerboard="0"
     showgrid="false"
     inkscape:lockguides="true"
     fit-margin-top="0"
     fit-margin-left="0"
     fit-margin-right="0"
     fit-margin-bottom="0"
     inkscape:zoom="0.65908684"
     inkscape:cx="-31.10364"
     inkscape:cy="63.724531"
     inkscape:window-width="1920"
     inkscape:window-height="1043"
     inkscape:window-x="1920"
     inkscape:window-y="0"
     inkscape:window-maximized="1"
     inkscape:current-layer="svg570" />
  <title
     id="title2" />
  <desc
     id="desc4">Creator: FreeHEP Graphics2D Driver Producer: de.cau.cs.kieler.klighd.piccolo.freehep.SemanticSVGGraphics2D Revision Source:  Date: Monday, March 21, 2022 at 5:38:14 PM Central European Standard Time</desc>
  <path
     d="M 0.5,7.362641 V 365.93566 c 0,3.79014 3.581722,6.86264 8,6.86264 h 653.10004 c 4.41827,0 8,-3.0725 8,-6.86264 V 7.362641 c 0,-3.790132 -3.58173,-6.862641 -8,-6.862641 H 8.5 c -4.418278,0 -8,3.072509 -8,6.862641 z"
     id="path6"
     style="fill:#ffffff;fill-opacity:1;fill-rule:nonzero;stroke:none;stroke-width:1;stroke-linecap:butt;stroke-linejoin:miter;stroke-miterlimit:10;stroke-dasharray:none;stroke-dashoffset:0" />
  <path
     d="M 0.5,7.362641 V 365.93566 c 0,3.79014 3.581722,6.86264 8,6.86264 h 653.10004 c 4.41827,0 8,-3.0725 8,-6.86264 V 7.362641 c 0,-3.790132 -3.58173,-6.862641 -8,-6.862641 H 8.5 c -4.418278,0 -8,3.072509 -8,6.862641 z"
     id="path10"
     style="fill:none;stroke:#bebebe;stroke-width:1;stroke-linecap:butt;stroke-linejoin:miter;stroke-miterlimit:10;stroke-dasharray:none;stroke-dashoffset:0;stroke-opacity:1" />
  <text
     x="0"
     y="12"
     font-weight="normal"
     font-size="13.3333px"
     font-family="Helvetica"
     style="white-space:pre;stroke-width:1;stroke-linecap:butt;stroke-linejoin:miter;stroke-miterlimit:10;stroke-dasharray:none;stroke-dashoffset:0"
     font-style="normal"
     fill="#000000"
     fill-opacity="1"
     stroke="none"
     textLength="102"
     lengthAdjust="spacingAndGlyphs"
     id="text14"
     transform="translate(284.05002,4.637173)">TimingExample</text>
  <path
     d="M 182.2,32.967292 V 356.68337 c 0,3.70535 3.58172,6.70913 8,6.70913 h 441.70001 c 4.41828,0 8,-3.00378 8,-6.70913 V 32.967292 c 0,-3.705358 -3.58172,-6.709143 -8,-6.709143 H 190.2 c -4.41828,0 -8,3.003785 -8,6.709143 z"
     id="path18"
     style="fill:#f2f2f2;fill-opacity:1;fill-rule:nonzero;stroke:none;stroke-width:0.999996;stroke-linecap:butt;stroke-linejoin:miter;stroke-miterlimit:10;stroke-dasharray:none;stroke-dashoffset:0" />
  <path
     d="M 182.2,32.967292 V 356.68337 c 0,3.70535 3.58172,6.70913 8,6.70913 h 441.70001 c 4.41828,0 8,-3.00378 8,-6.70913 V 32.967292 c 0,-3.705358 -3.58172,-6.709143 -8,-6.709143 H 190.2 c -4.41828,0 -8,3.003785 -8,6.709143 z"
     id="path24"
     style="fill:none;stroke:#bebebe;stroke-width:0.999996;stroke-linecap:butt;stroke-linejoin:miter;stroke-miterlimit:10;stroke-dasharray:none;stroke-dashoffset:0;stroke-opacity:1" />
  <text
     x="0"
     y="12"
     font-weight="normal"
     font-size="13.3333px"
     font-family="Helvetica"
     style="white-space:pre;stroke-width:1;stroke-linecap:butt;stroke-linejoin:miter;stroke-miterlimit:10;stroke-dasharray:none;stroke-dashoffset:0"
     font-style="normal"
     fill="#000000"
     fill-opacity="1"
     stroke="none"
     textLength="40"
     lengthAdjust="spacingAndGlyphs"
     id="text30"
     transform="translate(391.05,30.637173)">Modal</text>
  <path
     d="M 189.2,63.900463 V 179.75061 c 0,5.73634 5.8203,10.38656 13,10.38656 h 417.70001 c 7.1797,0 13,-4.65022 13,-10.38656 V 63.900463 c 0,-5.736339 -5.8203,-10.386562 -13,-10.386562 H 202.2 c -7.1797,0 -13,4.650223 -13,10.386562 z"
     id="path34"
     style="fill:#9fb6cd;fill-opacity:0.196078;fill-rule:nonzero;stroke:none;stroke-width:1;stroke-linecap:butt;stroke-linejoin:miter;stroke-miterlimit:10;stroke-dasharray:none;stroke-dashoffset:0" />
  <path
     d="M 189.2,63.900463 V 179.75061 c 0,5.73634 5.8203,10.38656 13,10.38656 h 417.70001 c 7.1797,0 13,-4.65022 13,-10.38656 V 63.900463 c 0,-5.736339 -5.8203,-10.386562 -13,-10.386562 H 202.2 c -7.1797,0 -13,4.650223 -13,10.386562 z"
     id="path40"
     style="fill:none;stroke:#708090;stroke-width:3;stroke-linecap:butt;stroke-linejoin:miter;stroke-miterlimit:10;stroke-dasharray:none;stroke-dashoffset:0;stroke-opacity:1" />
  <text
     x="0"
     y="12"
     font-weight="normal"
     font-size="13.3333px"
     font-family="Helvetica"
     style="white-space:pre;stroke-width:1;stroke-linecap:butt;stroke-linejoin:miter;stroke-miterlimit:10;stroke-dasharray:none;stroke-dashoffset:0"
     font-style="normal"
     fill="#000000"
     fill-opacity="1"
     stroke="none"
     textLength="26"
     lengthAdjust="spacingAndGlyphs"
     id="text46"
     transform="translate(398.05,59.637173)">One</text>
  <path
     d="m 523.7,92.637173 h 39 l 6,10.999997 -6,11 h -39 l 6,-11 z"
     id="path50"
     style="fill:#a6a6a6;fill-opacity:1;fill-rule:nonzero;stroke:none;stroke-width:1;stroke-linecap:butt;stroke-linejoin:miter;stroke-miterlimit:10;stroke-dasharray:none;stroke-dashoffset:0" />
  <path
     d="m 523.7,92.637173 h 39 l 6,10.999997 -6,11 h -39 l 6,-11 z"
     id="path56"
     style="fill:none;stroke:#737373;stroke-width:1;stroke-linecap:butt;stroke-linejoin:miter;stroke-miterlimit:10;stroke-dasharray:none;stroke-dashoffset:0;stroke-opacity:1" />
  <text
     x="0"
     y="12"
     font-weight="bold"
     font-size="13.3333px"
     font-family="Helvetica"
     style="white-space:pre;stroke-width:1;stroke-linecap:butt;stroke-linejoin:miter;stroke-miterlimit:10;stroke-dasharray:none;stroke-dashoffset:0"
     font-style="normal"
     fill="#000000"
     fill-opacity="1"
     stroke="none"
     textLength="9"
     lengthAdjust="spacingAndGlyphs"
     id="text62"
     transform="translate(541.7,95.137173)">2</text>
  <path
     d="m 454.2,94.637173 9,17.999997 h -18 z"
     id="path66"
     style="fill:#ffffff;fill-opacity:1;fill-rule:nonzero;stroke:none;stroke-width:1;stroke-linecap:butt;stroke-linejoin:miter;stroke-miterlimit:10;stroke-dasharray:none;stroke-dashoffset:0" />
  <path
     d="m 454.2,94.637173 9,17.999997 h -18 z"
     id="path72"
     style="fill:none;stroke:#000000;stroke-width:1;stroke-linecap:butt;stroke-linejoin:miter;stroke-miterlimit:10;stroke-dasharray:none;stroke-dashoffset:0;stroke-opacity:1" />
  <text
     x="0"
     y="10"
     font-weight="normal"
     font-size="10.6667px"
     font-family="Helvetica"
     style="white-space:pre;stroke-width:1;stroke-linecap:butt;stroke-linejoin:miter;stroke-miterlimit:10;stroke-dasharray:none;stroke-dashoffset:0"
     font-style="normal"
     fill="#000000"
     fill-opacity="1"
     stroke="none"
     textLength="6"
     lengthAdjust="spacingAndGlyphs"
     id="text78"
     transform="translate(451.2,99.837173)">L</text>
  <text
     x="0"
     y="9"
     font-weight="normal"
     font-size="9.33333px"
     font-family="Helvetica"
     style="white-space:pre;stroke-width:1;stroke-linecap:butt;stroke-linejoin:miter;stroke-miterlimit:10;stroke-dasharray:none;stroke-dashoffset:0"
     font-style="normal"
     fill="#000000"
     fill-opacity="1"
     stroke="none"
     textLength="99"
     lengthAdjust="spacingAndGlyphs"
     id="text82"
     transform="translate(404.7,117.63717)">min delay: 500 msec</text>
  <path
     d="m 274.2,103.63717 c 0,8.00813 -6.49187,14.5 -14.5,14.5 -8.00813,0 -14.5,-6.49187 -14.5,-14.5 0,-8.008127 6.49187,-14.499997 14.5,-14.499997 8.00813,0 14.5,6.49187 14.5,14.499997 z"
     id="path86"
     style="fill:#f2f2f2;fill-opacity:1;fill-rule:nonzero;stroke:none;stroke-width:1;stroke-linecap:butt;stroke-linejoin:miter;stroke-miterlimit:10;stroke-dasharray:none;stroke-dashoffset:0" />
  <path
     d="m 274.2,103.63717 c 0,8.00813 -6.49187,14.5 -14.5,14.5 -8.00813,0 -14.5,-6.49187 -14.5,-14.5 0,-8.008127 6.49187,-14.499997 14.5,-14.499997 8.00813,0 14.5,6.49187 14.5,14.499997 z"
     id="path92"
     style="fill:none;stroke:#000000;stroke-width:1;stroke-linecap:butt;stroke-linejoin:miter;stroke-miterlimit:10;stroke-dasharray:none;stroke-dashoffset:0;stroke-opacity:1" />
  <path
     d="m 259.7,91.637173 v 11.999997 l 6,6"
     id="path98"
     style="fill:none;stroke:#000000;stroke-width:1;stroke-linecap:butt;stroke-linejoin:miter;stroke-miterlimit:10;stroke-dasharray:none;stroke-dashoffset:0;stroke-opacity:1" />
  <text
     x="0"
     y="10"
     font-weight="normal"
     font-size="10.6667px"
     font-family="Helvetica"
     style="white-space:pre;stroke-width:1;stroke-linecap:butt;stroke-linejoin:miter;stroke-miterlimit:10;stroke-dasharray:none;stroke-dashoffset:0"
     font-style="normal"
     fill="#000000"
     fill-opacity="1"
     stroke="none"
     textLength="120"
     lengthAdjust="spacingAndGlyphs"
     id="text104"
     transform="translate(199.7,123.63717)">(100 msec, 750 msec)</text>
  <path
     d="m 252.2,64.137173 v 13 c 0,0.55228 0.44772,1 1,1 h 13 c 0.55228,0 1,-0.44772 1,-1 v -13 c 0,-0.55228 -0.44772,-1 -1,-1 h -13 c -0.55228,0 -1,0.44772 -1,1 z"
     id="path108"
     style="fill:#eee8aa;fill-opacity:1;fill-rule:nonzero;stroke:none;stroke-width:1;stroke-linecap:butt;stroke-linejoin:miter;stroke-miterlimit:10;stroke-dasharray:none;stroke-dashoffset:0" />
  <path
     d="m 252.2,64.137173 v 13 c 0,0.55228 0.44772,1 1,1 h 13 c 0.55228,0 1,-0.44772 1,-1 v -13 c 0,-0.55228 -0.44772,-1 -1,-1 h -13 c -0.55228,0 -1,0.44772 -1,1 z"
     id="path114"
     style="fill:none;stroke:#eedd82;stroke-width:1;stroke-linecap:butt;stroke-linejoin:miter;stroke-miterlimit:10;stroke-dasharray:none;stroke-dashoffset:0;stroke-opacity:1" />
  <text
     x="0"
     y="7"
     font-weight="normal"
     font-size="8px"
     font-family="Helvetica"
     style="white-space:pre;stroke-width:1;stroke-linecap:butt;stroke-linejoin:miter;stroke-miterlimit:10;stroke-dasharray:none;stroke-dashoffset:0"
     font-style="normal"
     fill="#000000"
     fill-opacity="1"
     stroke="none"
     textLength="10"
     lengthAdjust="spacingAndGlyphs"
     id="text120"
     transform="translate(254.7,65.637173)">T1</text>
  <path
     d="m 339.7,92.637173 h 39 l 6,10.999997 -6,11 h -39 l 6,-11 z"
     id="path124"
     style="fill:#a6a6a6;fill-opacity:1;fill-rule:nonzero;stroke:none;stroke-width:1;stroke-linecap:butt;stroke-linejoin:miter;stroke-miterlimit:10;stroke-dasharray:none;stroke-dashoffset:0" />
  <path
     d="m 339.7,92.637173 h 39 l 6,10.999997 -6,11 h -39 l 6,-11 z"
     id="path130"
     style="fill:none;stroke:#737373;stroke-width:1;stroke-linecap:butt;stroke-linejoin:miter;stroke-miterlimit:10;stroke-dasharray:none;stroke-dashoffset:0;stroke-opacity:1" />
  <text
     x="0"
     y="12"
     font-weight="bold"
     font-size="13.3333px"
     font-family="Helvetica"
     style="white-space:pre;stroke-width:1;stroke-linecap:butt;stroke-linejoin:miter;stroke-miterlimit:10;stroke-dasharray:none;stroke-dashoffset:0"
     font-style="normal"
     fill="#000000"
     fill-opacity="1"
     stroke="none"
     textLength="9"
     lengthAdjust="spacingAndGlyphs"
     id="text136"
     transform="translate(357.7,95.137173)">1</text>
  <path
     d="m 258.39999,156.63717 h 39 l 6,11 -6,11 h -39 l 6,-11 z"
     id="path140"
     style="fill:#a6a6a6;fill-opacity:1;fill-rule:nonzero;stroke:none;stroke-width:1;stroke-linecap:butt;stroke-linejoin:miter;stroke-miterlimit:10;stroke-dasharray:none;stroke-dashoffset:0" />
  <path
     d="m 258.39999,156.63717 h 39 l 6,11 -6,11 h -39 l 6,-11 z"
     id="path146"
     style="fill:none;stroke:#737373;stroke-width:1;stroke-linecap:butt;stroke-linejoin:miter;stroke-miterlimit:10;stroke-dasharray:none;stroke-dashoffset:0;stroke-opacity:1" />
  <text
     x="0"
     y="12"
     font-weight="bold"
     font-size="13.3333px"
     font-family="Helvetica"
     style="white-space:pre;stroke-width:1;stroke-linecap:butt;stroke-linejoin:miter;stroke-miterlimit:10;stroke-dasharray:none;stroke-dashoffset:0"
     font-style="normal"
     fill="#000000"
     fill-opacity="1"
     stroke="none"
     textLength="9"
     lengthAdjust="spacingAndGlyphs"
     id="text152"
     transform="translate(276.39999,159.13717)">3</text>
  <path
     d="m 607.70001,99.637173 8,3.999997 -8,4 z"
     id="path156"
     style="fill:#000000;fill-opacity:1;fill-rule:nonzero;stroke:none;stroke-width:1;stroke-linecap:butt;stroke-linejoin:miter;stroke-miterlimit:10;stroke-dasharray:none;stroke-dashoffset:0" />
  <path
     d="m 607.70001,99.637173 8,3.999997 -8,4 z"
     id="path162"
     style="fill:none;stroke:#000000;stroke-width:1;stroke-linecap:butt;stroke-linejoin:miter;stroke-miterlimit:10;stroke-dasharray:none;stroke-dashoffset:0;stroke-opacity:1" />
  <text
     x="0"
     y="10"
     font-weight="normal"
     font-size="10.6667px"
     font-family="Helvetica"
     style="white-space:pre;stroke-width:1;stroke-linecap:butt;stroke-linejoin:miter;stroke-miterlimit:10;stroke-dasharray:none;stroke-dashoffset:0"
     font-style="normal"
     fill="#000000"
     fill-opacity="1"
     stroke="none"
     textLength="18"
     lengthAdjust="spacingAndGlyphs"
     id="text168"
     transform="translate(588.70001,108.63717)">out</text>
  <path
     d="m 206.4,163.63717 8,4 -8,4 z"
     id="path172"
     style="fill:#000000;fill-opacity:1;fill-rule:nonzero;stroke:none;stroke-width:1;stroke-linecap:butt;stroke-linejoin:miter;stroke-miterlimit:10;stroke-dasharray:none;stroke-dashoffset:0" />
  <path
     d="m 206.4,163.63717 8,4 -8,4 z"
     id="path178"
     style="fill:none;stroke:#000000;stroke-width:1;stroke-linecap:butt;stroke-linejoin:miter;stroke-miterlimit:10;stroke-dasharray:none;stroke-dashoffset:0;stroke-opacity:1" />
  <text
     x="0"
     y="10"
     font-weight="normal"
     font-size="10.6667px"
     font-family="Helvetica"
     style="white-space:pre;stroke-width:1;stroke-linecap:butt;stroke-linejoin:miter;stroke-miterlimit:10;stroke-dasharray:none;stroke-dashoffset:0"
     font-style="normal"
     fill="#000000"
     fill-opacity="1"
     stroke="none"
     textLength="23"
     lengthAdjust="spacingAndGlyphs"
     id="text184"
     transform="translate(215.4,172.63717)">next</text>
  <path
     d="m 458.7,103.63717 h 71"
     id="path188"
     style="fill:none;stroke:#000000;stroke-width:1;stroke-linecap:butt;stroke-linejoin:miter;stroke-miterlimit:10;stroke-dasharray:3, 1;stroke-dashoffset:0;stroke-opacity:1" />
  <path
     d="m 259.7,78.637173 v 10"
     id="path194"
     style="fill:none;stroke:#eedd82;stroke-width:1;stroke-linecap:butt;stroke-linejoin:miter;stroke-miterlimit:10;stroke-dasharray:1, 1;stroke-dashoffset:0;stroke-opacity:1" />
  <path
     d="m 274.7,103.63717 h 71"
     id="path200"
     style="fill:none;stroke:#000000;stroke-width:1;stroke-linecap:butt;stroke-linejoin:miter;stroke-miterlimit:10;stroke-dasharray:3, 1;stroke-dashoffset:0;stroke-opacity:1" />
  <path
     d="m 384.7,103.63717 h 65"
     id="path206"
     style="fill:none;stroke:#000000;stroke-width:1;stroke-linecap:butt;stroke-linejoin:miter;stroke-miterlimit:10;stroke-dasharray:3, 1;stroke-dashoffset:0;stroke-opacity:1" />
  <path
     d="m 568.7,103.63717 h 39"
     id="path212"
     style="fill:none;stroke:#000000;stroke-width:1;stroke-linecap:butt;stroke-linejoin:miter;stroke-miterlimit:10;stroke-dasharray:3, 1;stroke-dashoffset:0;stroke-opacity:1" />
  <path
     d="m 214.4,167.63717 h 50"
     id="path218"
     style="fill:none;stroke:#000000;stroke-width:1;stroke-linecap:butt;stroke-linejoin:miter;stroke-miterlimit:10;stroke-dasharray:3, 1;stroke-dashoffset:0;stroke-opacity:1" />
  <path
     d="m 188.45,223.27457 v 122.69258 c 0,6.01294 5.8203,10.8874 13,10.8874 h 419.20001 c 7.1797,0 13,-4.87446 13,-10.8874 V 223.27457 c 0,-6.01295 -5.8203,-10.8874 -13,-10.8874 H 201.45 c -7.1797,0 -13,4.87445 -13,10.8874 z"
     id="path224"
     style="fill:#9fb6cd;fill-opacity:0.196078;fill-rule:nonzero;stroke:none;stroke-width:0.999998;stroke-linecap:butt;stroke-linejoin:miter;stroke-miterlimit:10;stroke-dasharray:none;stroke-dashoffset:0" />
  <path
     d="m 188.45,223.27457 v 122.69258 c 0,6.01294 5.8203,10.8874 13,10.8874 h 419.20001 c 7.1797,0 13,-4.87446 13,-10.8874 V 223.27457 c 0,-6.01295 -5.8203,-10.8874 -13,-10.8874 H 201.45 c -7.1797,0 -13,4.87445 -13,10.8874 z"
     id="path230"
     style="fill:none;stroke:#708090;stroke-width:1.5;stroke-linecap:butt;stroke-linejoin:miter;stroke-miterlimit:10;stroke-dasharray:none;stroke-dashoffset:0;stroke-opacity:1" />
  <text
     x="0"
     y="12"
     font-weight="normal"
     font-size="13.3333px"
     font-family="Helvetica"
     style="white-space:pre;stroke-width:1;stroke-linecap:butt;stroke-linejoin:miter;stroke-miterlimit:10;stroke-dasharray:none;stroke-dashoffset:0"
     font-style="normal"
     fill="#000000"
     fill-opacity="1"
     stroke="none"
     textLength="25"
     lengthAdjust="spacingAndGlyphs"
     id="text236"
     transform="translate(398.55,217.63717)">Two</text>
  <path
     d="m 252.2,222.13717 v 13 c 0,0.55228 0.44772,1 1,1 h 13 c 0.55228,0 1,-0.44772 1,-1 v -13 c 0,-0.55228 -0.44772,-1 -1,-1 h -13 c -0.55228,0 -1,0.44772 -1,1 z"
     id="path240"
     style="fill:#eee8aa;fill-opacity:1;fill-rule:nonzero;stroke:none;stroke-width:1;stroke-linecap:butt;stroke-linejoin:miter;stroke-miterlimit:10;stroke-dasharray:none;stroke-dashoffset:0" />
  <path
     d="m 252.2,222.13717 v 13 c 0,0.55228 0.44772,1 1,1 h 13 c 0.55228,0 1,-0.44772 1,-1 v -13 c 0,-0.55228 -0.44772,-1 -1,-1 h -13 c -0.55228,0 -1,0.44772 -1,1 z"
     id="path246"
     style="fill:none;stroke:#eedd82;stroke-width:1;stroke-linecap:butt;stroke-linejoin:miter;stroke-miterlimit:10;stroke-dasharray:none;stroke-dashoffset:0;stroke-opacity:1" />
  <text
     x="0"
     y="7"
     font-weight="normal"
     font-size="8px"
     font-family="Helvetica"
     style="white-space:pre;stroke-width:1;stroke-linecap:butt;stroke-linejoin:miter;stroke-miterlimit:10;stroke-dasharray:none;stroke-dashoffset:0"
     font-style="normal"
     fill="#000000"
     fill-opacity="1"
     stroke="none"
     textLength="10"
     lengthAdjust="spacingAndGlyphs"
     id="text252"
     transform="translate(254.7,223.63717)">T2</text>
  <path
     d="m 274.2,261.63717 c 0,8.00813 -6.49187,14.5 -14.5,14.5 -8.00813,0 -14.5,-6.49187 -14.5,-14.5 0,-8.00813 6.49187,-14.5 14.5,-14.5 8.00813,0 14.5,6.49187 14.5,14.5 z"
     id="path256"
     style="fill:#f2f2f2;fill-opacity:1;fill-rule:nonzero;stroke:none;stroke-width:1;stroke-linecap:butt;stroke-linejoin:miter;stroke-miterlimit:10;stroke-dasharray:none;stroke-dashoffset:0" />
  <path
     d="m 274.2,261.63717 c 0,8.00813 -6.49187,14.5 -14.5,14.5 -8.00813,0 -14.5,-6.49187 -14.5,-14.5 0,-8.00813 6.49187,-14.5 14.5,-14.5 8.00813,0 14.5,6.49187 14.5,14.5 z"
     id="path262"
     style="fill:none;stroke:#000000;stroke-width:1;stroke-linecap:butt;stroke-linejoin:miter;stroke-miterlimit:10;stroke-dasharray:none;stroke-dashoffset:0;stroke-opacity:1" />
  <path
     d="m 259.7,249.63717 v 12 l 6,6"
     id="path268"
     style="fill:none;stroke:#000000;stroke-width:1;stroke-linecap:butt;stroke-linejoin:miter;stroke-miterlimit:10;stroke-dasharray:none;stroke-dashoffset:0;stroke-opacity:1" />
  <text
     x="0"
     y="10"
     font-weight="normal"
     font-size="10.6667px"
     font-family="Helvetica"
     style="white-space:pre;stroke-width:1;stroke-linecap:butt;stroke-linejoin:miter;stroke-miterlimit:10;stroke-dasharray:none;stroke-dashoffset:0"
     font-style="normal"
     fill="#000000"
     fill-opacity="1"
     stroke="none"
     textLength="120"
     lengthAdjust="spacingAndGlyphs"
     id="text274"
     transform="translate(199.7,281.63717)">(100 msec, 750 msec)</text>
  <path
     d="m 258.39999,314.63717 h 39 l 6,11 -6,11 h -39 l 6,-11 z"
     id="path278"
     style="fill:#a6a6a6;fill-opacity:1;fill-rule:nonzero;stroke:none;stroke-width:1;stroke-linecap:butt;stroke-linejoin:miter;stroke-miterlimit:10;stroke-dasharray:none;stroke-dashoffset:0" />
  <path
     d="m 258.39999,314.63717 h 39 l 6,11 -6,11 h -39 l 6,-11 z"
     id="path284"
     style="fill:none;stroke:#737373;stroke-width:1;stroke-linecap:butt;stroke-linejoin:miter;stroke-miterlimit:10;stroke-dasharray:none;stroke-dashoffset:0;stroke-opacity:1" />
  <text
     x="0"
     y="12"
     font-weight="bold"
     font-size="13.3333px"
     font-family="Helvetica"
     style="white-space:pre;stroke-width:1;stroke-linecap:butt;stroke-linejoin:miter;stroke-miterlimit:10;stroke-dasharray:none;stroke-dashoffset:0"
     font-style="normal"
     fill="#000000"
     fill-opacity="1"
     stroke="none"
     textLength="9"
     lengthAdjust="spacingAndGlyphs"
     id="text290"
     transform="translate(276.39999,317.13717)">6</text>
  <path
     d="m 454.2,252.63717 9,18 h -18 z"
     id="path294"
     style="fill:#ffffff;fill-opacity:1;fill-rule:nonzero;stroke:none;stroke-width:1;stroke-linecap:butt;stroke-linejoin:miter;stroke-miterlimit:10;stroke-dasharray:none;stroke-dashoffset:0" />
  <path
     d="m 454.2,252.63717 9,18 h -18 z"
     id="path300"
     style="fill:none;stroke:#000000;stroke-width:1;stroke-linecap:butt;stroke-linejoin:miter;stroke-miterlimit:10;stroke-dasharray:none;stroke-dashoffset:0;stroke-opacity:1" />
  <text
     x="0"
     y="10"
     font-weight="normal"
     font-size="10.6667px"
     font-family="Helvetica"
     style="white-space:pre;stroke-width:1;stroke-linecap:butt;stroke-linejoin:miter;stroke-miterlimit:10;stroke-dasharray:none;stroke-dashoffset:0"
     font-style="normal"
     fill="#000000"
     fill-opacity="1"
     stroke="none"
     textLength="6"
     lengthAdjust="spacingAndGlyphs"
     id="text306"
     transform="translate(451.2,257.83717)">L</text>
  <text
     x="0"
     y="9"
     font-weight="normal"
     font-size="9.33333px"
     font-family="Helvetica"
     style="white-space:pre;stroke-width:1;stroke-linecap:butt;stroke-linejoin:miter;stroke-miterlimit:10;stroke-dasharray:none;stroke-dashoffset:0"
     font-style="normal"
     fill="#000000"
     fill-opacity="1"
     stroke="none"
     textLength="99"
     lengthAdjust="spacingAndGlyphs"
     id="text310"
     transform="translate(404.7,275.63717)">min delay: 500 msec</text>
  <path
     d="m 523.7,250.63717 h 39 l 6,11 -6,11 h -39 l 6,-11 z"
     id="path314"
     style="fill:#a6a6a6;fill-opacity:1;fill-rule:nonzero;stroke:none;stroke-width:1;stroke-linecap:butt;stroke-linejoin:miter;stroke-miterlimit:10;stroke-dasharray:none;stroke-dashoffset:0" />
  <path
     d="m 523.7,250.63717 h 39 l 6,11 -6,11 h -39 l 6,-11 z"
     id="path320"
     style="fill:none;stroke:#737373;stroke-width:1;stroke-linecap:butt;stroke-linejoin:miter;stroke-miterlimit:10;stroke-dasharray:none;stroke-dashoffset:0;stroke-opacity:1" />
  <text
     x="0"
     y="12"
     font-weight="bold"
     font-size="13.3333px"
     font-family="Helvetica"
     style="white-space:pre;stroke-width:1;stroke-linecap:butt;stroke-linejoin:miter;stroke-miterlimit:10;stroke-dasharray:none;stroke-dashoffset:0"
     font-style="normal"
     fill="#000000"
     fill-opacity="1"
     stroke="none"
     textLength="9"
     lengthAdjust="spacingAndGlyphs"
     id="text326"
     transform="translate(541.7,253.13717)">5</text>
  <path
     d="m 339.7,250.63717 h 39 l 6,11 -6,11 h -39 l 6,-11 z"
     id="path330"
     style="fill:#a6a6a6;fill-opacity:1;fill-rule:nonzero;stroke:none;stroke-width:1;stroke-linecap:butt;stroke-linejoin:miter;stroke-miterlimit:10;stroke-dasharray:none;stroke-dashoffset:0" />
  <path
     d="m 339.7,250.63717 h 39 l 6,11 -6,11 h -39 l 6,-11 z"
     id="path336"
     style="fill:none;stroke:#737373;stroke-width:1;stroke-linecap:butt;stroke-linejoin:miter;stroke-miterlimit:10;stroke-dasharray:none;stroke-dashoffset:0;stroke-opacity:1" />
  <text
     x="0"
     y="12"
     font-weight="bold"
     font-size="13.3333px"
     font-family="Helvetica"
     style="white-space:pre;stroke-width:1;stroke-linecap:butt;stroke-linejoin:miter;stroke-miterlimit:10;stroke-dasharray:none;stroke-dashoffset:0"
     font-style="normal"
     fill="#000000"
     fill-opacity="1"
     stroke="none"
     textLength="9"
     lengthAdjust="spacingAndGlyphs"
     id="text342"
     transform="translate(357.7,253.13717)">4</text>
  <path
     d="m 206.4,321.63717 8,4 -8,4 z"
     id="path346"
     style="fill:#000000;fill-opacity:1;fill-rule:nonzero;stroke:none;stroke-width:1;stroke-linecap:butt;stroke-linejoin:miter;stroke-miterlimit:10;stroke-dasharray:none;stroke-dashoffset:0" />
  <path
     d="m 206.4,321.63717 8,4 -8,4 z"
     id="path352"
     style="fill:none;stroke:#000000;stroke-width:1;stroke-linecap:butt;stroke-linejoin:miter;stroke-miterlimit:10;stroke-dasharray:none;stroke-dashoffset:0;stroke-opacity:1" />
  <text
     x="0"
     y="10"
     font-weight="normal"
     font-size="10.6667px"
     font-family="Helvetica"
     style="white-space:pre;stroke-width:1;stroke-linecap:butt;stroke-linejoin:miter;stroke-miterlimit:10;stroke-dasharray:none;stroke-dashoffset:0"
     font-style="normal"
     fill="#000000"
     fill-opacity="1"
     stroke="none"
     textLength="23"
     lengthAdjust="spacingAndGlyphs"
     id="text358"
     transform="translate(215.4,330.63717)">next</text>
  <path
     d="m 607.70001,257.63717 8,4 -8,4 z"
     id="path362"
     style="fill:#000000;fill-opacity:1;fill-rule:nonzero;stroke:none;stroke-width:1;stroke-linecap:butt;stroke-linejoin:miter;stroke-miterlimit:10;stroke-dasharray:none;stroke-dashoffset:0" />
  <path
     d="m 607.70001,257.63717 8,4 -8,4 z"
     id="path368"
     style="fill:none;stroke:#000000;stroke-width:1;stroke-linecap:butt;stroke-linejoin:miter;stroke-miterlimit:10;stroke-dasharray:none;stroke-dashoffset:0;stroke-opacity:1" />
  <text
     x="0"
     y="10"
     font-weight="normal"
     font-size="10.6667px"
     font-family="Helvetica"
     style="white-space:pre;stroke-width:1;stroke-linecap:butt;stroke-linejoin:miter;stroke-miterlimit:10;stroke-dasharray:none;stroke-dashoffset:0"
     font-style="normal"
     fill="#000000"
     fill-opacity="1"
     stroke="none"
     textLength="18"
     lengthAdjust="spacingAndGlyphs"
     id="text374"
     transform="translate(588.70001,266.63717)">out</text>
  <path
     d="m 259.7,236.63717 v 10"
     id="path378"
     style="fill:none;stroke:#eedd82;stroke-width:1;stroke-linecap:butt;stroke-linejoin:miter;stroke-miterlimit:10;stroke-dasharray:1, 1;stroke-dashoffset:0;stroke-opacity:1" />
  <path
     d="m 458.7,261.63717 h 71"
     id="path384"
     style="fill:none;stroke:#000000;stroke-width:1;stroke-linecap:butt;stroke-linejoin:miter;stroke-miterlimit:10;stroke-dasharray:3, 1;stroke-dashoffset:0;stroke-opacity:1" />
  <path
     d="m 274.7,261.63717 h 71"
     id="path390"
     style="fill:none;stroke:#000000;stroke-width:1;stroke-linecap:butt;stroke-linejoin:miter;stroke-miterlimit:10;stroke-dasharray:3, 1;stroke-dashoffset:0;stroke-opacity:1" />
  <path
     d="m 384.7,261.63717 h 65"
     id="path396"
     style="fill:none;stroke:#000000;stroke-width:1;stroke-linecap:butt;stroke-linejoin:miter;stroke-miterlimit:10;stroke-dasharray:3, 1;stroke-dashoffset:0;stroke-opacity:1" />
  <path
     d="m 214.4,325.63717 h 50"
     id="path402"
     style="fill:none;stroke:#000000;stroke-width:1;stroke-linecap:butt;stroke-linejoin:miter;stroke-miterlimit:10;stroke-dasharray:3, 1;stroke-dashoffset:0;stroke-opacity:1" />
  <path
     d="m 568.7,261.63717 h 39"
     id="path408"
     style="fill:none;stroke:#000000;stroke-width:1;stroke-linecap:butt;stroke-linejoin:miter;stroke-miterlimit:10;stroke-dasharray:3, 1;stroke-dashoffset:0;stroke-opacity:1" />
  <path
     d="m 485.50002,191.63717 c 0,0 0,10 0,20"
     id="path414"
     style="fill:none;stroke:#708090;stroke-width:1.5;stroke-linecap:butt;stroke-linejoin:miter;stroke-miterlimit:10;stroke-dasharray:none;stroke-dashoffset:0;stroke-opacity:1" />
  <path
     d="m 488.50001,203.63716 -3,3.2 -3,-3.2 3,8 z"
     id="path420"
     style="fill:#708090;fill-opacity:1;fill-rule:nonzero;stroke:none;stroke-width:1;stroke-linecap:butt;stroke-linejoin:miter;stroke-miterlimit:10;stroke-dasharray:none;stroke-dashoffset:0" />
  <path
     d="m 488.50001,203.63716 -3,3.2 -3,-3.2 3,8 z"
     id="path426"
     style="fill:none;stroke:#708090;stroke-width:1;stroke-linecap:butt;stroke-linejoin:round;stroke-miterlimit:10;stroke-dasharray:none;stroke-dashoffset:0;stroke-opacity:1" />
  <path
     d="m 336.60001,211.63717 c 0,-10 0,-20 0,-20"
     id="path432"
     style="fill:none;stroke:#708090;stroke-width:1.5;stroke-linecap:butt;stroke-linejoin:miter;stroke-miterlimit:10;stroke-dasharray:none;stroke-dashoffset:0;stroke-opacity:1" />
  <path
     d="m 333.6,212.63717 3,-3.2 3,3.2 -3,-8 z"
     id="path438"
     style="fill:#708090;fill-opacity:1;fill-rule:nonzero;stroke:none;stroke-width:1;stroke-linecap:butt;stroke-linejoin:miter;stroke-miterlimit:10;stroke-dasharray:none;stroke-dashoffset:0" />
  <path
     d="m 333.6,212.63717 3,-3.2 3,3.2 -3,-8 z"
     id="path444"
     style="fill:none;stroke:#708090;stroke-width:1;stroke-linecap:butt;stroke-linejoin:round;stroke-miterlimit:10;stroke-dasharray:none;stroke-dashoffset:0;stroke-opacity:1" />
  <path
     d="m 344.20001,197.63717 c 0,4.19736 -3.40264,7.6 -7.6,7.6 -4.19736,0 -7.6,-3.40264 -7.6,-7.6 0,-4.19736 3.40264,-7.6 7.6,-7.6 4.19736,0 7.6,3.40264 7.6,7.6 z"
     id="path450"
     style="fill:#ffffff;fill-opacity:1;fill-rule:nonzero;stroke:none;stroke-width:1;stroke-linecap:butt;stroke-linejoin:miter;stroke-miterlimit:10;stroke-dasharray:none;stroke-dashoffset:0" />
  <path
     d="m 344.20001,197.63717 c 0,4.19736 -3.40264,7.6 -7.6,7.6 -4.19736,0 -7.6,-3.40264 -7.6,-7.6 0,-4.19736 3.40264,-7.6 7.6,-7.6 4.19736,0 7.6,3.40264 7.6,7.6 z"
     id="path456"
     style="fill:none;stroke:#708090;stroke-width:0.8;stroke-linecap:butt;stroke-linejoin:miter;stroke-miterlimit:10;stroke-dasharray:none;stroke-dashoffset:0;stroke-opacity:1" />
  <path
     d="m 333.60001,193.63717 v 8 -4 h 6 v 4 -8"
     id="path462"
     style="fill:none;stroke:#708090;stroke-width:2;stroke-linecap:butt;stroke-linejoin:miter;stroke-miterlimit:10;stroke-dasharray:none;stroke-dashoffset:0;stroke-opacity:1" />
  <path
     d="m 177,186.63717 8,4 -8,4 z"
     id="path468"
     style="fill:#000000;fill-opacity:1;fill-rule:nonzero;stroke:none;stroke-width:1;stroke-linecap:butt;stroke-linejoin:miter;stroke-miterlimit:10;stroke-dasharray:none;stroke-dashoffset:0" />
  <path
     d="m 177,186.63717 8,4 -8,4 z"
     id="path474"
     style="fill:none;stroke:#000000;stroke-width:1;stroke-linecap:butt;stroke-linejoin:miter;stroke-miterlimit:10;stroke-dasharray:none;stroke-dashoffset:0;stroke-opacity:1" />
  <text
     x="0"
     y="10"
     font-weight="normal"
     font-size="10.6667px"
     font-family="Helvetica"
     style="white-space:pre;stroke-width:1;stroke-linecap:butt;stroke-linejoin:miter;stroke-miterlimit:10;stroke-dasharray:none;stroke-dashoffset:0"
     font-style="normal"
     fill="#000000"
     fill-opacity="1"
     stroke="none"
     textLength="23"
     lengthAdjust="spacingAndGlyphs"
     id="text480"
     transform="translate(153,195.63717)">next</text>
  <path
     d="m 637.10002,186.63717 8,4 -8,4 z"
     id="path484"
     style="fill:#000000;fill-opacity:1;fill-rule:nonzero;stroke:none;stroke-width:1;stroke-linecap:butt;stroke-linejoin:miter;stroke-miterlimit:10;stroke-dasharray:none;stroke-dashoffset:0" />
  <path
     d="m 637.10002,186.63717 8,4 -8,4 z"
     id="path490"
     style="fill:none;stroke:#000000;stroke-width:1;stroke-linecap:butt;stroke-linejoin:miter;stroke-miterlimit:10;stroke-dasharray:none;stroke-dashoffset:0;stroke-opacity:1" />
  <text
     x="0"
     y="10"
     font-weight="normal"
     font-size="10.6667px"
     font-family="Helvetica"
     style="white-space:pre;stroke-width:1;stroke-linecap:butt;stroke-linejoin:miter;stroke-miterlimit:10;stroke-dasharray:none;stroke-dashoffset:0"
     font-style="normal"
     fill="#000000"
     fill-opacity="1"
     stroke="none"
     textLength="18"
     lengthAdjust="spacingAndGlyphs"
     id="text496"
     transform="translate(646.10002,195.63717)">out</text>
  <path
     d="m 56.5,190.63717 c 0,8.00813 -6.491871,14.5 -14.5,14.5 -8.008129,0 -14.5,-6.49187 -14.5,-14.5 0,-8.00813 6.491871,-14.5 14.5,-14.5 8.008129,0 14.5,6.49187 14.5,14.5 z"
     id="path500"
     style="fill:#f2f2f2;fill-opacity:1;fill-rule:nonzero;stroke:none;stroke-width:1;stroke-linecap:butt;stroke-linejoin:miter;stroke-miterlimit:10;stroke-dasharray:none;stroke-dashoffset:0" />
  <path
     d="m 56.5,190.63717 c 0,8.00813 -6.491871,14.5 -14.5,14.5 -8.008129,0 -14.5,-6.49187 -14.5,-14.5 0,-8.00813 6.491871,-14.5 14.5,-14.5 8.008129,0 14.5,6.49187 14.5,14.5 z"
     id="path506"
     style="fill:none;stroke:#000000;stroke-width:1;stroke-linecap:butt;stroke-linejoin:miter;stroke-miterlimit:10;stroke-dasharray:none;stroke-dashoffset:0;stroke-opacity:1" />
  <path
     d="m 42,178.63717 v 12 l 6,6"
     id="path512"
     style="fill:none;stroke:#000000;stroke-width:1;stroke-linecap:butt;stroke-linejoin:miter;stroke-miterlimit:10;stroke-dasharray:none;stroke-dashoffset:0;stroke-opacity:1" />
  <text
     x="0"
     y="10"
     font-weight="normal"
     font-size="10.6667px"
     font-family="Helvetica"
     style="white-space:pre;stroke-width:1;stroke-linecap:butt;stroke-linejoin:miter;stroke-miterlimit:10;stroke-dasharray:none;stroke-dashoffset:0"
     font-style="normal"
     fill="#000000"
     fill-opacity="1"
     stroke="none"
     textLength="72"
     lengthAdjust="spacingAndGlyphs"
     id="text518"
     transform="translate(6,210.63717)">(1 sec, 1 sec)</text>
  <path
     d="m 37,151.13717 v 13 c 0,0.55228 0.447715,1 1,1 h 8 c 0.552285,0 1,-0.44772 1,-1 v -13 c 0,-0.55228 -0.447715,-1 -1,-1 h -8 c -0.552285,0 -1,0.44772 -1,1 z"
     id="path522"
     style="fill:#eee8aa;fill-opacity:1;fill-rule:nonzero;stroke:none;stroke-width:1;stroke-linecap:butt;stroke-linejoin:miter;stroke-miterlimit:10;stroke-dasharray:none;stroke-dashoffset:0" />
  <path
     d="m 37,151.13717 v 13 c 0,0.55228 0.447715,1 1,1 h 8 c 0.552285,0 1,-0.44772 1,-1 v -13 c 0,-0.55228 -0.447715,-1 -1,-1 h -8 c -0.552285,0 -1,0.44772 -1,1 z"
     id="path528"
     style="fill:none;stroke:#eedd82;stroke-width:1;stroke-linecap:butt;stroke-linejoin:miter;stroke-miterlimit:10;stroke-dasharray:none;stroke-dashoffset:0;stroke-opacity:1" />
  <text
     x="0"
     y="7"
     font-weight="normal"
     font-size="8px"
     font-family="Helvetica"
     style="white-space:pre;stroke-width:1;stroke-linecap:butt;stroke-linejoin:miter;stroke-miterlimit:10;stroke-dasharray:none;stroke-dashoffset:0"
     font-style="normal"
     fill="#000000"
     fill-opacity="1"
     stroke="none"
     textLength="5"
     lengthAdjust="spacingAndGlyphs"
     id="text534"
     transform="translate(39.5,152.63717)">T</text>
  <path
     d="m 93,179.63717 h 39 l 6,11 -6,11 H 93 l 6,-11 z"
     id="path538"
     style="fill:#a6a6a6;fill-opacity:1;fill-rule:nonzero;stroke:none;stroke-width:1;stroke-linecap:butt;stroke-linejoin:miter;stroke-miterlimit:10;stroke-dasharray:none;stroke-dashoffset:0" />
  <path
     d="m 93,179.63717 h 39 l 6,11 -6,11 H 93 l 6,-11 z"
     id="path544"
     style="fill:none;stroke:#737373;stroke-width:1;stroke-linecap:butt;stroke-linejoin:miter;stroke-miterlimit:10;stroke-dasharray:none;stroke-dashoffset:0;stroke-opacity:1" />
  <path
     d="m 42,165.63717 v 10"
     id="path550"
     style="fill:none;stroke:#eedd82;stroke-width:1;stroke-linecap:butt;stroke-linejoin:miter;stroke-miterlimit:10;stroke-dasharray:1, 1;stroke-dashoffset:0;stroke-opacity:1" />
  <path
     d="M 57,190.63717 H 99"
     id="path556"
     style="fill:none;stroke:#000000;stroke-width:1;stroke-linecap:butt;stroke-linejoin:miter;stroke-miterlimit:10;stroke-dasharray:3, 1;stroke-dashoffset:0;stroke-opacity:1" />
  <path
     d="m 138,190.63717 h 39"
     id="path562"
     style="fill:none;stroke:#000000;stroke-width:1;stroke-linecap:butt;stroke-linejoin:miter;stroke-miterlimit:10;stroke-dasharray:3, 1;stroke-dashoffset:0;stroke-opacity:1" />
</svg>
